<?xml version="1.0" standalone="no"?>
<!DOCTYPE svg PUBLIC "-//W3C//DTD SVG 1.1//EN" "http://www.w3.org/Graphics/SVG/1.1/DTD/svg11.dtd" >
<svg xmlns="http://www.w3.org/2000/svg" xmlns:xlink="http://www.w3.org/1999/xlink" version="1.1">
<metadata>
Created by FontForge 20150318 at Mon May 18 10:03:32 2015
 By uniteet7
(c) 2014, Copyright by Botio Nikoltchev. All rights reserved.
</metadata>
<defs>
<font id="RopaSansSCProRegular" horiz-adv-x="560" >
  <font-face 
    font-family="RopaSansSCProRegular"
    font-weight="400"
    font-stretch="normal"
    units-per-em="1000"
    panose-1="2 11 5 4 2 1 1 1 1 2"
    ascent="800"
    descent="-200"
    x-height="511"
    cap-height="655"
    bbox="-76 -337 1231 865"
    underline-thickness="50"
    underline-position="-50"
    unicode-range="U+000D-FEFF"
  />
<missing-glyph horiz-adv-x="486" 
d="M70 0v655h346v-655h-346zM135 65h216v525h-216v-525z" />
    <glyph glyph-name="f_f" unicode="ff" horiz-adv-x="816" 
d="M368 511v-73h-212v-142h158v-72h-158v-224h-81v511h293zM776 511v-73h-212v-142h158v-72h-158v-224h-81v511h293z" />
    <glyph glyph-name="f_f_i" unicode="ffi" horiz-adv-x="1047" 
d="M368 511v-73h-212v-142h158v-72h-158v-224h-81v511h293zM776 511v-73h-212v-142h158v-72h-158v-224h-81v511h293zM972 511v-511h-81v511h81z" />
    <glyph glyph-name="f_f_j" unicode="ffj" horiz-adv-x="1045" 
d="M368 511v-73h-212v-142h158v-72h-158v-224h-81v511h293zM776 511v-73h-212v-142h158v-72h-158v-224h-81v511h293zM970 511v-393q0 -67 -31 -98.5t-100 -31.5q-40 0 -58 6v68q22 -4 55 -4q28 0 40.5 13t12.5 42v398h81z" />
    <glyph glyph-name="f_f_l" unicode="ffl" horiz-adv-x="1214" 
d="M368 511v-73h-212v-142h158v-72h-158v-224h-81v511h293zM776 511v-73h-212v-142h158v-72h-158v-224h-81v511h293zM972 511v-439h212v-72h-293v511h81z" />
    <glyph glyph-name="f_i" unicode="fi" horiz-adv-x="639" 
d="M368 511v-73h-212v-142h158v-72h-158v-224h-81v511h293zM564 511v-511h-81v511h81z" />
    <glyph glyph-name="f_j" unicode="fj" horiz-adv-x="637" 
d="M368 511v-73h-212v-142h158v-72h-158v-224h-81v511h293zM562 511v-393q0 -67 -31 -98.5t-100 -31.5q-40 0 -58 6v68q22 -4 55 -4q28 0 40.5 13t12.5 42v398h81z" />
    <glyph glyph-name="f_l" unicode="fl" horiz-adv-x="806" 
d="M368 511v-73h-212v-142h158v-72h-158v-224h-81v511h293zM564 511v-439h212v-72h-293v511h81z" />
    <glyph glyph-name=".notdef" horiz-adv-x="486" 
d="M70 0v655h346v-655h-346zM135 65h216v525h-216v-525z" />
    <glyph glyph-name=".null" horiz-adv-x="0" 
 />
    <glyph glyph-name=".null" horiz-adv-x="0" 
 />
    <glyph glyph-name="uni000D" unicode="&#xd;" horiz-adv-x="180" 
 />
    <glyph glyph-name="space" unicode=" " horiz-adv-x="180" 
 />
    <glyph glyph-name="exclam" unicode="!" horiz-adv-x="211" 
d="M153 695l-7 -495h-81l-7 495h95zM105 108q56 0 56 -46v-29q0 -45 -56 -45q-55 0 -55 45v29q0 46 55 46z" />
    <glyph glyph-name="quotedbl" unicode="&#x22;" horiz-adv-x="315" 
d="M130 683v-254h-85v254h85zM270 683v-254h-85v254h85z" />
    <glyph glyph-name="numbersign" unicode="#" horiz-adv-x="556" 
d="M441 613v-125h80v-70h-80v-223h80v-70h-80v-125h-85v125h-156v-125h-85v125h-80v70h80v223h-80v70h80v125h85v-125h156v125h85zM356 418h-156v-223h156v223z" />
    <glyph glyph-name="dollar" unicode="$" horiz-adv-x="441" 
d="M267 695v-83q26 -1 109 -13l-2 -73q-74 14 -131 14q-64 0 -91 -21t-27 -65v-20q0 -38 13.5 -54.5t62.5 -30.5l63 -19q86 -26 116.5 -61.5t30.5 -108.5v-5q0 -70 -33.5 -110.5t-110.5 -51.5v-87h-75v82q-43 1 -127 17l2 73q76 -17 131 -17q70 0 99 21t29 65v20
q0 33 -16.5 49.5t-70.5 32.5l-62 19q-80 24 -108.5 59t-28.5 114v5q0 74 36 114.5t116 49.5v85h75z" />
    <glyph glyph-name="percent" unicode="%" horiz-adv-x="860" 
d="M203 625q78 0 117.5 -41.5t39.5 -118.5v-30q0 -77 -39.5 -118.5t-117.5 -41.5t-118 41.5t-40 118.5v30q0 77 40 118.5t118 41.5zM649 613l-335 -613h-87l335 613h87zM203 550q-73 0 -73 -85v-30q0 -85 73 -85q72 0 72 85v30q0 45 -17.5 65t-54.5 20zM673 338
q78 0 117.5 -41.5t39.5 -118.5v-30q0 -77 -39.5 -118.5t-117.5 -41.5t-118 41.5t-40 118.5v30q0 77 40 118.5t118 41.5zM673 263q-73 0 -73 -85v-30q0 -85 73 -85q72 0 72 85v30q0 45 -17.5 65t-54.5 20z" />
    <glyph glyph-name="ampersand" unicode="&#x26;" horiz-adv-x="540" 
d="M250 667q47 0 118 -11l-2 -71q-62 11 -116 11q-102 0 -102 -96v-22q0 -52 32 -81.5t93 -29.5h101v73h82v-73h74v-69h-74v-285q-119 -25 -183 -25q-125 0 -179 45t-54 129v22q0 56 30.5 97.5t86.5 58.5q-92 40 -92 145v22q0 70 48.5 115t136.5 45zM374 298h-107
q-71 0 -106.5 -29t-35.5 -81v-27q0 -101 148 -101q43 0 101 13v225z" />
    <glyph glyph-name="quotesingle" unicode="'" horiz-adv-x="175" 
d="M130 683v-254h-85v254h85z" />
    <glyph glyph-name="parenleft" unicode="(" horiz-adv-x="231" 
d="M241 749v-70q-56 -4 -71 -19.5t-15 -70.5v-523q0 -55 14.5 -71t71.5 -19v-70q-105 0 -138 36.5t-33 147.5v475q0 111 33 147.5t138 36.5z" />
    <glyph glyph-name="parenright" unicode=")" horiz-adv-x="231" 
d="M-10 679v70q105 0 138 -36.5t33 -147.5v-475q0 -111 -33 -147.5t-138 -36.5v70q57 3 71.5 19t14.5 71v523q0 55 -15 70.5t-71 19.5z" />
    <glyph glyph-name="asterisk" unicode="*" horiz-adv-x="410" 
d="M239 695l-10 -112l103 44l23 -66l-111 -25l74 -84l-57 -41l-57 96l-57 -97l-56 42l74 85l-110 24l23 66l102 -43l-10 111h69z" />
    <glyph glyph-name="plus" unicode="+" horiz-adv-x="390" 
d="M233 488v-152h140v-71h-140v-152h-76v152h-140v71h140v152h76z" />
    <glyph glyph-name="comma" unicode="," horiz-adv-x="220" 
d="M110 110q55 0 55 -45v-32q0 -29 -7 -51l-43 -143h-60l36 153q-35 8 -35 43v30q0 45 54 45z" />
    <glyph glyph-name="hyphen" unicode="-" horiz-adv-x="350" 
d="M285 328v-65h-220v65h220z" />
    <glyph glyph-name="period" unicode="." horiz-adv-x="223" 
d="M111 110q57 0 57 -47v-29q0 -46 -57 -46q-56 0 -56 46v29q0 47 56 47z" />
    <glyph glyph-name="slash" unicode="/" horiz-adv-x="255" 
d="M273 683l-205 -683h-85l205 683h85z" />
    <glyph glyph-name="zero" unicode="0" horiz-adv-x="500" 
d="M250 613q90 0 137.5 -51.5t47.5 -153.5v-215q0 -102 -47.5 -153.5t-137.5 -51.5t-137.5 51.5t-47.5 153.5v215q0 102 47.5 153.5t137.5 51.5zM250 541q-100 0 -100 -125v-231q0 -125 100 -125t100 125v231q0 125 -100 125z" />
    <glyph glyph-name="one" unicode="1" horiz-adv-x="312" 
d="M237 601v-601h-85v519h-2l-133 -57l-17 73l162 66h75z" />
    <glyph glyph-name="two" unicode="2" horiz-adv-x="387" 
d="M151 613q189 0 189 -156v-22q0 -47 -16 -87t-67 -100l-145 -175h235v-73h-337v65l200 253q28 35 36.5 57.5t8.5 58.5v18q0 48 -24.5 68.5t-79.5 20.5q-56 0 -126 -22v73q77 21 126 21z" />
    <glyph glyph-name="three" unicode="3" horiz-adv-x="389" 
d="M156 613q85 0 130 -41t45 -115v-10q0 -96 -77 -133q41 -17 65.5 -55t24.5 -86v-10q0 -79 -47.5 -127t-137.5 -48q-47 0 -129 13v71q76 -13 129 -13q48 0 74 26.5t26 72.5v16q0 102 -105 102h-89v68h89q47 0 69.5 23.5t22.5 75.5v19q0 81 -90 81q-44 0 -126 -14v71
q82 13 126 13z" />
    <glyph glyph-name="four" unicode="4" horiz-adv-x="421" 
d="M350 601v-402h61v-70h-61v-129h-83v129h-272v59l258 413h97zM268 504l-182 -305h182v305z" />
    <glyph glyph-name="five" unicode="5" horiz-adv-x="441" 
d="M358 604v-73h-226v-195q57 46 136 46q69 0 103.5 -40.5t34.5 -129.5v-36q0 -188 -195 -188q-73 0 -151 22v69q86 -19 149 -19q112 0 112 116v39q0 96 -74 96t-132 -65h-65v358h308z" />
    <glyph glyph-name="six" unicode="6" horiz-adv-x="475" 
d="M377 606v-73q-123 -2 -177.5 -40.5t-54.5 -114.5v-56q71 67 134 67q72 0 111.5 -44.5t39.5 -132.5v-39q0 -91 -47.5 -138t-138.5 -47q-89 0 -136.5 49.5t-47.5 140.5v184q0 239 317 244zM264 315q-48 0 -119 -65v-77q0 -113 99 -113q101 0 101 108v47q0 49 -21.5 74.5
t-59.5 25.5z" />
    <glyph glyph-name="seven" unicode="7" horiz-adv-x="378" 
d="M366 600v-58l-224 -542h-91l224 524v2h-270v74h361z" />
    <glyph glyph-name="eight" unicode="8" horiz-adv-x="460" 
d="M230 613q80 0 125.5 -41t45.5 -117v-5q0 -91 -65 -129q89 -41 89 -143v-15q0 -83 -50.5 -129t-144.5 -46t-144.5 46t-50.5 129v15q0 104 89 143q-65 38 -65 129v5q0 75 45.5 116.5t125.5 41.5zM230 547q-88 0 -88 -87v-19q0 -47 20 -67.5t68 -20.5t68 20.5t20 67.5v19
q0 87 -88 87zM230 287q-52 0 -81 -28t-29 -79v-25q0 -44 28.5 -70t81.5 -26t81.5 26t28.5 70v25q0 51 -29 79t-81 28z" />
    <glyph glyph-name="nine" unicode="9" horiz-adv-x="475" 
d="M231 613q90 0 137 -49t47 -142v-214q0 -114 -50.5 -167t-153.5 -53q-59 0 -129 16v71q85 -16 129 -16q61 0 90 33.5t29 109.5v76q-70 -67 -136 -67q-71 0 -110 45t-39 132v39q0 90 47 138t139 48zM231 541q-101 0 -101 -109v-47q0 -49 21 -74.5t60 -25.5q48 0 119 65v77
q0 114 -99 114z" />
    <glyph glyph-name="colon" unicode=":" horiz-adv-x="221" 
d="M111 110q57 0 57 -47v-29q0 -46 -57 -46q-56 0 -56 46v29q0 47 56 47zM111 478q57 0 57 -47v-29q0 -46 -57 -46q-56 0 -56 46v29q0 47 56 47z" />
    <glyph glyph-name="semicolon" unicode=";" horiz-adv-x="221" 
d="M110 110q55 0 55 -45v-32q0 -29 -7 -51l-43 -143h-60l36 153q-35 8 -35 43v30q0 45 54 45zM110 478q57 0 57 -47v-29q0 -46 -57 -46q-56 0 -56 46v29q0 47 56 47z" />
    <glyph glyph-name="less" unicode="&#x3c;" horiz-adv-x="390" 
d="M375 494v-83l-276 -114l276 -115v-83l-360 160v75z" />
    <glyph glyph-name="equal" unicode="=" horiz-adv-x="420" 
d="M387 421v-70h-354v70h354zM387 250v-70h-354v70h354z" />
    <glyph glyph-name="greater" unicode="&#x3e;" horiz-adv-x="390" 
d="M15 494l360 -160v-75l-360 -160v83l276 115l-276 114v83z" />
    <glyph glyph-name="question" unicode="?" horiz-adv-x="395" 
d="M156 695q97 0 140.5 -35t43.5 -103v-25q0 -45 -20 -85.5t-67 -89.5l-33 -36q-16 -17 -21.5 -31.5t-5.5 -44.5v-45h-81v32q0 49 7 70t33 52l58 68q27 33 36 55t9 57v22q0 37 -22.5 54t-81.5 17q-47 0 -126 -18v70q78 16 131 16zM154 108q56 0 56 -46v-29q0 -45 -56 -45
q-55 0 -55 45v29q0 46 55 46z" />
    <glyph glyph-name="at" unicode="@" horiz-adv-x="930" 
d="M455 695q415 0 415 -377v-50q0 -112 -57.5 -182.5t-155.5 -70.5q-113 0 -126 94q-78 -94 -154 -94q-64 0 -93 43.5t-18 123.5l18 138q10 81 51.5 124.5t106.5 43.5q32 0 66 -16t56 -38l5 41h80l-41 -320q-2 -33 8.5 -49t41.5 -16q53 0 90 50.5t37 127.5v50
q0 148 -83 224.5t-247 76.5q-147 0 -228.5 -86t-81.5 -245v-100q0 -146 78 -221.5t232 -75.5h135v-76h-135q-395 0 -395 373v100q0 187 99 297t296 110zM455 412q-74 0 -88 -104l-15 -115q-14 -102 51 -102q64 0 124 91l22 181q-18 22 -44.5 35.5t-49.5 13.5z" />
    <glyph glyph-name="A" unicode="A" horiz-adv-x="532" 
d="M318 655l201 -655h-92l-43 152h-241l-43 -152h-87l200 655h105zM264 577l-100 -349h199z" />
    <glyph glyph-name="B" unicode="B" horiz-adv-x="528" 
d="M251 667q105 0 160 -43t55 -117v-22q0 -105 -92 -145q56 -12 87.5 -51.5t31.5 -97.5v-22q0 -83 -58.5 -132t-176.5 -49q-67 0 -183 6v669q92 4 176 4zM238 594q-36 0 -78 -3v-224h98q60 0 91.5 29t31.5 81v17q0 100 -143 100zM264 298h-104v-230q65 -6 98 -6
q150 0 150 112v21q0 103 -144 103z" />
    <glyph glyph-name="C" unicode="C" horiz-adv-x="476" 
d="M283 667q37 0 138 -16l-2 -75q-88 16 -136 16q-68 0 -98 -28t-30 -93v-286q0 -65 29.5 -92.5t98.5 -27.5q48 0 136 16l2 -77q-101 -16 -138 -16q-115 0 -164 49t-49 153v275q0 104 49 153t164 49z" />
    <glyph glyph-name="D" unicode="D" horiz-adv-x="571" 
d="M258 667q119 0 183.5 -67.5t64.5 -194.5v-164q0 -122 -64.5 -187.5t-188.5 -65.5q-85 0 -178 6v668q113 5 183 5zM253 595q-48 0 -93 -3v-525q58 -6 93 -6q77 0 122.5 44.5t45.5 128.5v177q0 91 -44 137.5t-124 46.5z" />
    <glyph glyph-name="E" unicode="E" horiz-adv-x="485" 
d="M420 655v-77h-260v-207h240v-76h-240v-218h260v-77h-345v655h345z" />
    <glyph glyph-name="F" unicode="F" horiz-adv-x="460" 
d="M420 655v-77h-260v-207h196v-76h-196v-295h-85v655h345z" />
    <glyph glyph-name="G" unicode="G" horiz-adv-x="555" 
d="M283 667q70 0 173 -21l-2 -75q-113 22 -171 22q-69 0 -98.5 -27.5t-29.5 -91.5v-290q0 -64 29.5 -92.5t98.5 -28.5q45 0 117 14v221h-125v80h210v-353q-120 -37 -202 -37q-115 0 -164 49t-49 153v275q0 106 50 154t163 48z" />
    <glyph glyph-name="H" unicode="H" horiz-adv-x="580" 
d="M505 655v-655h-85v300h-260v-300h-85v655h85v-279h260v279h85z" />
    <glyph glyph-name="I" unicode="I" horiz-adv-x="235" 
d="M160 655v-655h-85v655h85z" />
    <glyph glyph-name="J" unicode="J" horiz-adv-x="287" 
d="M212 655v-516q0 -77 -36.5 -114t-116.5 -37q-43 0 -64 7v71q28 -5 68 -5q64 0 64 71v523h85z" />
    <glyph glyph-name="K" unicode="K" horiz-adv-x="525" 
d="M499 655l-251 -317l277 -338h-109l-256 321v-321h-85v655h85v-316l244 316h95z" />
    <glyph glyph-name="L" unicode="L" horiz-adv-x="450" 
d="M160 655v-580h260v-75h-345v655h85z" />
    <glyph glyph-name="M" unicode="M" horiz-adv-x="699" 
d="M546 0l-5 538l-139 -470h-105l-139 470l-5 -538h-83l6 655h126l148 -511l147 511h126l6 -655h-83z" />
    <glyph glyph-name="N" unicode="N" horiz-adv-x="582" 
d="M375 0l-216 553v-553h-84v655h136l212 -553v553h84v-655h-132z" />
    <glyph glyph-name="O" unicode="O" horiz-adv-x="576" 
d="M288 667q218 0 218 -215v-249q0 -215 -218 -215t-218 215v249q0 215 218 215zM288 592q-133 0 -133 -130v-268q0 -131 133 -131t133 131v267q0 131 -133 131z" />
    <glyph glyph-name="P" unicode="P" horiz-adv-x="511" 
d="M248 667q118 1 175.5 -46.5t57.5 -136.5v-24q0 -94 -56 -145t-169 -51q-45 0 -96 8v-272h-85v661q80 5 173 6zM246 595q-53 0 -86 -3v-247q60 -8 92 -8q144 0 144 127v17q0 114 -150 114z" />
    <glyph glyph-name="Q" unicode="Q" horiz-adv-x="576" 
d="M288 667q218 0 218 -215v-249q0 -128 -95 -179l115 -30l2 -79h-19l-196 74q-7 -1 -24 -1q-219 0 -219 215v249q0 215 218 215zM288 592q-133 0 -133 -130v-268q0 -131 134 -131q132 0 132 133v265q0 131 -133 131z" />
    <glyph glyph-name="R" unicode="R" horiz-adv-x="540" 
d="M249 667q230 0 230 -175v-25q0 -58 -32 -102.5t-92 -62.5l170 -302h-95l-159 284q-38 -3 -111 2v-286h-85v662q140 5 174 5zM247 595q-45 0 -87 -3v-235q54 -5 90 -5q144 0 144 117v20q0 54 -35 80t-112 26z" />
    <glyph glyph-name="S" unicode="S" horiz-adv-x="461" 
d="M239 667q54 0 141 -16l-2 -75q-82 16 -139 16q-58 0 -83.5 -23t-25.5 -70v-26q0 -36 15.5 -53t65.5 -33l93 -31q67 -23 94.5 -61t27.5 -111v-19q0 -89 -51.5 -133t-168.5 -44q-57 0 -146 20l2 77q83 -20 142 -20q75 0 106 22.5t31 70.5v33q0 35 -15.5 53.5t-54.5 31.5
l-103 34q-69 23 -96 59.5t-27 110.5v11q0 87 46.5 131.5t147.5 44.5z" />
    <glyph glyph-name="T" unicode="T" horiz-adv-x="525" 
d="M495 655v-77h-190v-578h-85v578h-190v77h465z" />
    <glyph glyph-name="U" unicode="U" horiz-adv-x="576" 
d="M501 655v-448q0 -106 -54 -162.5t-159 -56.5q-104 0 -158.5 55t-54.5 162v450h85v-461q0 -64 33 -97.5t95 -33.5t95 33.5t33 97.5v461h85z" />
    <glyph glyph-name="V" unicode="V" horiz-adv-x="526" 
d="M513 655l-197 -655h-112l-191 655h90l157 -573l163 573h90z" />
    <glyph glyph-name="W" unicode="W" horiz-adv-x="848" 
d="M823 655l-151 -655h-114l-134 558l-133 -558h-114l-152 655h90l122 -562l129 562h116l130 -562l121 562h90z" />
    <glyph glyph-name="X" unicode="X" horiz-adv-x="519" 
d="M495 655l-178 -319l189 -336h-103l-146 268l-146 -268h-98l192 338l-180 317h102l137 -250l137 250h94z" />
    <glyph glyph-name="Y" unicode="Y" horiz-adv-x="491" 
d="M478 655l-190 -430v-225h-85v225l-190 430h97l136 -340l137 340h95z" />
    <glyph glyph-name="Z" unicode="Z" horiz-adv-x="480" 
d="M435 655v-67l-296 -511h296v-77h-395v67l296 511h-290v77h389z" />
    <glyph glyph-name="bracketleft" unicode="[" horiz-adv-x="260" 
d="M275 747v-70h-120v-699h120v-70h-205v839h205z" />
    <glyph glyph-name="backslash" unicode="\" horiz-adv-x="255" 
d="M68 683l205 -683h-85l-205 683h85z" />
    <glyph glyph-name="bracketright" unicode="]" horiz-adv-x="260" 
d="M190 747v-839h-205v70h120v699h-120v70h205z" />
    <glyph glyph-name="asciicircum" unicode="^" horiz-adv-x="495" 
d="M285 683l145 -280h-83l-100 201l-99 -201h-83l145 280h75z" />
    <glyph glyph-name="underscore" unicode="_" horiz-adv-x="610" 
d="M545 -120v-65h-480v65h480z" />
    <glyph glyph-name="grave" unicode="`" horiz-adv-x="211" 
d="M116 683l65 -119h-67l-84 119h86z" />
    <glyph glyph-name="a" unicode="a" horiz-adv-x="453" 
d="M276 511l164 -511h-87l-33 113h-190l-34 -113h-83l164 511h99zM225 441l-77 -259h153z" />
    <glyph glyph-name="b" unicode="b" horiz-adv-x="474" 
d="M229 523q85 0 129.5 -35t44.5 -93v-16q0 -83 -79 -113q47 -10 75 -41.5t28 -76.5v-15q0 -69 -49 -107t-147 -38q-77 0 -156 4v526q130 5 154 5zM219 454q-15 0 -63 -3v-159h79q89 0 89 78v12q0 37 -25 54.5t-80 17.5zM240 226h-84v-165q40 -3 79 -3q111 0 111 80v15
q0 73 -106 73z" />
    <glyph glyph-name="c" unicode="c" horiz-adv-x="422" 
d="M249 523q44 0 118 -13l-1 -71q-78 13 -113 13q-56 0 -79 -20.5t-23 -69.5v-213q0 -48 23 -68t79 -20q48 0 113 13l1 -73q-82 -13 -118 -13q-94 0 -136.5 38t-42.5 122v215q0 82 41 121t138 39z" />
    <glyph glyph-name="d" unicode="d" horiz-adv-x="502" 
d="M230 523q100 0 153.5 -54.5t53.5 -154.5v-125q0 -94 -53 -147.5t-160 -53.5q-82 0 -149 4v526q97 5 155 5zM226 454q-34 0 -70 -3v-390q44 -3 70 -3q62 0 96 33.5t34 92.5v128q0 142 -130 142z" />
    <glyph glyph-name="e" unicode="e" horiz-adv-x="433" 
d="M368 511v-73h-212v-142h195v-72h-195v-151h212v-73h-293v511h293z" />
    <glyph glyph-name="f" unicode="f" horiz-adv-x="408" 
d="M368 511v-73h-212v-142h158v-72h-158v-224h-81v511h293z" />
    <glyph glyph-name="g" unicode="g" horiz-adv-x="489" 
d="M249 523q49 0 147 -18l-2 -70q-93 18 -144 18q-54 0 -76.5 -19.5t-22.5 -64.5v-225q0 -46 22.5 -65.5t75.5 -19.5q33 0 89 9v158h-95v73h176v-281q-106 -30 -170 -30q-96 0 -137.5 38.5t-41.5 121.5v214q0 83 41.5 122t137.5 39z" />
    <glyph glyph-name="h" unicode="h" horiz-adv-x="512" 
d="M437 511v-511h-82v227h-199v-227h-81v511h81v-212h199v212h82z" />
    <glyph glyph-name="i" unicode="i" horiz-adv-x="231" 
d="M156 511v-511h-81v511h81z" />
    <glyph glyph-name="j" unicode="j" horiz-adv-x="259" 
d="M184 511v-393q0 -67 -31 -98.5t-100 -31.5q-40 0 -58 6v68q22 -4 55 -4q28 0 40.5 13t12.5 42v398h81z" />
    <glyph glyph-name="k" unicode="k" horiz-adv-x="458" 
d="M438 511l-195 -246l215 -265h-100l-202 253v-253h-81v511h81v-245l193 245h89z" />
    <glyph glyph-name="l" unicode="l" horiz-adv-x="398" 
d="M156 511v-439h212v-72h-293v511h81z" />
    <glyph glyph-name="m" unicode="m" horiz-adv-x="610" 
d="M534 511l6 -511h-79l-4 389l-107 -334h-91l-107 334l-3 -389h-79l6 511h109l120 -384l120 384h109z" />
    <glyph glyph-name="n" unicode="n" horiz-adv-x="513" 
d="M438 511v-511h-112l-173 409v-409h-78v511h117l168 -401v401h78z" />
    <glyph glyph-name="o" unicode="o" horiz-adv-x="506" 
d="M253 523q183 0 183 -174v-188q0 -173 -183 -173t-183 173v188q0 174 183 174zM253 452q-102 0 -102 -93v-200q0 -100 102 -100t102 93v199q0 101 -102 101z" />
    <glyph glyph-name="p" unicode="p" horiz-adv-x="446" 
d="M221 523q195 0 195 -148v-21q0 -74 -47.5 -115.5t-135.5 -41.5q-35 0 -77 7v-204h-81v518l59 2q59 3 87 3zM220 455q-28 0 -64 -2v-182q40 -6 72 -6q106 0 106 94v10q0 86 -114 86z" />
    <glyph glyph-name="q" unicode="q" horiz-adv-x="506" 
d="M253 523q183 0 183 -174v-183q0 -101 -71 -145l88 -20l2 -71h-19l-161 59q-7 -1 -22 -1q-183 0 -183 173v188q0 174 183 174zM253 452q-102 0 -102 -93v-200q0 -100 102 -100t102 93v199q0 101 -102 101z" />
    <glyph glyph-name="r" unicode="r" horiz-adv-x="470" 
d="M222 523q97 0 144.5 -37.5t47.5 -101.5v-22q0 -42 -25.5 -78t-71.5 -54l138 -230h-91l-128 213q-54 0 -80 2v-215h-81v518q117 5 147 5zM221 455q-5 0 -65 -3v-169q23 -2 66 -2q111 0 111 84v12q0 41 -26 59.5t-86 18.5z" />
    <glyph glyph-name="s" unicode="s" horiz-adv-x="402" 
d="M210 523q51 0 119 -13l-1 -72q-80 14 -118 14q-84 0 -84 -64v-21q0 -25 12 -37t50 -23l75 -23q57 -17 80.5 -48.5t23.5 -88.5v-18q0 -70 -43 -105.5t-142 -35.5q-42 0 -124 17l2 73q75 -17 120 -17q57 0 81.5 15.5t24.5 48.5v26q0 24 -11.5 37t-41.5 22l-84 26
q-58 18 -81 48t-23 87v12q0 140 165 140z" />
    <glyph glyph-name="t" unicode="t" horiz-adv-x="450" 
d="M420 511v-73h-154v-438h-81v438h-155v73h390z" />
    <glyph glyph-name="u" unicode="u" horiz-adv-x="508" 
d="M433 511v-353q0 -170 -179 -170t-179 170v353h81v-358q0 -45 25 -69t73 -24t73 24t25 69v358h81z" />
    <glyph glyph-name="v" unicode="v" horiz-adv-x="448" 
d="M435 511l-160 -511h-101l-161 511h86l125 -437l126 437h85z" />
    <glyph glyph-name="w" unicode="w" horiz-adv-x="714" 
d="M689 511l-121 -511h-105l-106 426l-105 -426h-105l-122 511h86l91 -427l103 427h104l103 -426l91 426h86z" />
    <glyph glyph-name="x" unicode="x" horiz-adv-x="434" 
d="M413 511l-148 -249l156 -262h-90l-114 202l-114 -202h-90l157 262l-148 249h90l107 -189l106 189h88z" />
    <glyph glyph-name="y" unicode="y" horiz-adv-x="426" 
d="M413 511l-159 -337v-174h-82v174l-159 337h92l109 -260l109 260h90z" />
    <glyph glyph-name="z" unicode="z" horiz-adv-x="418" 
d="M373 511v-62l-237 -376h237v-73h-333v62l238 376h-233v73h328z" />
    <glyph glyph-name="braceleft" unicode="{" horiz-adv-x="256" 
d="M266 747v-70q-55 0 -70.5 -16t-15.5 -73v-146q0 -51 -13.5 -77.5t-44.5 -37.5q58 -19 58 -115v-145q0 -58 16 -73.5t70 -15.5v-70q-104 0 -137.5 34t-33.5 146v124q0 46 -14.5 63t-50.5 17h-25v70h25q36 0 50.5 17.5t14.5 62.5v125q0 59 7.5 93.5t28.5 54.5t51 26t84 6z
" />
    <glyph glyph-name="bar" unicode="|" horiz-adv-x="225" 
d="M155 758v-862h-85v862h85z" />
    <glyph glyph-name="braceright" unicode="}" horiz-adv-x="256" 
d="M-9 677v70q54 0 84 -6t51 -26t28.5 -54.5t7.5 -93.5v-125q0 -45 14.5 -62.5t50.5 -17.5h25v-70h-25q-36 0 -50.5 -17t-14.5 -63v-124q0 -112 -33.5 -146t-137.5 -34v70q54 0 70 15.5t16 73.5v145q0 96 58 115q-31 11 -44.5 37.5t-13.5 77.5v146q0 57 -15.5 73t-70.5 16z
" />
    <glyph glyph-name="asciitilde" unicode="~" horiz-adv-x="390" 
d="M118 352q36 0 80 -14t76 -14q16 0 40.5 6t41.5 12l16 7v-70q-42 -28 -100 -28q-36 0 -79 14t-77 14q-16 0 -40.5 -6.5t-41.5 -12.5l-16 -6v70q42 28 100 28z" />
    <glyph glyph-name="uni00A0" unicode="&#xa0;" horiz-adv-x="180" 
 />
    <glyph glyph-name="exclamdown" unicode="&#xa1;" horiz-adv-x="211" 
d="M105 402q-55 0 -55 46v29q0 45 55 45q56 0 56 -45v-29q0 -46 -56 -46zM153 -185h-95l7 495h81z" />
    <glyph glyph-name="cent" unicode="&#xa2;" horiz-adv-x="390" 
d="M260 576v-77q26 -1 78 -10l-2 -75q-55 11 -98 11q-98 0 -98 -100v-161q0 -101 98 -101q43 0 98 11l2 -75q-52 -9 -78 -10v-77h-75v81q-130 23 -130 177v148q0 154 130 177v81h75z" />
    <glyph glyph-name="sterling" unicode="&#xa3;" horiz-adv-x="397" 
d="M252 613q44 0 95 -15v-68q-43 13 -82 13q-52 0 -73.5 -19.5t-21.5 -61.5v-87h95v-70h-95v-121q0 -78 -41 -110h263v-74h-347v60q40 49 40 106v139h-70v70h70v82q0 80 41 118t126 38z" />
    <glyph glyph-name="currency" unicode="&#xa4;" horiz-adv-x="470" 
d="M394 523l56 -56l-61 -60q17 -35 17 -84v-20q0 -49 -21 -90l65 -64l-56 -56l-62 63q-40 -24 -99 -24q-57 0 -97 22l-60 -61l-56 56l62 61q-23 41 -23 93v20q0 49 19 87l-58 57l56 56l54 -55q43 26 103 26q61 0 105 -28zM233 421q-47 0 -69.5 -27t-22.5 -71v-20
q0 -99 92 -99q91 0 91 99v20q0 98 -91 98z" />
    <glyph glyph-name="yen" unicode="&#xa5;" horiz-adv-x="455" 
d="M460 601l-164 -342h68v-70h-94v-41h94v-70h-94v-78h-85v78h-95v70h95v41h-95v70h69l-164 342h95l138 -321l137 321h95z" />
    <glyph glyph-name="brokenbar" unicode="&#xa6;" horiz-adv-x="225" 
d="M155 758v-370h-85v370h85zM155 266v-370h-85v370h85z" />
    <glyph glyph-name="section" unicode="&#xa7;" horiz-adv-x="418" 
d="M222 695q45 0 104 -12l-2 -71q-53 12 -98 12q-47 0 -65.5 -14t-18.5 -46v-33q0 -39 41 -55l107 -41q108 -41 108 -120v-31q0 -46 -25 -79t-69 -42q29 -11 46.5 -39t17.5 -65v-38q0 -71 -41 -105.5t-134 -34.5q-50 0 -123 15l2 75q66 -15 121 -15q51 0 69.5 12.5
t18.5 44.5v33q0 50 -41 64l-107 37q-58 20 -83 48t-25 73v24q0 52 28 88t70 41q-31 11 -49.5 39.5t-18.5 67.5v28q0 71 38.5 105t128.5 34zM250 367l-37 11q-48 -1 -74.5 -24.5t-26.5 -59.5v-25q0 -17 13 -29t48 -24l46 -15q45 2 68.5 24t23.5 57v23q0 44 -61 62z" />
    <glyph glyph-name="dieresis" unicode="&#xa8;" horiz-adv-x="331" 
d="M81 689q52 0 52 -42v-29q0 -19 -13.5 -30t-38.5 -11q-23 0 -37 11t-14 30v29q0 42 51 42zM249 689q52 0 52 -42v-29q0 -19 -13.5 -30t-38.5 -11q-23 0 -37 11t-14 30v29q0 42 51 42z" />
    <glyph glyph-name="copyright" unicode="&#xa9;" horiz-adv-x="646" 
d="M323 616q129 0 191 -57.5t62 -154.5v-207q0 -97 -62 -154.5t-191 -57.5t-191 57.5t-62 154.5v207q0 97 62 154.5t191 57.5zM323 550q-86 0 -134 -37t-48 -98v-229q0 -61 48 -98t134 -37t134 37t48 98v230q0 61 -48 97.5t-134 36.5zM341 480q36 0 78 -7l-2 -66
q-42 5 -76 5q-57 0 -57 -79v-55q0 -81 57 -81q34 0 76 5l2 -66q-48 -7 -78 -7q-138 0 -138 148v56q0 147 138 147z" />
    <glyph glyph-name="ordfeminine" unicode="&#xaa;" horiz-adv-x="469" 
d="M234 667q86 0 125.5 -38.5t39.5 -122.5v-280h-81v78q-58 -90 -131 -90q-58 0 -92.5 36.5t-34.5 97.5v28q0 54 41 90.5t110 36.5q38 0 103 -13v26q0 43 -19.5 62t-60.5 19q-48 0 -135 -15v70q94 15 135 15zM232 435q-41 0 -63.5 -19t-22.5 -51v-11q0 -30 16.5 -47
t43.5 -17q65 0 108 76v62q-38 7 -82 7zM399 73v-73h-339v73h339z" />
    <glyph glyph-name="guillemotleft" unicode="&#xab;" horiz-adv-x="488" 
d="M253 438l-93 -170l93 -170h-88l-100 170l100 170h88zM423 438l-93 -170l93 -170h-88l-100 170l100 170h88z" />
    <glyph glyph-name="logicalnot" unicode="&#xac;" horiz-adv-x="390" 
d="M375 335v-222h-76v152h-285v70h361z" />
    <glyph glyph-name="uni00AD" unicode="&#xad;" horiz-adv-x="350" 
d="M285 328v-65h-220v65h220z" />
    <glyph glyph-name="registered" unicode="&#xae;" horiz-adv-x="528" 
d="M264 694q184 0 184 -173v-34q0 -173 -184 -173t-184 173v34q0 173 184 173zM264 650q-72 0 -104 -30.5t-32 -91.5v-48q0 -61 32 -91.5t104 -30.5t104 30.5t32 91.5v49q0 61 -32 91t-104 30zM265 618q87 0 87 -68v-10q0 -19 -12.5 -35t-32.5 -24l52 -86h-49l-44 80h-30
v-80h-43v221q58 2 72 2zM268 580q-18 0 -32 -2v-64q13 -1 34 -1q38 0 38 28v8q0 31 -40 31z" />
    <glyph glyph-name="macron" unicode="&#xaf;" horiz-adv-x="262" 
d="M232 640v-70h-202v70h202z" />
    <glyph glyph-name="degree" unicode="&#xb0;" horiz-adv-x="390" 
d="M195 695q159 0 159 -167v-22q0 -167 -159 -167q-79 0 -119.5 43t-40.5 124v22q0 81 40.5 124t119.5 43zM195 626q-83 0 -83 -98v-22q0 -98 83 -98q82 0 82 98v22q0 98 -82 98z" />
    <glyph glyph-name="plusminus" unicode="&#xb1;" horiz-adv-x="390" 
d="M233 488v-152h140v-71h-140v-152h-76v152h-140v71h140v152h76zM372 70v-70h-356v70h356z" />
    <glyph glyph-name="twosuperior" unicode="&#xb2;" horiz-adv-x="400" 
d="M179 760q148 0 148 -108v-18q0 -35 -13.5 -64.5t-49.5 -68.5l-97 -104h161v-66h-256v60l148 170q19 22 25 36t6 36v16q0 25 -16.5 36t-55.5 11q-47 0 -98 -17v65q59 16 98 16z" />
    <glyph glyph-name="threesuperior" unicode="&#xb3;" horiz-adv-x="400" 
d="M174 760q68 0 102.5 -28.5t34.5 -79.5v-7q0 -64 -60 -92q70 -28 70 -101v-7q0 -55 -38 -88.5t-107 -33.5q-38 0 -97 9v61q52 -8 99 -8q64 0 64 56v13q0 33 -17.5 48.5t-58.5 15.5h-58v59h58q37 0 52.5 15t15.5 47v13q0 47 -60 47q-30 0 -95 -10v62q59 9 95 9z" />
    <glyph glyph-name="acute" unicode="&#xb4;" horiz-adv-x="211" 
d="M181 683l-84 -119h-67l65 119h86z" />
    <glyph glyph-name="mu" unicode="&#xb5;" horiz-adv-x="610" 
d="M534 511l6 -511h-79l-4 389l-107 -334h-91l-107 334l-3 -389h-79l6 511h109l120 -384l120 384h109z" />
    <glyph glyph-name="paragraph" unicode="&#xb6;" horiz-adv-x="546" 
d="M280 683v-868h-86v498h-50q-60 0 -92 30.5t-32 89.5v127q0 58 31.5 90.5t92.5 32.5h136zM471 683v-868h-86v868h86zM194 610h-40q-28 0 -40 -15t-12 -55v-82q0 -39 12 -54.5t40 -15.5h40v222z" />
    <glyph glyph-name="periodcentered" unicode="&#xb7;" horiz-adv-x="221" 
d="M110 311q57 0 57 -47v-29q0 -46 -57 -46q-56 0 -56 46v29q0 47 56 47z" />
    <glyph glyph-name="cedilla" unicode="&#xb8;" horiz-adv-x="204" 
d="M133 28l-21 -69h10q22 0 37 -18t15 -46v-15q0 -77 -95 -77q-19 0 -49 5v53q28 -4 36 -4q41 0 41 24v13q0 26 -34 26h-30v21l27 87h63z" />
    <glyph glyph-name="onesuperior" unicode="&#xb9;" horiz-adv-x="400" 
d="M256 752v-355h80v-66h-252v66h92v279h-1l-97 -39l-15 67l128 48h65z" />
    <glyph glyph-name="ordmasculine" unicode="&#xba;" horiz-adv-x="492" 
d="M246 667q176 0 176 -182v-88q0 -182 -176 -182q-86 0 -131 46t-45 136v88q0 182 176 182zM246 596q-43 0 -67 -27t-24 -77v-102q0 -50 24 -77t67 -27t67 27t24 77v103q0 50 -24 76.5t-67 26.5zM417 73v-73h-342v73h342z" />
    <glyph glyph-name="guillemotright" unicode="&#xbb;" horiz-adv-x="488" 
d="M153 438l100 -170l-100 -170h-88l93 170l-93 170h88zM323 438l100 -170l-100 -170h-88l93 170l-93 170h88z" />
    <glyph glyph-name="onequarter" unicode="&#xbc;" horiz-adv-x="1000" 
d="M246 602v-355h80v-66h-252v66h92v279h-1l-97 -39l-15 67l128 48h65zM690 601l-305 -601h-83l305 601h83zM816 421l-93 -267h109v132h76v-132h56v-64h-56v-90h-77v90h-171l-20 42l104 289h72z" />
    <glyph glyph-name="onehalf" unicode="&#xbd;" horiz-adv-x="1000" 
d="M251 602v-355h80v-66h-252v66h92v279h-1l-97 -39l-15 67l128 48h65zM698 601l-305 -601h-83l305 601h83zM794 429q148 0 148 -108v-18q0 -35 -13.5 -64.5t-49.5 -68.5l-97 -104h161v-66h-256v60l148 170q19 22 25 36t6 36v16q0 25 -16.5 36t-55.5 11q-47 0 -98 -17v65
q59 16 98 16z" />
    <glyph glyph-name="threequarters" unicode="&#xbe;" horiz-adv-x="1000" 
d="M148 610q68 0 102.5 -28.5t34.5 -79.5v-7q0 -64 -60 -92q70 -28 70 -101v-7q0 -55 -38 -88.5t-107 -33.5q-38 0 -97 9v61q52 -8 99 -8q64 0 64 56v13q0 33 -17.5 48.5t-58.5 15.5h-58v59h58q37 0 52.5 15t15.5 47v13q0 47 -60 47q-30 0 -95 -10v62q59 9 95 9zM660 601
l-305 -601h-83l305 601h83zM798 421l-93 -267h109v132h76v-132h56v-64h-56v-90h-77v90h-171l-20 42l104 289h72z" />
    <glyph glyph-name="questiondown" unicode="&#xbf;" horiz-adv-x="395" 
d="M241 390q-56 0 -56 46v29q0 45 56 45q55 0 55 -45v-29q0 -46 -55 -46zM239 -197q-97 0 -140.5 35t-43.5 103v25q0 45 20 85.5t67 89.5l33 36q16 17 21.5 31.5t5.5 44.5v45h81v-32q0 -49 -7 -70t-33 -52l-58 -68q-27 -33 -36 -55t-9 -57v-22q0 -37 22.5 -54t81.5 -17
q47 0 126 18v-70q-78 -16 -131 -16z" />
    <glyph glyph-name="Agrave" unicode="&#xc0;" horiz-adv-x="532" 
d="M318 655l201 -655h-92l-43 152h-241l-43 -152h-87l200 655h105zM264 577l-100 -349h199zM244 829l66 -119h-74l-85 119h93z" />
    <glyph glyph-name="Aacute" unicode="&#xc1;" horiz-adv-x="532" 
d="M318 655l201 -655h-92l-43 152h-241l-43 -152h-87l200 655h105zM264 577l-100 -349h199zM380 829l-85 -119h-74l66 119h93z" />
    <glyph glyph-name="Acircumflex" unicode="&#xc2;" horiz-adv-x="532" 
d="M318 655l201 -655h-92l-43 152h-241l-43 -152h-87l200 655h105zM264 577l-100 -349h199zM266 840l140 -61v-68l-140 49l-140 -49v68z" />
    <glyph glyph-name="Atilde" unicode="&#xc3;" horiz-adv-x="532" 
d="M318 655l201 -655h-92l-43 152h-241l-43 -152h-87l200 655h105zM264 577l-100 -349h199zM406 810v-70q-34 -30 -80 -30q-22 0 -62 12.5t-60 12.5q-15 0 -34.5 -6.5t-31.5 -12.5l-12 -6v70q34 30 80 30q29 0 67 -12.5t55 -12.5q15 0 34.5 6.5t31.5 12.5z" />
    <glyph glyph-name="Adieresis" unicode="&#xc4;" horiz-adv-x="532" 
d="M318 655l201 -655h-92l-43 152h-241l-43 -152h-87l200 655h105zM264 577l-100 -349h199zM182 824q52 0 52 -43v-29q0 -42 -52 -42q-24 0 -38 11.5t-14 30.5v29q0 43 52 43zM349 824q53 0 53 -43v-29q0 -42 -53 -42q-23 0 -37.5 11.5t-14.5 30.5v29q0 21 14 32t38 11z" />
    <glyph glyph-name="Aring" unicode="&#xc5;" horiz-adv-x="532" 
d="M266 800q53 0 84 -25t31 -75q0 -64 -50 -88l188 -612h-92l-43 152h-241l-43 -152h-87l187 613q-49 24 -49 87q0 50 30.5 75t84.5 25zM266 745q-50 0 -50 -45t50 -45t50 45t-50 45zM264 582l-100 -354h199z" />
    <glyph glyph-name="AE" unicode="&#xc6;" horiz-adv-x="772" 
d="M707 655v-77h-260v-207h240v-76h-240v-218h260v-77h-345v152h-194l-66 -152h-89l293 655h401zM362 597l-161 -369h161v369z" />
    <glyph glyph-name="Ccedilla" unicode="&#xc7;" horiz-adv-x="476" 
d="M283 667q37 0 138 -16l-2 -75q-88 16 -136 16q-68 0 -98 -28t-30 -93v-286q0 -65 29.5 -92.5t98.5 -27.5q48 0 136 16l2 -77q-106 -15 -129 -16l-9 -29h10q22 0 37 -18t15 -46v-15q0 -77 -95 -77q-19 0 -49 5v53q28 -4 36 -4q41 0 41 24v13q-1 26 -34 26h-30v21l15 50
q-85 10 -122 59t-37 140v275q0 104 49 153t164 49z" />
    <glyph glyph-name="Egrave" unicode="&#xc8;" horiz-adv-x="485" 
d="M420 655v-77h-260v-207h240v-76h-240v-218h260v-77h-345v655h345zM231 829l66 -119h-74l-85 119h93z" />
    <glyph glyph-name="Eacute" unicode="&#xc9;" horiz-adv-x="485" 
d="M420 655v-77h-260v-207h240v-76h-240v-218h260v-77h-345v655h345zM367 829l-85 -119h-74l66 119h93z" />
    <glyph glyph-name="Ecircumflex" unicode="&#xca;" horiz-adv-x="485" 
d="M420 655v-77h-260v-207h240v-76h-240v-218h260v-77h-345v655h345zM253 840l140 -61v-68l-140 49l-140 -49v68z" />
    <glyph glyph-name="Edieresis" unicode="&#xcb;" horiz-adv-x="485" 
d="M420 655v-77h-260v-207h240v-76h-240v-218h260v-77h-345v655h345zM169 824q52 0 52 -43v-29q0 -42 -52 -42q-24 0 -38 11.5t-14 30.5v29q0 43 52 43zM336 824q53 0 53 -43v-29q0 -42 -53 -42q-23 0 -37.5 11.5t-14.5 30.5v29q0 21 14 32t38 11z" />
    <glyph glyph-name="Igrave" unicode="&#xcc;" horiz-adv-x="235" 
d="M160 655v-655h-85v655h85zM96 829l66 -119h-74l-85 119h93z" />
    <glyph glyph-name="Iacute" unicode="&#xcd;" horiz-adv-x="235" 
d="M160 655v-655h-85v655h85zM232 829l-85 -119h-74l66 119h93z" />
    <glyph glyph-name="Icircumflex" unicode="&#xce;" horiz-adv-x="235" 
d="M160 655v-655h-85v655h85zM118 840l140 -61v-68l-140 49l-140 -49v68z" />
    <glyph glyph-name="Idieresis" unicode="&#xcf;" horiz-adv-x="235" 
d="M160 655v-655h-85v655h85zM34 824q52 0 52 -43v-29q0 -42 -52 -42q-24 0 -38 11.5t-14 30.5v29q0 43 52 43zM201 824q53 0 53 -43v-29q0 -42 -53 -42q-23 0 -37.5 11.5t-14.5 30.5v29q0 21 14 32t38 11z" />
    <glyph glyph-name="Eth" unicode="&#xd0;" horiz-adv-x="576" 
d="M263 667q119 0 183.5 -67.5t64.5 -194.5v-164q0 -122 -64.5 -187.5t-188.5 -65.5q-85 0 -178 6v309h-70v70h70v290q90 4 183 4zM258 595q-31 0 -93 -2v-220h135v-70h-135v-236q58 -6 93 -6q77 0 122.5 44.5t45.5 128.5v177q0 91 -44 137.5t-124 46.5z" />
    <glyph glyph-name="Ntilde" unicode="&#xd1;" horiz-adv-x="582" 
d="M375 0l-216 553v-553h-84v655h136l212 -553v553h84v-655h-132zM436 810v-70q-34 -30 -80 -30q-22 0 -62 12.5t-60 12.5q-15 0 -34.5 -6.5t-31.5 -12.5l-12 -6v70q34 30 80 30q29 0 67 -12.5t55 -12.5q15 0 34.5 6.5t31.5 12.5z" />
    <glyph glyph-name="Ograve" unicode="&#xd2;" horiz-adv-x="576" 
d="M288 667q218 0 218 -215v-249q0 -215 -218 -215t-218 215v249q0 215 218 215zM288 592q-133 0 -133 -130v-268q0 -131 133 -131t133 131v267q0 131 -133 131zM266 829l66 -119h-74l-85 119h93z" />
    <glyph glyph-name="Oacute" unicode="&#xd3;" horiz-adv-x="576" 
d="M288 667q218 0 218 -215v-249q0 -215 -218 -215t-218 215v249q0 215 218 215zM288 592q-133 0 -133 -130v-268q0 -131 133 -131t133 131v267q0 131 -133 131zM402 829l-85 -119h-74l66 119h93z" />
    <glyph glyph-name="Ocircumflex" unicode="&#xd4;" horiz-adv-x="576" 
d="M288 667q218 0 218 -215v-249q0 -215 -218 -215t-218 215v249q0 215 218 215zM288 592q-133 0 -133 -130v-268q0 -131 133 -131t133 131v267q0 131 -133 131zM288 840l140 -61v-68l-140 49l-140 -49v68z" />
    <glyph glyph-name="Otilde" unicode="&#xd5;" horiz-adv-x="576" 
d="M288 667q218 0 218 -215v-249q0 -215 -218 -215t-218 215v249q0 215 218 215zM288 592q-133 0 -133 -130v-268q0 -131 133 -131t133 131v267q0 131 -133 131zM428 810v-70q-34 -30 -80 -30q-22 0 -62 12.5t-60 12.5q-15 0 -34.5 -6.5t-31.5 -12.5l-12 -6v70q34 30 80 30
q29 0 67 -12.5t55 -12.5q15 0 34.5 6.5t31.5 12.5z" />
    <glyph glyph-name="Odieresis" unicode="&#xd6;" horiz-adv-x="576" 
d="M288 667q218 0 218 -215v-249q0 -215 -218 -215t-218 215v249q0 215 218 215zM288 592q-133 0 -133 -130v-268q0 -131 133 -131t133 131v267q0 131 -133 131zM204 824q52 0 52 -43v-29q0 -42 -52 -42q-24 0 -38 11.5t-14 30.5v29q0 43 52 43zM371 824q53 0 53 -43v-29
q0 -42 -53 -42q-23 0 -37.5 11.5t-14.5 30.5v29q0 21 14 32t38 11z" />
    <glyph glyph-name="multiply" unicode="&#xd7;" horiz-adv-x="390" 
d="M302 458l50 -50l-106 -106l108 -108l-54 -53l-108 107l-105 -105l-50 50l105 105l-107 108l53 54l108 -108z" />
    <glyph glyph-name="Oslash" unicode="&#xd8;" horiz-adv-x="576" 
d="M541 705l-67 -120q32 -51 32 -133v-249q0 -215 -218 -215q-78 0 -129 28l-39 -66h-85l68 118q-33 50 -33 135v249q0 215 218 215q80 0 130 -29l38 67h85zM288 592q-133 0 -133 -130v-268q0 -21 3 -39l225 407q-33 30 -95 30zM418 497l-224 -406q32 -28 94 -28
q133 0 133 131v267q0 19 -3 36z" />
    <glyph glyph-name="Ugrave" unicode="&#xd9;" horiz-adv-x="576" 
d="M501 655v-448q0 -106 -54 -162.5t-159 -56.5q-104 0 -158.5 55t-54.5 162v450h85v-461q0 -64 33 -97.5t95 -33.5t95 33.5t33 97.5v461h85zM266 829l66 -119h-74l-85 119h93z" />
    <glyph glyph-name="Uacute" unicode="&#xda;" horiz-adv-x="576" 
d="M501 655v-448q0 -106 -54 -162.5t-159 -56.5q-104 0 -158.5 55t-54.5 162v450h85v-461q0 -64 33 -97.5t95 -33.5t95 33.5t33 97.5v461h85zM402 829l-85 -119h-74l66 119h93z" />
    <glyph glyph-name="Ucircumflex" unicode="&#xdb;" horiz-adv-x="576" 
d="M501 655v-448q0 -106 -54 -162.5t-159 -56.5q-104 0 -158.5 55t-54.5 162v450h85v-461q0 -64 33 -97.5t95 -33.5t95 33.5t33 97.5v461h85zM288 840l140 -61v-68l-140 49l-140 -49v68z" />
    <glyph glyph-name="Udieresis" unicode="&#xdc;" horiz-adv-x="576" 
d="M501 655v-448q0 -106 -54 -162.5t-159 -56.5q-104 0 -158.5 55t-54.5 162v450h85v-461q0 -64 33 -97.5t95 -33.5t95 33.5t33 97.5v461h85zM204 824q52 0 52 -43v-29q0 -42 -52 -42q-24 0 -38 11.5t-14 30.5v29q0 43 52 43zM371 824q53 0 53 -43v-29q0 -42 -53 -42
q-23 0 -37.5 11.5t-14.5 30.5v29q0 21 14 32t38 11z" />
    <glyph glyph-name="Yacute" unicode="&#xdd;" horiz-adv-x="491" 
d="M478 655l-190 -430v-225h-85v225l-190 430h97l136 -340l137 340h95zM360 829l-85 -119h-74l66 119h93z" />
    <glyph glyph-name="Thorn" unicode="&#xde;" horiz-adv-x="499" 
d="M160 655v-122q48 6 88 6q231 0 231 -182v-24q0 -93 -55.5 -144t-167.5 -51q-45 0 -96 8v-146h-85v655h85zM246 468q-34 0 -86 -5v-244q60 -8 92 -8q142 0 142 126v17q0 114 -148 114z" />
    <glyph glyph-name="germandbls" unicode="&#xdf;" horiz-adv-x="794" 
d="M210 523q51 0 119 -13l-1 -72q-80 14 -118 14q-84 0 -84 -64v-21q0 -25 12 -37t50 -23l75 -23q57 -17 80.5 -48.5t23.5 -88.5v-18q0 -70 -43 -105.5t-142 -35.5q-42 0 -124 17l2 73q75 -17 120 -17q57 0 81.5 15.5t24.5 48.5v26q0 24 -11.5 37t-41.5 22l-84 26
q-58 18 -81 48t-23 87v12q0 140 165 140zM602 523q51 0 119 -13l-1 -72q-80 14 -118 14q-84 0 -84 -64v-21q0 -25 12 -37t50 -23l75 -23q57 -17 80.5 -48.5t23.5 -88.5v-18q0 -70 -43 -105.5t-142 -35.5q-42 0 -124 17l2 73q75 -17 120 -17q57 0 81.5 15.5t24.5 48.5v26
q0 24 -11.5 37t-41.5 22l-84 26q-58 18 -81 48t-23 87v12q0 140 165 140z" />
    <glyph glyph-name="agrave" unicode="&#xe0;" horiz-adv-x="453" 
d="M276 511l164 -511h-87l-33 113h-190l-34 -113h-83l164 511h99zM225 441l-77 -259h153zM197 683l65 -119h-67l-84 119h86z" />
    <glyph glyph-name="aacute" unicode="&#xe1;" horiz-adv-x="453" 
d="M276 511l164 -511h-87l-33 113h-190l-34 -113h-83l164 511h99zM225 441l-77 -259h153zM342 683l-84 -119h-67l65 119h86z" />
    <glyph glyph-name="acircumflex" unicode="&#xe2;" horiz-adv-x="453" 
d="M276 511l164 -511h-87l-33 113h-190l-34 -113h-83l164 511h99zM225 441l-77 -259h153zM227 688l121 -54v-64l-121 45l-121 -45v64z" />
    <glyph glyph-name="atilde" unicode="&#xe3;" horiz-adv-x="453" 
d="M276 511l164 -511h-87l-33 113h-190l-34 -113h-83l164 511h99zM225 441l-77 -259h153zM346 663v-68q-28 -23 -69 -23q-19 0 -52 9.5t-50 9.5q-12 0 -29 -5.5t-28 -10.5l-10 -5v68q28 23 69 23q23 0 55 -9.5t47 -9.5q13 0 29.5 5t27.5 11z" />
    <glyph glyph-name="adieresis" unicode="&#xe4;" horiz-adv-x="453" 
d="M276 511l164 -511h-87l-33 113h-190l-34 -113h-83l164 511h99zM225 441l-77 -259h153zM142 689q52 0 52 -42v-29q0 -19 -13.5 -30t-38.5 -11q-23 0 -37 11t-14 30v29q0 42 51 42zM310 689q52 0 52 -42v-29q0 -19 -13.5 -30t-38.5 -11q-23 0 -37 11t-14 30v29q0 42 51 42z
" />
    <glyph glyph-name="aring" unicode="&#xe5;" horiz-adv-x="453" 
d="M222 662q46 0 72 -20.5t26 -61.5q0 -53 -43 -72l163 -508h-87l-33 113h-190l-34 -113h-83l162 504q-52 17 -52 76q0 41 26.5 61.5t72.5 20.5zM222 613q-38 0 -38 -32q0 -33 38 -33t38 33q0 32 -38 32zM225 441l-77 -259h153z" />
    <glyph glyph-name="ae" unicode="&#xe6;" horiz-adv-x="653" 
d="M588 511v-73h-212v-142h195v-72h-195v-151h212v-73h-293v113h-147l-48 -113h-87l224 511h351zM295 461l-118 -279h118v279z" />
    <glyph glyph-name="ccedilla" unicode="&#xe7;" horiz-adv-x="422" 
d="M249 523q44 0 118 -13l-1 -71q-78 13 -113 13q-56 0 -79 -20.5t-23 -69.5v-213q0 -48 23 -68t79 -20q48 0 113 13l1 -73q-77 -11 -105 -13l-9 -29h10q22 0 37 -18t15 -46v-15q0 -77 -95 -77q-19 0 -49 5v53q28 -4 36 -4q41 0 41 24v13q-1 26 -34 26h-30v21l15 50
q-67 9 -98 47t-31 110v215q0 82 41 121t138 39z" />
    <glyph glyph-name="egrave" unicode="&#xe8;" horiz-adv-x="433" 
d="M368 511v-73h-212v-142h195v-72h-195v-151h212v-73h-293v511h293zM193 683l65 -119h-67l-84 119h86z" />
    <glyph glyph-name="eacute" unicode="&#xe9;" horiz-adv-x="433" 
d="M368 511v-73h-212v-142h195v-72h-195v-151h212v-73h-293v511h293zM338 683l-84 -119h-67l65 119h86z" />
    <glyph glyph-name="ecircumflex" unicode="&#xea;" horiz-adv-x="433" 
d="M368 511v-73h-212v-142h195v-72h-195v-151h212v-73h-293v511h293zM223 688l121 -54v-64l-121 45l-121 -45v64z" />
    <glyph glyph-name="edieresis" unicode="&#xeb;" horiz-adv-x="433" 
d="M368 511v-73h-212v-142h195v-72h-195v-151h212v-73h-293v511h293zM138 689q52 0 52 -42v-29q0 -19 -13.5 -30t-38.5 -11q-23 0 -37 11t-14 30v29q0 42 51 42zM306 689q52 0 52 -42v-29q0 -19 -13.5 -30t-38.5 -11q-23 0 -37 11t-14 30v29q0 42 51 42z" />
    <glyph glyph-name="igrave" unicode="&#xec;" horiz-adv-x="231" 
d="M156 511v-511h-81v511h81zM86 683l65 -119h-67l-84 119h86z" />
    <glyph glyph-name="iacute" unicode="&#xed;" horiz-adv-x="231" 
d="M156 511v-511h-81v511h81zM231 683l-84 -119h-67l65 119h86z" />
    <glyph glyph-name="icircumflex" unicode="&#xee;" horiz-adv-x="231" 
d="M156 511v-511h-81v511h81zM116 688l121 -54v-64l-121 45l-121 -45v64z" />
    <glyph glyph-name="idieresis" unicode="&#xef;" horiz-adv-x="231" 
d="M156 511v-511h-81v511h81zM31 689q52 0 52 -42v-29q0 -19 -13.5 -30t-38.5 -11q-23 0 -37 11t-14 30v29q0 42 51 42zM199 689q52 0 52 -42v-29q0 -19 -13.5 -30t-38.5 -11q-23 0 -37 11t-14 30v29q0 42 51 42z" />
    <glyph glyph-name="eth" unicode="&#xf0;" horiz-adv-x="507" 
d="M235 523q100 0 153.5 -54.5t53.5 -154.5v-125q0 -94 -53 -147.5t-160 -53.5q-82 0 -149 4v232h-64v72h64v224q58 3 155 3zM231 454q-50 0 -70 -1v-157h103v-72h-103v-163q43 -3 70 -3q62 0 96 33.5t34 92.5v128q0 142 -130 142z" />
    <glyph glyph-name="ntilde" unicode="&#xf1;" horiz-adv-x="513" 
d="M438 511v-511h-112l-173 409v-409h-78v511h117l168 -401v401h78zM380 663v-68q-28 -23 -69 -23q-19 0 -52 9.5t-50 9.5q-12 0 -29 -5.5t-28 -10.5l-10 -5v68q28 23 69 23q23 0 55 -9.5t47 -9.5q13 0 29.5 5t27.5 11z" />
    <glyph glyph-name="ograve" unicode="&#xf2;" horiz-adv-x="506" 
d="M253 523q183 0 183 -174v-188q0 -173 -183 -173t-183 173v188q0 174 183 174zM253 452q-102 0 -102 -93v-200q0 -100 102 -100t102 93v199q0 101 -102 101zM223 683l65 -119h-67l-84 119h86z" />
    <glyph glyph-name="oacute" unicode="&#xf3;" horiz-adv-x="506" 
d="M253 523q183 0 183 -174v-188q0 -173 -183 -173t-183 173v188q0 174 183 174zM253 452q-102 0 -102 -93v-200q0 -100 102 -100t102 93v199q0 101 -102 101zM368 683l-84 -119h-67l65 119h86z" />
    <glyph glyph-name="ocircumflex" unicode="&#xf4;" horiz-adv-x="506" 
d="M253 523q183 0 183 -174v-188q0 -173 -183 -173t-183 173v188q0 174 183 174zM253 452q-102 0 -102 -93v-200q0 -100 102 -100t102 93v199q0 101 -102 101zM253 688l121 -54v-64l-121 45l-121 -45v64z" />
    <glyph glyph-name="otilde" unicode="&#xf5;" horiz-adv-x="506" 
d="M253 523q183 0 183 -174v-188q0 -173 -183 -173t-183 173v188q0 174 183 174zM253 452q-102 0 -102 -93v-200q0 -100 102 -100t102 93v199q0 101 -102 101zM372 663v-68q-28 -23 -69 -23q-19 0 -52 9.5t-50 9.5q-12 0 -29 -5.5t-28 -10.5l-10 -5v68q28 23 69 23
q23 0 55 -9.5t47 -9.5q13 0 29.5 5t27.5 11z" />
    <glyph glyph-name="odieresis" unicode="&#xf6;" horiz-adv-x="506" 
d="M253 523q183 0 183 -174v-188q0 -173 -183 -173t-183 173v188q0 174 183 174zM253 452q-102 0 -102 -93v-200q0 -100 102 -100t102 93v199q0 101 -102 101zM168 689q52 0 52 -42v-29q0 -19 -13.5 -30t-38.5 -11q-23 0 -37 11t-14 30v29q0 42 51 42zM336 689q52 0 52 -42
v-29q0 -19 -13.5 -30t-38.5 -11q-23 0 -37 11t-14 30v29q0 42 51 42z" />
    <glyph glyph-name="divide" unicode="&#xf7;" horiz-adv-x="390" 
d="M195 489q49 0 49 -44v-17q0 -43 -49 -43q-48 0 -48 43v17q0 44 48 44zM372 335v-70h-354v70h354zM195 215q49 0 49 -44v-17q0 -43 -49 -43q-48 0 -48 43v17q0 44 48 44z" />
    <glyph glyph-name="oslash" unicode="&#xf8;" horiz-adv-x="506" 
d="M468 550l-58 -96q26 -41 26 -105v-188q0 -173 -183 -173q-60 0 -104 21l-29 -48h-82l58 96q-26 39 -26 104v188q0 174 183 174q62 0 104 -21l29 48h82zM253 452q-102 0 -102 -93v-200q0 -14 1 -21l172 293q-26 21 -71 21zM354 368l-171 -290q23 -19 70 -19q102 0 102 93
v199q0 3 -0.5 9t-0.5 8z" />
    <glyph glyph-name="ugrave" unicode="&#xf9;" horiz-adv-x="508" 
d="M433 511v-353q0 -170 -179 -170t-179 170v353h81v-358q0 -45 25 -69t73 -24t73 24t25 69v358h81zM224 683l65 -119h-67l-84 119h86z" />
    <glyph glyph-name="uacute" unicode="&#xfa;" horiz-adv-x="508" 
d="M433 511v-353q0 -170 -179 -170t-179 170v353h81v-358q0 -45 25 -69t73 -24t73 24t25 69v358h81zM369 683l-84 -119h-67l65 119h86z" />
    <glyph glyph-name="ucircumflex" unicode="&#xfb;" horiz-adv-x="508" 
d="M433 511v-353q0 -170 -179 -170t-179 170v353h81v-358q0 -45 25 -69t73 -24t73 24t25 69v358h81zM254 688l121 -54v-64l-121 45l-121 -45v64z" />
    <glyph glyph-name="udieresis" unicode="&#xfc;" horiz-adv-x="508" 
d="M433 511v-353q0 -170 -179 -170t-179 170v353h81v-358q0 -45 25 -69t73 -24t73 24t25 69v358h81zM169 689q52 0 52 -42v-29q0 -19 -13.5 -30t-38.5 -11q-23 0 -37 11t-14 30v29q0 42 51 42zM337 689q52 0 52 -42v-29q0 -19 -13.5 -30t-38.5 -11q-23 0 -37 11t-14 30v29
q0 42 51 42z" />
    <glyph glyph-name="yacute" unicode="&#xfd;" horiz-adv-x="426" 
d="M413 511l-159 -337v-174h-82v174l-159 337h92l109 -260l109 260h90zM328 683l-84 -119h-67l65 119h86z" />
    <glyph glyph-name="thorn" unicode="&#xfe;" horiz-adv-x="441" 
d="M156 511v-96q22 1 65 1q195 0 195 -148v-21q0 -74 -47.5 -115.5t-135.5 -41.5q-35 0 -77 7v-97h-81v511h81zM220 348q-46 0 -64 -1v-183q40 -6 72 -6q106 0 106 94v10q0 86 -114 86z" />
    <glyph glyph-name="ydieresis" unicode="&#xff;" horiz-adv-x="426" 
d="M413 511l-159 -337v-174h-82v174l-159 337h92l109 -260l109 260h90zM128 689q52 0 52 -42v-29q0 -19 -13.5 -30t-38.5 -11q-23 0 -37 11t-14 30v29q0 42 51 42zM296 689q52 0 52 -42v-29q0 -19 -13.5 -30t-38.5 -11q-23 0 -37 11t-14 30v29q0 42 51 42z" />
    <glyph glyph-name="Amacron" unicode="&#x100;" horiz-adv-x="532" 
d="M318 655l201 -655h-92l-43 152h-241l-43 -152h-87l200 655h105zM264 577l-100 -349h199zM383 790v-75h-235v75h235z" />
    <glyph glyph-name="amacron" unicode="&#x101;" horiz-adv-x="453" 
d="M276 511l164 -511h-87l-33 113h-190l-34 -113h-83l164 511h99zM225 441l-77 -259h153zM328 640v-70h-202v70h202z" />
    <glyph glyph-name="Abreve" unicode="&#x102;" horiz-adv-x="532" 
d="M318 655l201 -655h-92l-43 152h-241l-43 -152h-87l200 655h105zM264 577l-100 -349h199zM406 830v-78q-67 -47 -140 -47q-34 0 -69 11.5t-53 23.5l-18 12v78q8 -6 21.5 -15t50.5 -23.5t68 -14.5t66 13.5t54 26.5z" />
    <glyph glyph-name="abreve" unicode="&#x103;" horiz-adv-x="453" 
d="M276 511l164 -511h-87l-33 113h-190l-34 -113h-83l164 511h99zM225 441l-77 -259h153zM346 679v-75q-52 -44 -119 -44q-30 0 -60 11t-45 22l-14 11v75q7 -6 18.5 -14.5t42.5 -22.5t58 -14t56.5 13t46.5 25z" />
    <glyph glyph-name="Aogonek" unicode="&#x104;" horiz-adv-x="532" 
d="M318 655l201 -655h-22q-56 -30 -56 -87v-10q0 -37 42 -37q15 0 33 3v-61q-21 -5 -48 -5q-49 0 -74 22t-25 59v13q0 29 15.5 56.5t42.5 46.5l-43 152h-241l-43 -152h-87l200 655h105zM264 577l-100 -349h198z" />
    <glyph glyph-name="aogonek" unicode="&#x105;" horiz-adv-x="459" 
d="M276 511l164 -511h-26q-43 -31 -43 -79v-10q0 -37 42 -37q15 0 33 3v-61q-21 -5 -48 -5q-49 0 -74 22t-25 59v13q0 60 52 99l-31 109h-190l-34 -113h-83l164 511h99zM225 441l-77 -259h153z" />
    <glyph glyph-name="Cacute" unicode="&#x106;" horiz-adv-x="476" 
d="M283 667q37 0 138 -16l-2 -75q-88 16 -136 16q-68 0 -98 -28t-30 -93v-286q0 -65 29.5 -92.5t98.5 -27.5q48 0 136 16l2 -77q-101 -16 -138 -16q-115 0 -164 49t-49 153v275q0 104 49 153t164 49zM381 829l-85 -119h-74l66 119h93z" />
    <glyph glyph-name="cacute" unicode="&#x107;" horiz-adv-x="422" 
d="M249 523q44 0 118 -13l-1 -71q-78 13 -113 13q-56 0 -79 -20.5t-23 -69.5v-213q0 -48 23 -68t79 -20q48 0 113 13l1 -73q-82 -13 -118 -13q-94 0 -136.5 38t-42.5 122v215q0 82 41 121t138 39zM354 683l-84 -119h-67l65 119h86z" />
    <glyph glyph-name="Ccircumflex" unicode="&#x108;" horiz-adv-x="476" 
d="M283 667q37 0 138 -16l-2 -75q-88 16 -136 16q-68 0 -98 -28t-30 -93v-286q0 -65 29.5 -92.5t98.5 -27.5q48 0 136 16l2 -77q-101 -16 -138 -16q-115 0 -164 49t-49 153v275q0 104 49 153t164 49zM267 840l140 -61v-68l-140 49l-140 -49v68z" />
    <glyph glyph-name="ccircumflex" unicode="&#x109;" horiz-adv-x="422" 
d="M249 523q44 0 118 -13l-1 -71q-78 13 -113 13q-56 0 -79 -20.5t-23 -69.5v-213q0 -48 23 -68t79 -20q48 0 113 13l1 -73q-82 -13 -118 -13q-94 0 -136.5 38t-42.5 122v215q0 82 41 121t138 39zM239 688l121 -54v-64l-121 45l-121 -45v64z" />
    <glyph glyph-name="Cdotaccent" unicode="&#x10a;" horiz-adv-x="476" 
d="M283 667q37 0 138 -16l-2 -75q-88 16 -136 16q-68 0 -98 -28t-30 -93v-286q0 -65 29.5 -92.5t98.5 -27.5q48 0 136 16l2 -77q-101 -16 -138 -16q-115 0 -164 49t-49 153v275q0 104 49 153t164 49zM266 830q56 0 56 -46v-29q0 -45 -56 -45q-55 0 -55 45v29q0 46 55 46z
" />
    <glyph glyph-name="cdotaccent" unicode="&#x10b;" horiz-adv-x="422" 
d="M249 523q44 0 118 -13l-1 -71q-78 13 -113 13q-56 0 -79 -20.5t-23 -69.5v-213q0 -48 23 -68t79 -20q48 0 113 13l1 -73q-82 -13 -118 -13q-94 0 -136.5 38t-42.5 122v215q0 82 41 121t138 39zM238 695q56 0 56 -46v-29q0 -45 -56 -45q-55 0 -55 45v29q0 46 55 46z" />
    <glyph glyph-name="Ccaron" unicode="&#x10c;" horiz-adv-x="476" 
d="M283 667q37 0 138 -16l-2 -75q-88 16 -136 16q-68 0 -98 -28t-30 -93v-286q0 -65 29.5 -92.5t98.5 -27.5q48 0 136 16l2 -77q-101 -16 -138 -16q-115 0 -164 49t-49 153v275q0 104 49 153t164 49zM407 841v-68l-140 -61l-140 61v68l140 -49z" />
    <glyph glyph-name="ccaron" unicode="&#x10d;" horiz-adv-x="422" 
d="M249 523q44 0 118 -13l-1 -71q-78 13 -113 13q-56 0 -79 -20.5t-23 -69.5v-213q0 -48 23 -68t79 -20q48 0 113 13l1 -73q-82 -13 -118 -13q-94 0 -136.5 38t-42.5 122v215q0 82 41 121t138 39zM360 688v-64l-121 -54l-121 54v64l121 -45z" />
    <glyph glyph-name="Dcaron" unicode="&#x10e;" horiz-adv-x="571" 
d="M258 667q119 0 183.5 -67.5t64.5 -194.5v-164q0 -122 -64.5 -187.5t-188.5 -65.5q-85 0 -178 6v668q113 5 183 5zM253 595q-48 0 -93 -3v-525q58 -6 93 -6q77 0 122.5 44.5t45.5 128.5v177q0 91 -44 137.5t-124 46.5zM401 841v-68l-140 -61l-140 61v68l140 -49z" />
    <glyph glyph-name="dcaron" unicode="&#x10f;" horiz-adv-x="502" 
d="M230 523q100 0 153.5 -54.5t53.5 -154.5v-125q0 -94 -53 -147.5t-160 -53.5q-82 0 -149 4v526q97 5 155 5zM226 454q-34 0 -70 -3v-390q44 -3 70 -3q62 0 96 33.5t34 92.5v128q0 142 -130 142zM351 688v-64l-121 -54l-121 54v64l121 -45z" />
    <glyph glyph-name="Dcroat" unicode="&#x110;" horiz-adv-x="576" 
d="M263 667q119 0 183.5 -67.5t64.5 -194.5v-164q0 -122 -64.5 -187.5t-188.5 -65.5q-85 0 -178 6v309h-70v70h70v290q90 4 183 4zM258 595q-31 0 -93 -2v-220h135v-70h-135v-236q58 -6 93 -6q77 0 122.5 44.5t45.5 128.5v177q0 91 -44 137.5t-124 46.5z" />
    <glyph glyph-name="dcroat" unicode="&#x111;" horiz-adv-x="507" 
d="M235 523q100 0 153.5 -54.5t53.5 -154.5v-125q0 -94 -53 -147.5t-160 -53.5q-82 0 -149 4v232h-64v72h64v224q58 3 155 3zM231 454q-50 0 -70 -1v-157h103v-72h-103v-163q43 -3 70 -3q62 0 96 33.5t34 92.5v128q0 142 -130 142z" />
    <glyph glyph-name="Emacron" unicode="&#x112;" horiz-adv-x="485" 
d="M420 655v-77h-260v-207h240v-76h-240v-218h260v-77h-345v655h345zM370 790v-75h-235v75h235z" />
    <glyph glyph-name="emacron" unicode="&#x113;" horiz-adv-x="433" 
d="M368 511v-73h-212v-142h195v-72h-195v-151h212v-73h-293v511h293zM324 640v-70h-202v70h202z" />
    <glyph glyph-name="Ebreve" unicode="&#x114;" horiz-adv-x="485" 
d="M420 655v-77h-260v-207h240v-76h-240v-218h260v-77h-345v655h345zM393 830v-78q-67 -47 -140 -47q-34 0 -69 11.5t-53 23.5l-18 12v78q8 -6 21.5 -15t50.5 -23.5t68 -14.5t66 13.5t55 26.5z" />
    <glyph glyph-name="ebreve" unicode="&#x115;" horiz-adv-x="433" 
d="M368 511v-73h-212v-142h195v-72h-195v-151h212v-73h-293v511h293zM342 679v-75q-52 -44 -119 -44q-30 0 -60 11t-45 22l-14 11v75q7 -6 18.5 -14.5t42.5 -22.5t58 -14t56.5 13t46.5 25z" />
    <glyph glyph-name="Edotaccent" unicode="&#x116;" horiz-adv-x="485" 
d="M420 655v-77h-260v-207h240v-76h-240v-218h260v-77h-345v655h345zM252 830q56 0 56 -46v-29q0 -45 -56 -45q-55 0 -55 45v29q0 46 55 46z" />
    <glyph glyph-name="edotaccent" unicode="&#x117;" horiz-adv-x="433" 
d="M368 511v-73h-212v-142h195v-72h-195v-151h212v-73h-293v511h293zM222 695q56 0 56 -46v-29q0 -45 -56 -45q-55 0 -55 45v29q0 46 55 46z" />
    <glyph glyph-name="Eogonek" unicode="&#x118;" horiz-adv-x="485" 
d="M420 655v-77h-260v-207h240v-76h-240v-218h260v-77h-59q-56 -30 -56 -87v-10q0 -37 42 -37q15 0 33 3v-61q-21 -5 -48 -5q-49 0 -74 22t-25 59v13q0 62 57 103h-215v655h345z" />
    <glyph glyph-name="eogonek" unicode="&#x119;" horiz-adv-x="433" 
d="M368 511v-73h-212v-142h195v-72h-195v-151h212v-73h-45q-56 -30 -56 -87v-10q0 -37 42 -37q15 0 33 3v-61q-21 -5 -48 -5q-49 0 -74 22t-25 59v13q0 62 57 103h-177v511h293z" />
    <glyph glyph-name="Ecaron" unicode="&#x11a;" horiz-adv-x="485" 
d="M420 655v-77h-260v-207h240v-76h-240v-218h260v-77h-345v655h345zM393 841v-68l-140 -61l-140 61v68l140 -49z" />
    <glyph glyph-name="ecaron" unicode="&#x11b;" horiz-adv-x="433" 
d="M368 511v-73h-212v-142h195v-72h-195v-151h212v-73h-293v511h293zM344 688v-64l-121 -54l-121 54v64l121 -45z" />
    <glyph glyph-name="Gcircumflex" unicode="&#x11c;" horiz-adv-x="555" 
d="M283 667q70 0 173 -21l-2 -75q-113 22 -171 22q-69 0 -98.5 -27.5t-29.5 -91.5v-290q0 -64 29.5 -92.5t98.5 -28.5q45 0 117 14v221h-125v80h210v-353q-120 -37 -202 -37q-115 0 -164 49t-49 153v275q0 106 50 154t163 48zM274 840l140 -61v-68l-140 49l-140 -49v68z" />
    <glyph glyph-name="gcircumflex" unicode="&#x11d;" horiz-adv-x="489" 
d="M249 523q49 0 147 -18l-2 -70q-93 18 -144 18q-54 0 -76.5 -19.5t-22.5 -64.5v-225q0 -46 22.5 -65.5t75.5 -19.5q33 0 89 9v158h-95v73h176v-281q-106 -30 -170 -30q-96 0 -137.5 38.5t-41.5 121.5v214q0 83 41.5 122t137.5 39zM242 688l121 -54v-64l-121 45l-121 -45
v64z" />
    <glyph glyph-name="Gbreve" unicode="&#x11e;" horiz-adv-x="555" 
d="M283 667q70 0 173 -21l-2 -75q-113 22 -171 22q-69 0 -98.5 -27.5t-29.5 -91.5v-290q0 -64 29.5 -92.5t98.5 -28.5q45 0 117 14v221h-125v80h210v-353q-120 -37 -202 -37q-115 0 -164 49t-49 153v275q0 106 50 154t163 48zM414 830v-78q-67 -47 -140 -47q-34 0 -69 11.5
t-53 23.5l-18 12v78q8 -6 21.5 -15t50.5 -23.5t68 -14.5t66 13.5t54 26.5z" />
    <glyph glyph-name="gbreve" unicode="&#x11f;" horiz-adv-x="489" 
d="M249 523q49 0 147 -18l-2 -70q-93 18 -144 18q-54 0 -76.5 -19.5t-22.5 -64.5v-225q0 -46 22.5 -65.5t75.5 -19.5q33 0 89 9v158h-95v73h176v-281q-106 -30 -170 -30q-96 0 -137.5 38.5t-41.5 121.5v214q0 83 41.5 122t137.5 39zM361 679v-75q-52 -44 -119 -44
q-30 0 -60 11t-44 22l-15 11v75q7 -6 18.5 -14.5t42.5 -22.5t58 -14t56.5 13t45.5 25z" />
    <glyph glyph-name="Gdotaccent" unicode="&#x120;" horiz-adv-x="555" 
d="M283 667q70 0 173 -21l-2 -75q-113 22 -171 22q-69 0 -98.5 -27.5t-29.5 -91.5v-290q0 -64 29.5 -92.5t98.5 -28.5q45 0 117 14v221h-125v80h210v-353q-120 -37 -202 -37q-115 0 -164 49t-49 153v275q0 106 50 154t163 48zM273 830q56 0 56 -46v-29q0 -45 -56 -45
q-55 0 -55 45v29q0 46 55 46z" />
    <glyph glyph-name="gdotaccent" unicode="&#x121;" horiz-adv-x="489" 
d="M249 523q49 0 147 -18l-2 -70q-93 18 -144 18q-54 0 -76.5 -19.5t-22.5 -64.5v-225q0 -46 22.5 -65.5t75.5 -19.5q33 0 89 9v158h-95v73h176v-281q-106 -30 -170 -30q-96 0 -137.5 38.5t-41.5 121.5v214q0 83 41.5 122t137.5 39zM241 695q56 0 56 -46v-29q0 -45 -56 -45
q-55 0 -55 45v29q0 46 55 46z" />
    <glyph glyph-name="Gcommaaccent" unicode="&#x122;" horiz-adv-x="555" 
d="M283 667q70 0 173 -21l-2 -75q-113 22 -171 22q-69 0 -98.5 -27.5t-29.5 -91.5v-290q0 -64 29.5 -92.5t98.5 -28.5q45 0 117 14v221h-125v80h210v-353q-120 -37 -202 -37q-115 0 -164 49t-49 153v275q0 106 50 154t163 48zM286 -56q49 0 49 -36v-26q0 -21 -8 -47l-22 -66
h-51l17 76q-29 10 -29 38v25q0 16 12 26t32 10z" />
    <glyph glyph-name="gcommaaccent" unicode="&#x123;" horiz-adv-x="489" 
d="M249 523q49 0 147 -18l-2 -70q-93 18 -144 18q-54 0 -76.5 -19.5t-22.5 -64.5v-225q0 -46 22.5 -65.5t75.5 -19.5q33 0 89 9v158h-95v73h176v-281q-106 -30 -170 -30q-96 0 -137.5 38.5t-41.5 121.5v214q0 83 41.5 122t137.5 39zM258 -56q49 0 49 -36v-26q0 -21 -8 -47
l-22 -66h-51l17 76q-29 10 -29 38v25q0 16 12 26t32 10z" />
    <glyph glyph-name="Hcircumflex" unicode="&#x124;" horiz-adv-x="580" 
d="M505 655v-655h-85v300h-260v-300h-85v655h85v-279h260v279h85zM290 840l140 -61v-68l-140 49l-140 -49v68z" />
    <glyph glyph-name="hcircumflex" unicode="&#x125;" horiz-adv-x="512" 
d="M437 511v-511h-82v227h-199v-227h-81v511h81v-212h199v212h82zM256 688l121 -54v-64l-121 45l-121 -45v64z" />
    <glyph glyph-name="Hbar" unicode="&#x126;" horiz-adv-x="590" 
d="M510 655v-68h50v-71h-50v-516h-85v300h-260v-300h-85v516h-50v71h50v68h85v-68h260v68h85zM425 516h-260v-140h260v140z" />
    <glyph glyph-name="hbar" unicode="&#x127;" horiz-adv-x="522" 
d="M442 511v-50h40v-68h-40v-393h-82v227h-199v-227h-81v393h-40v68h40v50h81v-50h199v50h82zM360 393h-199v-94h199v94z" />
    <glyph glyph-name="Itilde" unicode="&#x128;" horiz-adv-x="235" 
d="M160 655v-655h-85v655h85zM258 810v-70q-34 -30 -80 -30q-22 0 -62 12.5t-60 12.5q-15 0 -34.5 -6.5t-31.5 -12.5l-12 -6v70q34 30 80 30q29 0 67 -12.5t55 -12.5q15 0 34.5 6.5t31.5 12.5z" />
    <glyph glyph-name="itilde" unicode="&#x129;" horiz-adv-x="231" 
d="M156 511v-511h-81v511h81zM235 663v-68q-28 -23 -69 -23q-19 0 -52 9.5t-50 9.5q-12 0 -29 -5.5t-27 -10.5l-11 -5v68q28 23 69 23q24 0 56 -9.5t46 -9.5q13 0 29.5 5t26.5 11z" />
    <glyph glyph-name="Imacron" unicode="&#x12a;" horiz-adv-x="235" 
d="M160 655v-655h-85v655h85zM235 790v-75h-235v75h235z" />
    <glyph glyph-name="imacron" unicode="&#x12b;" horiz-adv-x="231" 
d="M156 511v-511h-81v511h81zM217 640v-70h-202v70h202z" />
    <glyph glyph-name="Ibreve" unicode="&#x12c;" horiz-adv-x="235" 
d="M160 655v-655h-85v655h85zM258 830v-78q-67 -47 -140 -47q-34 0 -69 11.5t-53 23.5l-18 12v78q8 -6 21.5 -15t50.5 -23.5t68 -14.5t66 13.5t54 26.5z" />
    <glyph glyph-name="ibreve" unicode="&#x12d;" horiz-adv-x="231" 
d="M156 511v-511h-81v511h81zM235 679v-75q-52 -44 -119 -44q-30 0 -60 11t-44 22l-15 11v75q7 -6 18.5 -14.5t42.5 -22.5t58 -14t56.5 13t45.5 25z" />
    <glyph glyph-name="Iogonek" unicode="&#x12e;" horiz-adv-x="235" 
d="M160 655v-655h-19q-56 -30 -56 -87v-10q0 -37 42 -37q15 0 33 3v-61q-21 -5 -48 -5q-49 0 -74 22t-25 59v13q0 30 16.5 59t45.5 47v652h85z" />
    <glyph glyph-name="iogonek" unicode="&#x12f;" horiz-adv-x="231" 
d="M156 511v-511h-11q-56 -30 -56 -87v-10q0 -37 42 -37q15 0 33 3v-61q-21 -5 -48 -5q-49 0 -74 22t-25 59v13q0 29 15.5 56.5t42.5 46.5v511h81z" />
    <glyph glyph-name="Idotaccent" unicode="&#x130;" horiz-adv-x="231" 
d="M156 511v-511h-81v511h81zM115 695q56 0 56 -46v-29q0 -45 -56 -45q-55 0 -55 45v29q0 46 55 46z" />
    <glyph glyph-name="dotlessi" unicode="&#x131;" horiz-adv-x="231" 
d="M156 511v-511h-81v511h81z" />
    <glyph glyph-name="IJ" unicode="&#x132;" horiz-adv-x="522" 
d="M160 655v-655h-85v655h85zM447 655v-516q0 -77 -36.5 -114t-116.5 -37q-43 0 -64 7v71q27 -5 68 -5q64 0 64 71v523h85z" />
    <glyph glyph-name="ij" unicode="&#x133;" horiz-adv-x="490" 
d="M156 511v-511h-81v511h81zM415 511v-393q0 -67 -31 -98.5t-100 -31.5q-40 0 -58 6v68q22 -4 55 -4q28 0 40.5 13t12.5 42v398h81z" />
    <glyph glyph-name="Jcircumflex" unicode="&#x134;" horiz-adv-x="287" 
d="M212 655v-516q0 -77 -36.5 -114t-116.5 -37q-43 0 -64 7v71q28 -5 68 -5q64 0 64 71v523h85zM170 840l140 -61v-68l-140 49l-140 -49v68z" />
    <glyph glyph-name="jcircumflex" unicode="&#x135;" horiz-adv-x="259" 
d="M184 511v-393q0 -67 -31 -98.5t-100 -31.5q-40 0 -58 6v68q22 -4 55 -4q28 0 40.5 13t12.5 42v398h81zM144 688l121 -54v-64l-121 45l-121 -45v64z" />
    <glyph glyph-name="Kcommaaccent" unicode="&#x136;" horiz-adv-x="525" 
d="M499 655l-251 -317l277 -338h-109l-256 321v-321h-85v655h85v-316l244 316h95zM276 -56q49 0 49 -36v-26q0 -21 -8 -47l-22 -66h-51l17 76q-29 10 -29 38v25q0 16 12 26t32 10z" />
    <glyph glyph-name="kcommaaccent" unicode="&#x137;" horiz-adv-x="458" 
d="M438 511l-195 -246l215 -265h-100l-202 253v-253h-81v511h81v-245l193 245h89zM253 -56q49 0 49 -36v-26q0 -21 -8 -47l-22 -66h-51l17 76q-29 10 -29 38v25q0 16 12 26t32 10z" />
    <glyph glyph-name="kgreenlandic" unicode="&#x138;" horiz-adv-x="458" 
d="M438 511l-195 -246l215 -265h-100l-202 253v-253h-81v511h81v-245l193 245h89z" />
    <glyph glyph-name="Lacute" unicode="&#x139;" horiz-adv-x="450" 
d="M160 655v-580h260v-75h-345v655h85zM246 829l-85 -119h-74l66 119h93z" />
    <glyph glyph-name="lacute" unicode="&#x13a;" horiz-adv-x="398" 
d="M156 511v-439h212v-72h-293v511h81zM237 683l-84 -119h-67l65 119h86z" />
    <glyph glyph-name="Lcommaaccent" unicode="&#x13b;" horiz-adv-x="450" 
d="M160 655v-580h260v-75h-345v655h85zM249 -56q49 0 49 -36v-26q0 -21 -8 -47l-22 -66h-51l17 76q-29 10 -29 38v25q0 16 12 26t32 10z" />
    <glyph glyph-name="lcommaaccent" unicode="&#x13c;" horiz-adv-x="398" 
d="M156 511v-439h212v-72h-293v511h81zM227 -56q49 0 49 -36v-26q0 -21 -8 -47l-22 -66h-51l17 76q-29 10 -29 38v25q0 16 12 26t32 10z" />
    <glyph glyph-name="Lcaron" unicode="&#x13d;" horiz-adv-x="450" 
d="M160 655v-580h260v-75h-345v655h85zM271 666q49 0 49 -36v-26q0 -21 -8 -47l-22 -66h-51l17 76q-29 10 -29 38v25q0 16 12 26t32 10z" />
    <glyph glyph-name="lcaron" unicode="&#x13e;" horiz-adv-x="398" 
d="M156 511v-439h212v-72h-293v511h81zM273 522q49 0 49 -36v-26q0 -21 -8 -47l-22 -66h-51l17 76q-29 10 -29 38v25q0 16 12 26t32 10z" />
    <glyph glyph-name="Ldot" unicode="&#x13f;" horiz-adv-x="450" 
d="M160 655v-580h260v-75h-345v655h85zM328 419q56 0 56 -46v-29q0 -45 -56 -45q-55 0 -55 45v29q0 46 55 46z" />
    <glyph glyph-name="ldot" unicode="&#x140;" horiz-adv-x="398" 
d="M156 511v-439h212v-72h-293v511h81zM304 348q56 0 56 -46v-29q0 -45 -56 -45q-55 0 -55 45v29q0 46 55 46z" />
    <glyph glyph-name="Lslash" unicode="&#x141;" horiz-adv-x="455" 
d="M165 655v-268l130 37v-76l-130 -37v-236h260v-75h-345v287l-70 -19v76l70 19v292h85z" />
    <glyph glyph-name="lslash" unicode="&#x142;" horiz-adv-x="403" 
d="M161 511v-201l99 26v-69l-99 -26v-169h212v-72h-293v219l-62 -16v69l62 16v223h81z" />
    <glyph glyph-name="Nacute" unicode="&#x143;" horiz-adv-x="582" 
d="M375 0l-216 553v-553h-84v655h136l212 -553v553h84v-655h-132zM410 829l-85 -119h-74l66 119h93z" />
    <glyph glyph-name="nacute" unicode="&#x144;" horiz-adv-x="513" 
d="M438 511v-511h-112l-173 409v-409h-78v511h117l168 -401v401h78zM376 683l-84 -119h-67l65 119h86z" />
    <glyph glyph-name="Ncommaaccent" unicode="&#x145;" horiz-adv-x="582" 
d="M375 0l-216 553v-553h-84v655h136l212 -553v553h84v-655h-132zM301 -56q49 0 49 -36v-26q0 -21 -8 -47l-22 -66h-51l17 76q-29 10 -29 38v25q0 16 12 26t32 10z" />
    <glyph glyph-name="ncommaaccent" unicode="&#x146;" horiz-adv-x="513" 
d="M438 511v-511h-112l-173 409v-409h-78v511h117l168 -401v401h78zM258 -56q49 0 49 -36v-26q0 -21 -8 -47l-22 -66h-51l17 76q-29 10 -29 38v25q0 16 12 26t32 10z" />
    <glyph glyph-name="Ncaron" unicode="&#x147;" horiz-adv-x="582" 
d="M375 0l-216 553v-553h-84v655h136l212 -553v553h84v-655h-132zM436 841v-68l-140 -61l-140 61v68l140 -49z" />
    <glyph glyph-name="ncaron" unicode="&#x148;" horiz-adv-x="513" 
d="M438 511v-511h-112l-173 409v-409h-78v511h117l168 -401v401h78zM382 688v-64l-121 -54l-121 54v64l121 -45z" />
    <glyph glyph-name="napostrophe" unicode="&#x149;" horiz-adv-x="513" 
d="M438 511v-511h-112l-173 409v-409h-78v511h117l168 -401v401h78z" />
    <glyph glyph-name="Eng" unicode="&#x14a;" horiz-adv-x="582" 
d="M507 655v-653q0 -82 -36.5 -120t-116.5 -38q-43 0 -64 7v71q28 -5 68 -5q67 0 67 64v19h-50l-216 553v-553h-84v655h136l212 -557v557h84z" />
    <glyph glyph-name="eng" unicode="&#x14b;" horiz-adv-x="513" 
d="M438 511v-512q0 -67 -31 -98.5t-100 -31.5q-40 0 -58 6v68q22 -4 55 -4q28 0 40.5 13t12.5 42v6h-31l-173 409v-409h-78v511h117l168 -402v402h78z" />
    <glyph glyph-name="Omacron" unicode="&#x14c;" horiz-adv-x="576" 
d="M288 667q218 0 218 -215v-249q0 -215 -218 -215t-218 215v249q0 215 218 215zM288 592q-133 0 -133 -130v-268q0 -131 133 -131t133 131v267q0 131 -133 131zM405 790v-75h-235v75h235z" />
    <glyph glyph-name="omacron" unicode="&#x14d;" horiz-adv-x="506" 
d="M253 523q183 0 183 -174v-188q0 -173 -183 -173t-183 173v188q0 174 183 174zM253 452q-102 0 -102 -93v-200q0 -100 102 -100t102 93v199q0 101 -102 101zM354 640v-70h-202v70h202z" />
    <glyph glyph-name="Obreve" unicode="&#x14e;" horiz-adv-x="576" 
d="M288 667q218 0 218 -215v-249q0 -215 -218 -215t-218 215v249q0 215 218 215zM288 592q-133 0 -133 -130v-268q0 -131 133 -131t133 131v267q0 131 -133 131zM428 830v-78q-67 -47 -140 -47q-34 0 -69 11.5t-53 23.5l-18 12v78q8 -6 21.5 -15t50.5 -23.5t68 -14.5
t66 13.5t54 26.5z" />
    <glyph glyph-name="obreve" unicode="&#x14f;" horiz-adv-x="506" 
d="M253 523q183 0 183 -174v-188q0 -173 -183 -173t-183 173v188q0 174 183 174zM253 452q-102 0 -102 -93v-200q0 -100 102 -100t102 93v199q0 101 -102 101zM372 679v-75q-52 -44 -119 -44q-30 0 -60 11t-45 22l-14 11v75q7 -6 18.5 -14.5t42.5 -22.5t58 -14t56.5 13
t46.5 25z" />
    <glyph glyph-name="Ohungarumlaut" unicode="&#x150;" horiz-adv-x="576" 
d="M288 667q218 0 218 -215v-249q0 -215 -218 -215t-218 215v249q0 215 218 215zM288 592q-133 0 -133 -130v-268q0 -131 133 -131t133 131v267q0 131 -133 131zM297 829l-65 -119h-72l51 119h86zM439 829l-65 -119h-72l51 119h86z" />
    <glyph glyph-name="ohungarumlaut" unicode="&#x151;" horiz-adv-x="506" 
d="M253 523q183 0 183 -174v-188q0 -173 -183 -173t-183 173v188q0 174 183 174zM253 452q-102 0 -102 -93v-200q0 -100 102 -100t102 93v199q0 101 -102 101zM286 683l-67 -119h-67l53 119h81zM413 683l-67 -119h-67l53 119h81z" />
    <glyph glyph-name="OE" unicode="&#x152;" horiz-adv-x="756" 
d="M274 667q54 0 96 -12h321v-77h-245v-207h225v-76h-225v-218h245v-77h-321q-40 -12 -92 -12q-104 0 -156 55.5t-52 159.5v249q0 104 52.5 159.5t151.5 55.5zM283 592q-62 0 -95 -33.5t-33 -96.5v-268q0 -63 32.5 -97t95.5 -34q51 0 78 8v508q-30 13 -78 13z" />
    <glyph glyph-name="oe" unicode="&#x153;" horiz-adv-x="678" 
d="M253 523q33 0 86 -12h274v-73h-212v-142h195v-72h-195v-151h212v-73h-264q-45 -12 -96 -12q-183 0 -183 173v188q0 174 183 174zM253 452q-102 0 -102 -93v-200q0 -100 102 -100q33 0 67 6v376q-33 11 -67 11z" />
    <glyph glyph-name="Racute" unicode="&#x154;" horiz-adv-x="540" 
d="M249 667q230 0 230 -175v-25q0 -58 -32 -102.5t-92 -62.5l170 -302h-95l-159 284q-38 -3 -111 2v-286h-85v662q140 5 174 5zM247 595q-45 0 -87 -3v-235q54 -5 90 -5q144 0 144 117v20q0 54 -35 80t-112 26zM372 829l-85 -119h-74l66 119h93z" />
    <glyph glyph-name="racute" unicode="&#x155;" horiz-adv-x="470" 
d="M222 523q97 0 144.5 -37.5t47.5 -101.5v-22q0 -42 -25.5 -78t-71.5 -54l138 -230h-91l-128 213q-54 0 -80 2v-215h-81v518q117 5 147 5zM221 455q-5 0 -65 -3v-169q23 -2 66 -2q111 0 111 84v12q0 41 -26 59.5t-86 18.5zM336 683l-84 -119h-67l65 119h86z" />
    <glyph glyph-name="Rcommaaccent" unicode="&#x156;" horiz-adv-x="540" 
d="M249 667q230 0 230 -175v-25q0 -58 -32 -102.5t-92 -62.5l170 -302h-95l-159 284q-38 -3 -111 2v-286h-85v662q140 5 174 5zM247 595q-45 0 -87 -3v-235q54 -5 90 -5q144 0 144 117v20q0 54 -35 80t-112 26zM281 -56q49 0 49 -36v-26q0 -21 -8 -47l-22 -66h-51l17 76
q-29 10 -29 38v25q0 16 12 26t32 10z" />
    <glyph glyph-name="rcommaaccent" unicode="&#x157;" horiz-adv-x="470" 
d="M222 523q97 0 144.5 -37.5t47.5 -101.5v-22q0 -42 -25.5 -78t-71.5 -54l138 -230h-91l-128 213q-54 0 -80 2v-215h-81v518q117 5 147 5zM221 455q-5 0 -65 -3v-169q23 -2 66 -2q111 0 111 84v12q0 41 -26 59.5t-86 18.5zM261 -56q49 0 49 -36v-26q0 -21 -8 -47l-22 -66
h-51l17 76q-29 10 -29 38v25q0 16 12 26t32 10z" />
    <glyph glyph-name="Rcaron" unicode="&#x158;" horiz-adv-x="540" 
d="M249 667q230 0 230 -175v-25q0 -58 -32 -102.5t-92 -62.5l170 -302h-95l-159 284q-38 -3 -111 2v-286h-85v662q140 5 174 5zM247 595q-45 0 -87 -3v-235q54 -5 90 -5q144 0 144 117v20q0 54 -35 80t-112 26zM398 841v-68l-140 -61l-140 61v68l140 -49z" />
    <glyph glyph-name="rcaron" unicode="&#x159;" horiz-adv-x="470" 
d="M222 523q97 0 144.5 -37.5t47.5 -101.5v-22q0 -42 -25.5 -78t-71.5 -54l138 -230h-91l-128 213q-54 0 -80 2v-215h-81v518q117 5 147 5zM221 455q-5 0 -65 -3v-169q23 -2 66 -2q111 0 111 84v12q0 41 -26 59.5t-86 18.5zM342 688v-64l-121 -54l-121 54v64l121 -45z" />
    <glyph glyph-name="Sacute" unicode="&#x15a;" horiz-adv-x="461" 
d="M239 667q54 0 141 -16l-2 -75q-82 16 -139 16q-58 0 -83.5 -23t-25.5 -70v-26q0 -36 15.5 -53t65.5 -33l93 -31q67 -23 94.5 -61t27.5 -111v-19q0 -89 -51.5 -133t-168.5 -44q-57 0 -146 20l2 77q83 -20 142 -20q75 0 106 22.5t31 70.5v33q0 35 -15.5 53.5t-54.5 31.5
l-103 34q-69 23 -96 59.5t-27 110.5v11q0 87 46.5 131.5t147.5 44.5zM345 829l-85 -119h-74l66 119h93z" />
    <glyph glyph-name="sacute" unicode="&#x15b;" horiz-adv-x="402" 
d="M210 523q51 0 119 -13l-1 -72q-80 14 -118 14q-84 0 -84 -64v-21q0 -25 12 -37t50 -23l75 -23q57 -17 80.5 -48.5t23.5 -88.5v-18q0 -70 -43 -105.5t-142 -35.5q-42 0 -124 17l2 73q75 -17 120 -17q57 0 81.5 15.5t24.5 48.5v26q0 24 -11.5 37t-41.5 22l-84 26
q-58 18 -81 48t-23 87v12q0 140 165 140zM308 683l-84 -119h-67l65 119h86z" />
    <glyph glyph-name="Scircumflex" unicode="&#x15c;" horiz-adv-x="461" 
d="M239 667q54 0 141 -16l-2 -75q-82 16 -139 16q-58 0 -83.5 -23t-25.5 -70v-26q0 -36 15.5 -53t65.5 -33l93 -31q67 -23 94.5 -61t27.5 -111v-19q0 -89 -51.5 -133t-168.5 -44q-57 0 -146 20l2 77q83 -20 142 -20q75 0 106 22.5t31 70.5v33q0 35 -15.5 53.5t-54.5 31.5
l-103 34q-69 23 -96 59.5t-27 110.5v11q0 87 46.5 131.5t147.5 44.5zM231 840l140 -61v-68l-140 49l-140 -49v68z" />
    <glyph glyph-name="scircumflex" unicode="&#x15d;" horiz-adv-x="402" 
d="M210 523q51 0 119 -13l-1 -72q-80 14 -118 14q-84 0 -84 -64v-21q0 -25 12 -37t50 -23l75 -23q57 -17 80.5 -48.5t23.5 -88.5v-18q0 -70 -43 -105.5t-142 -35.5q-42 0 -124 17l2 73q75 -17 120 -17q57 0 81.5 15.5t24.5 48.5v26q0 24 -11.5 37t-41.5 22l-84 26
q-58 18 -81 48t-23 87v12q0 140 165 140zM193 688l121 -54v-64l-121 45l-121 -45v64z" />
    <glyph glyph-name="Scedilla" unicode="&#x15e;" horiz-adv-x="461" 
d="M239 667q54 0 141 -16l-2 -75q-82 16 -139 16q-58 0 -83.5 -23t-25.5 -70v-26q0 -36 15.5 -53t65.5 -33l93 -31q67 -23 94.5 -61t27.5 -111v-19q0 -77 -38 -120t-123 -53l-10 -33h10q22 0 37 -18t15 -46v-15q0 -77 -95 -77q-19 0 -49 5v53q28 -4 36 -4q41 0 41 24v13
q-1 26 -34 26h-30v21l14 47q-56 2 -140 20l2 77q83 -20 142 -20q75 0 106 22.5t31 70.5v33q0 35 -15.5 53.5t-54.5 31.5l-103 34q-69 23 -96 59.5t-27 110.5v11q0 87 46.5 131.5t147.5 44.5z" />
    <glyph glyph-name="scedilla" unicode="&#x15f;" horiz-adv-x="402" 
d="M210 523q51 0 119 -13l-1 -72q-80 14 -118 14q-84 0 -84 -64v-21q0 -25 12 -37t50 -23l75 -23q57 -17 80.5 -48.5t23.5 -88.5v-18q0 -123 -136 -138l-9 -32h10q22 0 37 -18t15 -46v-15q0 -77 -95 -77q-19 0 -49 5v53q28 -4 36 -4q41 0 41 24v13q-1 26 -34 26h-30v21
l14 48q-45 3 -109 16l2 73q75 -17 120 -17q57 0 81.5 15.5t24.5 48.5v26q0 24 -11.5 37t-41.5 22l-84 26q-58 18 -81 48t-23 87v12q0 140 165 140z" />
    <glyph glyph-name="Scaron" unicode="&#x160;" horiz-adv-x="461" 
d="M239 667q54 0 141 -16l-2 -75q-82 16 -139 16q-58 0 -83.5 -23t-25.5 -70v-26q0 -36 15.5 -53t65.5 -33l93 -31q67 -23 94.5 -61t27.5 -111v-19q0 -89 -51.5 -133t-168.5 -44q-57 0 -146 20l2 77q83 -20 142 -20q75 0 106 22.5t31 70.5v33q0 35 -15.5 53.5t-54.5 31.5
l-103 34q-69 23 -96 59.5t-27 110.5v11q0 87 46.5 131.5t147.5 44.5zM371 841v-68l-140 -61l-140 61v68l140 -49z" />
    <glyph glyph-name="scaron" unicode="&#x161;" horiz-adv-x="402" 
d="M210 523q51 0 119 -13l-1 -72q-80 14 -118 14q-84 0 -84 -64v-21q0 -25 12 -37t50 -23l75 -23q57 -17 80.5 -48.5t23.5 -88.5v-18q0 -70 -43 -105.5t-142 -35.5q-42 0 -124 17l2 73q75 -17 120 -17q57 0 81.5 15.5t24.5 48.5v26q0 24 -11.5 37t-41.5 22l-84 26
q-58 18 -81 48t-23 87v12q0 140 165 140zM314 688v-64l-121 -54l-121 54v64l121 -45z" />
    <glyph glyph-name="Tcedilla" unicode="&#x162;" horiz-adv-x="525" 
d="M495 655v-77h-190v-578h-26l-12 -41h10q22 0 37 -18t15 -46v-15q0 -77 -95 -77q-19 0 -49 5v53q28 -4 36 -4q41 0 41 24v13q-1 26 -34 26h-30v21l22 71v566h-190v77h465z" />
    <glyph glyph-name="tcedilla" unicode="&#x163;" horiz-adv-x="450" 
d="M420 511v-73h-154v-438h-25l-12 -41h10q22 0 37 -18t15 -46v-15q0 -77 -95 -77q-19 0 -49 5v53q28 -4 36 -4q41 0 41 24v13q-1 26 -34 26h-30v21l25 80v417h-155v73h390z" />
    <glyph glyph-name="Tcaron" unicode="&#x164;" horiz-adv-x="525" 
d="M495 655v-77h-190v-578h-85v578h-190v77h465zM403 841v-68l-140 -61l-140 61v68l140 -49z" />
    <glyph glyph-name="tcaron" unicode="&#x165;" horiz-adv-x="450" 
d="M420 511v-73h-154v-438h-81v438h-155v73h390zM346 688v-64l-121 -54l-121 54v64l121 -45z" />
    <glyph glyph-name="Tbar" unicode="&#x166;" horiz-adv-x="525" 
d="M495 655v-77h-190v-207h100v-76h-100v-295h-85v295h-100v76h100v207h-190v77h465z" />
    <glyph glyph-name="tbar" unicode="&#x167;" horiz-adv-x="450" 
d="M420 511v-73h-154v-142h81v-69h-81v-227h-81v227h-82v69h82v142h-155v73h390z" />
    <glyph glyph-name="Utilde" unicode="&#x168;" horiz-adv-x="576" 
d="M501 655v-448q0 -106 -54 -162.5t-159 -56.5q-104 0 -158.5 55t-54.5 162v450h85v-461q0 -64 33 -97.5t95 -33.5t95 33.5t33 97.5v461h85zM428 810v-70q-34 -30 -80 -30q-22 0 -62 12.5t-60 12.5q-15 0 -34.5 -6.5t-31.5 -12.5l-12 -6v70q34 30 80 30q29 0 67 -12.5
t55 -12.5q15 0 34.5 6.5t31.5 12.5z" />
    <glyph glyph-name="utilde" unicode="&#x169;" horiz-adv-x="508" 
d="M433 511v-353q0 -170 -179 -170t-179 170v353h81v-358q0 -45 25 -69t73 -24t73 24t25 69v358h81zM373 663v-68q-28 -23 -69 -23q-19 0 -52 9.5t-50 9.5q-12 0 -29 -5.5t-27 -10.5l-11 -5v68q28 23 69 23q24 0 56 -9.5t46 -9.5q13 0 29.5 5t26.5 11z" />
    <glyph glyph-name="Umacron" unicode="&#x16a;" horiz-adv-x="576" 
d="M501 655v-448q0 -106 -54 -162.5t-159 -56.5q-104 0 -158.5 55t-54.5 162v450h85v-461q0 -64 33 -97.5t95 -33.5t95 33.5t33 97.5v461h85zM405 790v-75h-235v75h235z" />
    <glyph glyph-name="umacron" unicode="&#x16b;" horiz-adv-x="508" 
d="M433 511v-353q0 -170 -179 -170t-179 170v353h81v-358q0 -45 25 -69t73 -24t73 24t25 69v358h81zM355 640v-70h-202v70h202z" />
    <glyph glyph-name="Ubreve" unicode="&#x16c;" horiz-adv-x="576" 
d="M501 655v-448q0 -106 -54 -162.5t-159 -56.5q-104 0 -158.5 55t-54.5 162v450h85v-461q0 -64 33 -97.5t95 -33.5t95 33.5t33 97.5v461h85zM428 830v-78q-67 -47 -140 -47q-34 0 -69 11.5t-53 23.5l-18 12v78q8 -6 21.5 -15t50.5 -23.5t68 -14.5t66 13.5t54 26.5z" />
    <glyph glyph-name="ubreve" unicode="&#x16d;" horiz-adv-x="508" 
d="M433 511v-353q0 -170 -179 -170t-179 170v353h81v-358q0 -45 25 -69t73 -24t73 24t25 69v358h81zM373 679v-75q-52 -44 -119 -44q-30 0 -60 11t-44 22l-15 11v75q7 -6 18.5 -14.5t42.5 -22.5t58 -14t56.5 13t45.5 25z" />
    <glyph glyph-name="Uring" unicode="&#x16e;" horiz-adv-x="576" 
d="M501 655v-448q0 -106 -54 -162.5t-159 -56.5q-104 0 -158.5 55t-54.5 162v450h85v-461q0 -64 33 -97.5t95 -33.5t95 33.5t33 97.5v461h85zM288 865q53 0 84 -25t31 -75t-30.5 -75t-84.5 -25q-53 0 -84 25t-31 75t30.5 75t84.5 25zM288 810q-50 0 -50 -45t50 -45t50 45
t-50 45z" />
    <glyph glyph-name="uring" unicode="&#x16f;" horiz-adv-x="508" 
d="M433 511v-353q0 -170 -179 -170t-179 170v353h81v-358q0 -45 25 -69t73 -24t73 24t25 69v358h81zM254 694q46 0 72 -20.5t26 -61.5q0 -82 -98 -82q-46 0 -72.5 20.5t-26.5 61.5t26.5 61.5t72.5 20.5zM254 645q-38 0 -38 -32q0 -33 38 -33t38 33q0 32 -38 32z" />
    <glyph glyph-name="Uhungarumlaut" unicode="&#x170;" horiz-adv-x="576" 
d="M501 655v-448q0 -106 -54 -162.5t-159 -56.5q-104 0 -158.5 55t-54.5 162v450h85v-461q0 -64 33 -97.5t95 -33.5t95 33.5t33 97.5v461h85zM297 829l-65 -119h-72l51 119h86zM439 829l-65 -119h-72l51 119h86z" />
    <glyph glyph-name="uhungarumlaut" unicode="&#x171;" horiz-adv-x="508" 
d="M433 511v-353q0 -170 -179 -170t-179 170v353h81v-358q0 -45 25 -69t73 -24t73 24t25 69v358h81zM287 683l-67 -119h-67l53 119h81zM414 683l-67 -119h-67l53 119h81z" />
    <glyph glyph-name="Uogonek" unicode="&#x172;" horiz-adv-x="576" 
d="M501 655v-448q0 -75 -27.5 -126.5t-79.5 -71.5q-32 -12 -51.5 -39.5t-19.5 -56.5v-10q0 -37 42 -37q15 0 33 3v-61q-21 -5 -48 -5q-49 0 -74 22t-25 59v13q0 51 43 91q-219 0 -219 217v450h85v-461q0 -64 33 -97.5t95 -33.5t95 33.5t33 97.5v461h85z" />
    <glyph glyph-name="uogonek" unicode="&#x173;" horiz-adv-x="508" 
d="M433 511v-353q0 -114 -81 -150q-71 -32 -71 -95v-10q0 -37 42 -37q15 0 33 3v-61q-21 -5 -48 -5q-49 0 -74 22t-25 59v13q0 51 43 91q-177 2 -177 170v353h81v-358q0 -45 25 -69t73 -24t73 24t25 69v358h81z" />
    <glyph glyph-name="Wcircumflex" unicode="&#x174;" horiz-adv-x="848" 
d="M823 655l-151 -655h-114l-134 558l-133 -558h-114l-152 655h90l122 -562l129 562h116l130 -562l121 562h90zM424 840l140 -61v-68l-140 49l-140 -49v68z" />
    <glyph glyph-name="wcircumflex" unicode="&#x175;" horiz-adv-x="714" 
d="M689 511l-121 -511h-105l-106 426l-105 -426h-105l-122 511h86l91 -427l103 427h104l103 -426l91 426h86zM357 688l121 -54v-64l-121 45l-121 -45v64z" />
    <glyph glyph-name="Ycircumflex" unicode="&#x176;" horiz-adv-x="491" 
d="M478 655l-190 -430v-225h-85v225l-190 430h97l136 -340l137 340h95zM246 840l140 -61v-68l-140 49l-140 -49v68z" />
    <glyph glyph-name="ycircumflex" unicode="&#x177;" horiz-adv-x="426" 
d="M413 511l-159 -337v-174h-82v174l-159 337h92l109 -260l109 260h90zM213 688l121 -54v-64l-121 45l-121 -45v64z" />
    <glyph glyph-name="Ydieresis" unicode="&#x178;" horiz-adv-x="491" 
d="M478 655l-190 -430v-225h-85v225l-190 430h97l136 -340l137 340h95zM162 824q52 0 52 -43v-29q0 -42 -52 -42q-24 0 -38 11.5t-14 30.5v29q0 43 52 43zM329 824q53 0 53 -43v-29q0 -42 -53 -42q-23 0 -37.5 11.5t-14.5 30.5v29q0 21 14 32t38 11z" />
    <glyph glyph-name="Zacute" unicode="&#x179;" horiz-adv-x="480" 
d="M435 655v-67l-296 -511h296v-77h-395v67l296 511h-290v77h389zM353 829l-85 -119h-74l66 119h93z" />
    <glyph glyph-name="zacute" unicode="&#x17a;" horiz-adv-x="418" 
d="M373 511v-62l-237 -376h237v-73h-333v62l238 376h-233v73h328zM318 683l-84 -119h-67l65 119h86z" />
    <glyph glyph-name="Zdotaccent" unicode="&#x17b;" horiz-adv-x="480" 
d="M435 655v-67l-296 -511h296v-77h-395v67l296 511h-290v77h389zM238 830q56 0 56 -46v-29q0 -45 -56 -45q-55 0 -55 45v29q0 46 55 46z" />
    <glyph glyph-name="zdotaccent" unicode="&#x17c;" horiz-adv-x="418" 
d="M373 511v-62l-237 -376h237v-73h-333v62l238 376h-233v73h328zM202 695q56 0 56 -46v-29q0 -45 -56 -45q-55 0 -55 45v29q0 46 55 46z" />
    <glyph glyph-name="Zcaron" unicode="&#x17d;" horiz-adv-x="480" 
d="M435 655v-67l-296 -511h296v-77h-395v67l296 511h-290v77h389zM379 841v-68l-140 -61l-140 61v68l140 -49z" />
    <glyph glyph-name="zcaron" unicode="&#x17e;" horiz-adv-x="418" 
d="M373 511v-62l-237 -376h237v-73h-333v62l238 376h-233v73h328zM324 688v-64l-121 -54l-121 54v64l121 -45z" />
    <glyph glyph-name="longs" unicode="&#x17f;" horiz-adv-x="402" 
d="M210 523q51 0 119 -13l-1 -72q-80 14 -118 14q-84 0 -84 -64v-21q0 -25 12 -37t50 -23l75 -23q57 -17 80.5 -48.5t23.5 -88.5v-18q0 -70 -43 -105.5t-142 -35.5q-42 0 -124 17l2 73q75 -17 120 -17q57 0 81.5 15.5t24.5 48.5v26q0 24 -11.5 37t-41.5 22l-84 26
q-58 18 -81 48t-23 87v12q0 140 165 140z" />
    <glyph glyph-name="florin" unicode="&#x192;" horiz-adv-x="313" 
d="M240 613q33 0 63 -7v-68q-30 5 -62 5q-66 0 -66 -81v-56h100v-70h-100v-521h-85v521h-70v70h70v51q1 156 150 156z" />
    <glyph glyph-name="AEacute" unicode="&#x1fc;" horiz-adv-x="772" 
d="M707 655v-77h-260v-207h240v-76h-240v-218h260v-77h-345v152h-194l-66 -152h-89l293 655h401zM362 597l-161 -369h161v369zM647 829l-85 -119h-74l66 119h93z" />
    <glyph glyph-name="aeacute" unicode="&#x1fd;" horiz-adv-x="653" 
d="M588 511v-73h-212v-142h195v-72h-195v-151h212v-73h-293v113h-147l-48 -113h-87l224 511h351zM295 461l-118 -279h118v279zM531 683l-84 -119h-67l65 119h86z" />
    <glyph glyph-name="Oslashacute" unicode="&#x1fe;" horiz-adv-x="576" 
d="M541 705l-67 -120q32 -51 32 -133v-249q0 -215 -218 -215q-78 0 -129 28l-39 -66h-85l68 118q-33 50 -33 135v249q0 215 218 215q80 0 130 -29l38 67h85zM288 592q-133 0 -133 -130v-268q0 -21 3 -39l225 407q-33 30 -95 30zM418 497l-224 -406q32 -28 94 -28
q133 0 133 131v267q0 19 -3 36zM399 829l-85 -119h-74l66 119h93z" />
    <glyph glyph-name="oslashacute" unicode="&#x1ff;" horiz-adv-x="506" 
d="M468 550l-58 -96q26 -41 26 -105v-188q0 -173 -183 -173q-60 0 -104 21l-29 -48h-82l58 96q-26 39 -26 104v188q0 174 183 174q62 0 104 -21l29 48h82zM253 452q-102 0 -102 -93v-200q0 -14 1 -21l172 293q-26 21 -71 21zM354 368l-171 -290q23 -19 70 -19q102 0 102 93
v199q0 3 -0.5 9t-0.5 8zM368 683l-84 -119h-67l65 119h86z" />
    <glyph glyph-name="Scommaaccent" unicode="&#x218;" horiz-adv-x="461" 
d="M239 667q54 0 141 -16l-2 -75q-82 16 -139 16q-58 0 -83.5 -23t-25.5 -70v-26q0 -36 15.5 -53t65.5 -33l93 -31q67 -23 94.5 -61t27.5 -111v-19q0 -89 -51.5 -133t-168.5 -44q-57 0 -146 20l2 77q83 -20 142 -20q75 0 106 22.5t31 70.5v33q0 35 -15.5 53.5t-54.5 31.5
l-103 34q-69 23 -96 59.5t-27 110.5v11q0 87 46.5 131.5t147.5 44.5zM232 -56q49 0 49 -36v-26q0 -21 -8 -47l-22 -66h-51l17 76q-29 10 -29 38v25q0 16 12 26t32 10z" />
    <glyph glyph-name="scommaaccent" unicode="&#x219;" horiz-adv-x="402" 
d="M210 523q51 0 119 -13l-1 -72q-80 14 -118 14q-84 0 -84 -64v-21q0 -25 12 -37t50 -23l75 -23q57 -17 80.5 -48.5t23.5 -88.5v-18q0 -70 -43 -105.5t-142 -35.5q-42 0 -124 17l2 73q75 -17 120 -17q57 0 81.5 15.5t24.5 48.5v26q0 24 -11.5 37t-41.5 22l-84 26
q-58 18 -81 48t-23 87v12q0 140 165 140zM211 -56q49 0 49 -36v-26q0 -21 -8 -47l-22 -66h-51l17 76q-29 10 -29 38v25q0 16 12 26t32 10z" />
    <glyph glyph-name="uni021A" unicode="&#x21a;" horiz-adv-x="525" 
d="M495 655v-77h-190v-578h-85v578h-190v77h465zM260 -56q49 0 49 -36v-26q0 -21 -8 -47l-22 -66h-51l17 76q-29 10 -29 38v25q0 16 12 26t32 10z" />
    <glyph glyph-name="uni021B" unicode="&#x21b;" horiz-adv-x="450" 
d="M420 511v-73h-154v-438h-81v438h-155v73h390zM222 -56q49 0 49 -36v-26q0 -21 -8 -47l-22 -66h-51l17 76q-29 10 -29 38v25q0 16 12 26t32 10z" />
    <glyph glyph-name="dotlessj" unicode="&#x237;" horiz-adv-x="259" 
d="M184 511v-393q0 -67 -31 -98.5t-100 -31.5q-40 0 -58 6v68q22 -4 55 -4q28 0 40.5 13t12.5 42v398h81z" />
    <glyph glyph-name="uni02BC" unicode="&#x2bc;" horiz-adv-x="183" 
d="M104 695q49 0 49 -36v-26q0 -21 -8 -47l-22 -66h-51l17 76q-29 10 -29 38v25q0 16 12 26t32 10z" />
    <glyph glyph-name="circumflex" unicode="&#x2c6;" horiz-adv-x="302" 
d="M151 688l121 -54v-64l-121 45l-121 -45v64z" />
    <glyph glyph-name="caron" unicode="&#x2c7;" horiz-adv-x="302" 
d="M272 688v-64l-121 -54l-121 54v64l121 -45z" />
    <glyph glyph-name="uni02C9" unicode="&#x2c9;" horiz-adv-x="275" 
d="M245 681v-75h-215v75h215z" />
    <glyph glyph-name="breve" unicode="&#x2d8;" horiz-adv-x="298" 
d="M268 679v-75q-52 -44 -119 -44q-30 0 -60 11t-45 22l-14 11v75q7 -6 18.5 -14.5t42.5 -22.5t58 -14t56.5 13t46.5 25z" />
    <glyph glyph-name="dotaccent" unicode="&#x2d9;" horiz-adv-x="171" 
d="M85 695q56 0 56 -46v-29q0 -45 -56 -45q-55 0 -55 45v29q0 46 55 46z" />
    <glyph glyph-name="ring" unicode="&#x2da;" horiz-adv-x="257" 
d="M129 694q46 0 72 -20.5t26 -61.5q0 -82 -98 -82q-46 0 -72.5 20.5t-26.5 61.5t26.5 61.5t72.5 20.5zM129 645q-38 0 -38 -32q0 -33 38 -33t38 33q0 32 -38 32z" />
    <glyph glyph-name="ogonek" unicode="&#x2db;" horiz-adv-x="207" 
d="M139 22l35 -15q-34 -12 -53 -38.5t-19 -55.5v-10q0 -37 42 -37q15 0 33 3v-61q-21 -5 -48 -5q-49 0 -74 22t-25 59v13q0 41 31 78.5t78 46.5z" />
    <glyph glyph-name="tilde" unicode="&#x2dc;" horiz-adv-x="298" 
d="M268 663v-68q-28 -23 -69 -23q-19 0 -52 9.5t-50 9.5q-12 0 -29 -5.5t-28 -10.5l-10 -5v68q28 23 69 23q23 0 55 -9.5t47 -9.5q13 0 29.5 5t27.5 11z" />
    <glyph glyph-name="hungarumlaut" unicode="&#x2dd;" horiz-adv-x="321" 
d="M164 683l-67 -119h-67l53 119h81zM291 683l-67 -119h-67l53 119h81z" />
    <glyph glyph-name="uni0312" unicode="&#x312;" horiz-adv-x="0" 
d="M111 734l-17 -76q29 -10 29 -38v-25q0 -16 -12 -26t-32 -10q-49 0 -49 36v26q0 21 8 47l22 66h51z" />
    <glyph glyph-name="uni0313" unicode="&#x313;" horiz-adv-x="0" 
d="M74 695q49 0 49 -36v-26q0 -21 -8 -47l-22 -66h-51l17 76q-29 10 -29 38v25q0 16 12 26t32 10z" />
    <glyph glyph-name="uni0326" unicode="&#x326;" horiz-adv-x="153" 
d="M74 -56q49 0 49 -36v-26q0 -21 -8 -47l-22 -66h-51l17 76q-29 10 -29 38v25q0 16 12 26t32 10z" />
    <glyph glyph-name="uni037E" unicode="&#x37e;" horiz-adv-x="221" 
d="M110 478q57 0 57 -47v-29q0 -46 -57 -46q-56 0 -56 46v29q0 47 56 47zM110 110q55 0 55 -45v-32q0 -29 -7 -51l-43 -143h-60l36 153q-35 8 -35 43v30q0 45 54 45z" />
    <glyph glyph-name="tonos" unicode="&#x384;" horiz-adv-x="171" 
d="M141 683l-45 -139h-66l26 139h85z" />
    <glyph glyph-name="dieresistonos" unicode="&#x385;" horiz-adv-x="317" 
d="M188 718h-66l24 129h85zM78 688q21 0 35 -12t14 -32v-23q0 -19 -14 -31t-35 -12q-20 0 -34 12t-14 31v23q0 20 14 32t34 12zM238 688q21 0 35 -12t14 -32v-23q0 -19 -14 -31t-35 -12q-20 0 -34 12t-14 31v23q0 20 14 32t34 12z" />
    <glyph glyph-name="Alphatonos" unicode="&#x386;" horiz-adv-x="532" 
d="M318 655l201 -655h-92l-43 152h-241l-43 -152h-87l200 655h105zM264 577l-100 -349h199zM160 655l-45 -139h-66l26 139h85z" />
    <glyph glyph-name="anoteleia" unicode="&#x387;" horiz-adv-x="221" 
d="M110 311q57 0 57 -47v-29q0 -46 -57 -46q-56 0 -56 46v29q0 47 56 47z" />
    <glyph glyph-name="Epsilontonos" unicode="&#x388;" horiz-adv-x="485" 
d="M420 655v-77h-260v-207h240v-76h-240v-218h260v-77h-345v655h345zM35 655l-45 -139h-66l26 139h85z" />
    <glyph glyph-name="Etatonos" unicode="&#x389;" horiz-adv-x="580" 
d="M505 655v-655h-85v300h-260v-300h-85v655h85v-279h260v279h85zM35 655l-45 -139h-66l26 139h85z" />
    <glyph glyph-name="Iotatonos" unicode="&#x38a;" horiz-adv-x="235" 
d="M160 655v-655h-85v655h85zM35 655l-45 -139h-66l26 139h85z" />
    <glyph glyph-name="Omicrontonos" unicode="&#x38c;" horiz-adv-x="576" 
d="M288 667q218 0 218 -215v-249q0 -215 -218 -215t-218 215v249q0 215 218 215zM288 592q-133 0 -133 -130v-268q0 -131 133 -131t133 131v267q0 131 -133 131zM70 655l-45 -139h-66l26 139h85z" />
    <glyph glyph-name="Upsilontonos" unicode="&#x38e;" horiz-adv-x="612" 
d="M599 655l-190 -430v-225h-85v225l-190 430h97l136 -340l137 340h95zM111 655l-45 -139h-66l26 139h85z" />
    <glyph glyph-name="Omegatonos" unicode="&#x38f;" horiz-adv-x="578" 
d="M289 667q110 0 164.5 -55t54.5 -157v-214q0 -61 -13 -96.5t-50 -64.5h73v-80h-200v77h9q44 0 70 38t26 99v251q0 63 -35 96t-99 33t-99 -33t-35 -96v-251q0 -61 26 -99t70 -38h9v-77h-200v80h73q-37 29 -50 64.5t-13 96.5v214q0 102 54.5 157t164.5 55zM70 655l-45 -139
h-66l26 139h85z" />
    <glyph glyph-name="iotadieresistonos" unicode="&#x390;" horiz-adv-x="231" 
d="M156 511v-511h-81v511h81zM145 718h-66l24 129h85zM35 688q21 0 35 -12t14 -32v-23q0 -19 -14 -31t-35 -12q-20 0 -34 12t-14 31v23q0 20 14 32t34 12zM195 688q21 0 35 -12t14 -32v-23q0 -19 -14 -31t-35 -12q-20 0 -34 12t-14 31v23q0 20 14 32t34 12z" />
    <glyph glyph-name="Alpha" unicode="&#x391;" horiz-adv-x="532" 
d="M318 655l201 -655h-92l-43 152h-241l-43 -152h-87l200 655h105zM264 577l-100 -349h199z" />
    <glyph glyph-name="Beta" unicode="&#x392;" horiz-adv-x="528" 
d="M251 667q105 0 160 -43t55 -117v-22q0 -105 -92 -145q56 -12 87.5 -51.5t31.5 -97.5v-22q0 -83 -58.5 -132t-176.5 -49q-67 0 -183 6v669q92 4 176 4zM238 594q-36 0 -78 -3v-224h98q60 0 91.5 29t31.5 81v17q0 100 -143 100zM264 298h-104v-230q65 -6 98 -6
q150 0 150 112v21q0 103 -144 103z" />
    <glyph glyph-name="Gamma" unicode="&#x393;" horiz-adv-x="445" 
d="M415 655v-77h-255v-578h-85v655h340z" />
    <glyph glyph-name="uni0394" unicode="&#x394;" horiz-adv-x="530" 
d="M315 655l191 -598v-57h-482v55l190 600h101zM265 577l-150 -501h294z" />
    <glyph glyph-name="Epsilon" unicode="&#x395;" horiz-adv-x="485" 
d="M420 655v-77h-260v-207h240v-76h-240v-218h260v-77h-345v655h345z" />
    <glyph glyph-name="Zeta" unicode="&#x396;" horiz-adv-x="480" 
d="M435 655v-67l-296 -511h296v-77h-395v67l296 511h-290v77h389z" />
    <glyph glyph-name="Eta" unicode="&#x397;" horiz-adv-x="580" 
d="M505 655v-655h-85v300h-260v-300h-85v655h85v-279h260v279h85z" />
    <glyph glyph-name="Theta" unicode="&#x398;" horiz-adv-x="576" 
d="M288 667q218 0 218 -215v-249q0 -215 -218 -215t-218 215v249q0 215 218 215zM288 592q-133 0 -133 -130v-268q0 -131 133 -131t133 131v267q0 131 -133 131zM371 373v-80h-166v80h166z" />
    <glyph glyph-name="Iota" unicode="&#x399;" horiz-adv-x="235" 
d="M160 655v-655h-85v655h85z" />
    <glyph glyph-name="Kappa" unicode="&#x39a;" horiz-adv-x="525" 
d="M499 655l-251 -317l277 -338h-109l-256 321v-321h-85v655h85v-316l244 316h95z" />
    <glyph glyph-name="Lambda" unicode="&#x39b;" horiz-adv-x="528" 
d="M316 655l199 -655h-91l-161 577l-162 -577h-88l198 655h105z" />
    <glyph glyph-name="Mu" unicode="&#x39c;" horiz-adv-x="699" 
d="M546 0l-5 538l-139 -470h-105l-139 470l-5 -538h-83l6 655h126l148 -511l147 511h126l6 -655h-83z" />
    <glyph glyph-name="Nu" unicode="&#x39d;" horiz-adv-x="582" 
d="M375 0l-216 553v-553h-84v655h136l212 -553v553h84v-655h-132z" />
    <glyph glyph-name="Xi" unicode="&#x39e;" horiz-adv-x="475" 
d="M430 655v-82h-385v82h385zM362 374v-82h-250v82h250zM430 82v-82h-385v82h385z" />
    <glyph glyph-name="Omicron" unicode="&#x39f;" horiz-adv-x="576" 
d="M288 667q218 0 218 -215v-249q0 -215 -218 -215t-218 215v249q0 215 218 215zM288 592q-133 0 -133 -130v-268q0 -131 133 -131t133 131v267q0 131 -133 131z" />
    <glyph glyph-name="Pi" unicode="&#x3a0;" horiz-adv-x="580" 
d="M505 655v-655h-85v578h-260v-578h-85v655h430z" />
    <glyph glyph-name="Rho" unicode="&#x3a1;" horiz-adv-x="511" 
d="M248 667q118 1 175.5 -46.5t57.5 -136.5v-24q0 -94 -56 -145t-169 -51q-45 0 -96 8v-272h-85v661q80 5 173 6zM246 595q-53 0 -86 -3v-247q60 -8 92 -8q144 0 144 127v17q0 114 -150 114z" />
    <glyph glyph-name="Sigma" unicode="&#x3a3;" horiz-adv-x="454" 
d="M424 655v-77h-291l165 -227v-41l-167 -233h293v-77h-389v67l186 265l-186 256v67h389z" />
    <glyph glyph-name="Tau" unicode="&#x3a4;" horiz-adv-x="525" 
d="M495 655v-77h-190v-578h-85v578h-190v77h465z" />
    <glyph glyph-name="Upsilon" unicode="&#x3a5;" horiz-adv-x="491" 
d="M478 655l-190 -430v-225h-85v225l-190 430h97l136 -340l137 340h95z" />
    <glyph glyph-name="Phi" unicode="&#x3a6;" horiz-adv-x="738" 
d="M412 695v-82q27 3 53 3q112 0 162.5 -47.5t50.5 -154.5v-145q0 -104 -49 -153t-164 -49q-26 0 -53 3v-82h-85v82q-27 -3 -54 -3q-111 0 -162 47t-51 155v145q0 103 48.5 152.5t164.5 49.5q18 0 54 -4v83h85zM273 545q-70 0 -99 -28t-29 -92v-167q0 -65 30 -93t98 -28
q27 0 54 3v401q-36 4 -54 4zM465 545q-27 0 -53 -3v-402q26 -3 53 -3q70 0 99 28.5t29 92.5v167q0 65 -30 92.5t-98 27.5z" />
    <glyph glyph-name="Chi" unicode="&#x3a7;" horiz-adv-x="519" 
d="M495 655l-178 -319l189 -336h-103l-146 268l-146 -268h-98l192 338l-180 317h102l137 -250l137 250h94z" />
    <glyph glyph-name="Psi" unicode="&#x3a8;" horiz-adv-x="710" 
d="M645 655v-307q0 -88 -44 -135t-129 -47h-74v-166h-85v166h-75q-86 0 -129.5 46.5t-43.5 135.5v307h85v-317q0 -48 23.5 -72.5t64.5 -24.5h75v414h85v-414h74q41 0 64.5 25t23.5 72v317h85z" />
    <glyph glyph-name="uni03A9" unicode="&#x3a9;" horiz-adv-x="578" 
d="M289 667q110 0 164.5 -55t54.5 -157v-214q0 -61 -13 -96.5t-50 -64.5h73v-80h-200v77h9q44 0 70 38t26 99v251q0 63 -35 96t-99 33t-99 -33t-35 -96v-251q0 -61 26 -99t70 -38h9v-77h-200v80h73q-37 29 -50 64.5t-13 96.5v214q0 102 54.5 157t164.5 55z" />
    <glyph glyph-name="Iotadieresis" unicode="&#x3aa;" horiz-adv-x="235" 
d="M160 655v-655h-85v655h85zM34 824q52 0 52 -43v-29q0 -42 -52 -42q-24 0 -38 11.5t-14 30.5v29q0 43 52 43zM201 824q53 0 53 -43v-29q0 -42 -53 -42q-23 0 -37.5 11.5t-14.5 30.5v29q0 21 14 32t38 11z" />
    <glyph glyph-name="Upsilondieresis" unicode="&#x3ab;" horiz-adv-x="491" 
d="M478 655l-190 -430v-225h-85v225l-190 430h97l136 -340l137 340h95zM162 824q52 0 52 -43v-29q0 -42 -52 -42q-24 0 -38 11.5t-14 30.5v29q0 43 52 43zM329 824q53 0 53 -43v-29q0 -42 -53 -42q-23 0 -37.5 11.5t-14.5 30.5v29q0 21 14 32t38 11z" />
    <glyph glyph-name="alphatonos" unicode="&#x3ac;" horiz-adv-x="453" 
d="M276 511l164 -511h-87l-33 113h-190l-34 -113h-83l164 511h99zM225 441l-77 -259h153z" />
    <glyph glyph-name="epsilontonos" unicode="&#x3ad;" horiz-adv-x="433" 
d="M368 511v-73h-212v-142h195v-72h-195v-151h212v-73h-293v511h293z" />
    <glyph glyph-name="etatonos" unicode="&#x3ae;" horiz-adv-x="512" 
d="M437 511v-511h-82v227h-199v-227h-81v511h81v-212h199v212h82z" />
    <glyph glyph-name="iotatonos" unicode="&#x3af;" horiz-adv-x="231" 
d="M156 511v-511h-81v511h81z" />
    <glyph glyph-name="upsilondieresistonos" unicode="&#x3b0;" horiz-adv-x="426" 
d="M286 847l-43 -129h-66l24 129h85zM133 688q21 0 35 -12t14 -32v-23q0 -19 -14 -31t-35 -12q-20 0 -34 12t-14 31v23q0 20 14 32t34 12zM293 688q21 0 35 -12t14 -32v-23q0 -19 -14 -31t-35 -12q-20 0 -34 12t-14 31v23q0 20 14 32t34 12zM413 511l-159 -337v-174h-82v174
l-159 337h92l109 -260l109 260h90z" />
    <glyph glyph-name="alpha" unicode="&#x3b1;" horiz-adv-x="453" 
d="M276 511l164 -511h-87l-33 113h-190l-34 -113h-83l164 511h99zM225 441l-77 -259h153z" />
    <glyph glyph-name="beta" unicode="&#x3b2;" horiz-adv-x="474" 
d="M229 523q85 0 129.5 -35t44.5 -93v-16q0 -83 -79 -113q47 -10 75 -41.5t28 -76.5v-15q0 -69 -49 -107t-147 -38q-77 0 -156 4v526q130 5 154 5zM219 454q-15 0 -63 -3v-159h79q89 0 89 78v12q0 37 -25 54.5t-80 17.5zM240 226h-84v-165q40 -3 79 -3q111 0 111 80v15
q0 73 -106 73z" />
    <glyph glyph-name="gamma" unicode="&#x3b3;" horiz-adv-x="387" 
d="M357 511v-73h-201v-438h-81v511h282z" />
    <glyph glyph-name="delta" unicode="&#x3b4;" horiz-adv-x="443" 
d="M269 511l152 -461v-50h-399v48l151 463h96zM222 441l-110 -370h218z" />
    <glyph glyph-name="epsilon" unicode="&#x3b5;" horiz-adv-x="433" 
d="M368 511v-73h-212v-142h195v-72h-195v-151h212v-73h-293v511h293z" />
    <glyph glyph-name="zeta" unicode="&#x3b6;" horiz-adv-x="418" 
d="M373 511v-62l-237 -376h237v-73h-333v62l238 376h-233v73h328z" />
    <glyph glyph-name="eta" unicode="&#x3b7;" horiz-adv-x="512" 
d="M437 511v-511h-82v227h-199v-227h-81v511h81v-212h199v212h82z" />
    <glyph glyph-name="theta" unicode="&#x3b8;" horiz-adv-x="506" 
d="M253 523q183 0 183 -174v-188q0 -173 -183 -173t-183 173v188q0 174 183 174zM253 452q-102 0 -102 -93v-200q0 -100 102 -100t102 93v199q0 101 -102 101zM316 294v-69h-126v69h126z" />
    <glyph glyph-name="iota" unicode="&#x3b9;" horiz-adv-x="231" 
d="M156 511v-511h-81v511h81z" />
    <glyph glyph-name="kappa" unicode="&#x3ba;" horiz-adv-x="458" 
d="M438 511l-195 -246l215 -265h-100l-202 253v-253h-81v511h81v-245l193 245h89z" />
    <glyph glyph-name="lambda" unicode="&#x3bb;" horiz-adv-x="451" 
d="M275 511l163 -511h-86l-127 438l-128 -438h-84l162 511h100z" />
    <glyph glyph-name="uni03BC" unicode="&#x3bc;" horiz-adv-x="610" 
d="M534 511l6 -511h-79l-4 389l-107 -334h-91l-107 334l-3 -389h-79l6 511h109l120 -384l120 384h109z" />
    <glyph glyph-name="nu" unicode="&#x3bd;" horiz-adv-x="513" 
d="M438 511v-511h-112l-173 409v-409h-78v511h117l168 -401v401h78z" />
    <glyph glyph-name="xi" unicode="&#x3be;" horiz-adv-x="415" 
d="M370 511v-78h-325v78h325zM315 299v-78h-215v78h215zM370 78v-78h-325v78h325z" />
    <glyph glyph-name="omicron" unicode="&#x3bf;" horiz-adv-x="506" 
d="M253 523q183 0 183 -174v-188q0 -173 -183 -173t-183 173v188q0 174 183 174zM253 452q-102 0 -102 -93v-200q0 -100 102 -100t102 93v199q0 101 -102 101z" />
    <glyph glyph-name="pi" unicode="&#x3c0;" horiz-adv-x="512" 
d="M437 511v-511h-82v438h-199v-438h-81v511h362z" />
    <glyph glyph-name="rho" unicode="&#x3c1;" horiz-adv-x="446" 
d="M221 523q195 0 195 -148v-21q0 -74 -47.5 -115.5t-135.5 -41.5q-35 0 -77 7v-204h-81v518l59 2q59 3 87 3zM220 455q-28 0 -64 -2v-182q40 -6 72 -6q106 0 106 94v10q0 86 -114 86z" />
    <glyph glyph-name="sigma1" unicode="&#x3c2;" horiz-adv-x="393" 
d="M363 511v-73h-230l127 -161v-37l-132 -167h235v-73h-328v62l147 197l-147 190v62h328z" />
    <glyph glyph-name="sigma" unicode="&#x3c3;" horiz-adv-x="393" 
d="M363 511v-73h-230l127 -161v-37l-132 -167h235v-73h-328v62l147 197l-147 190v62h328z" />
    <glyph glyph-name="tau" unicode="&#x3c4;" horiz-adv-x="450" 
d="M420 511v-73h-154v-438h-81v438h-155v73h390z" />
    <glyph glyph-name="upsilon" unicode="&#x3c5;" horiz-adv-x="426" 
d="M413 511l-159 -337v-174h-82v174l-159 337h92l109 -260l109 260h90z" />
    <glyph glyph-name="phi" unicode="&#x3c6;" horiz-adv-x="639" 
d="M360 539v-60q19 3 40 3q96 0 137.5 -39t41.5 -121v-116q0 -84 -41.5 -121t-137.5 -37q-27 0 -40 1v-61h-81v59q-26 -2 -40 -2q-95 0 -137 38.5t-42 122.5v116q0 82 41.5 121t137.5 39q14 0 40 -2v59h81zM244 413q-57 0 -80 -18.5t-23 -64.5v-133q0 -46 23 -65t80 -19
q23 0 35 1v297q-24 2 -35 2zM395 413q-13 0 -35 -2v-297q11 -1 35 -1q56 0 79.5 19.5t23.5 64.5v133q0 46 -23 64.5t-80 18.5z" />
    <glyph glyph-name="chi" unicode="&#x3c7;" horiz-adv-x="434" 
d="M413 511l-148 -249l156 -262h-90l-114 202l-114 -202h-90l157 262l-148 249h90l107 -189l106 189h88z" />
    <glyph glyph-name="psi" unicode="&#x3c8;" horiz-adv-x="616" 
d="M551 511v-236q0 -72 -37.5 -108.5t-108.5 -36.5h-56v-130h-81v130h-56q-71 0 -109 36.5t-38 108.5v236h81v-244q0 -33 18 -50.5t48 -17.5h56v312h81v-312h56q30 0 47.5 17.5t17.5 50.5v244h81z" />
    <glyph glyph-name="omega" unicode="&#x3c9;" horiz-adv-x="507" 
d="M253 523q93 0 138.5 -43.5t45.5 -124.5v-158q0 -82 -47 -122h55v-75h-168v72h6q33 0 52.5 24.5t19.5 68.5v198q0 44 -26.5 67t-75.5 23t-75.5 -23t-26.5 -67v-198q0 -44 20 -68.5t52 -24.5h7v-72h-168v75h55q-47 40 -47 122v158q0 168 183 168z" />
    <glyph glyph-name="iotadieresis" unicode="&#x3ca;" horiz-adv-x="231" 
d="M156 511v-511h-81v511h81zM31 689q52 0 52 -42v-29q0 -19 -13.5 -30t-38.5 -11q-23 0 -37 11t-14 30v29q0 42 51 42zM199 689q52 0 52 -42v-29q0 -19 -13.5 -30t-38.5 -11q-23 0 -37 11t-14 30v29q0 42 51 42z" />
    <glyph glyph-name="upsilondieresis" unicode="&#x3cb;" horiz-adv-x="426" 
d="M129 689q52 0 52 -42v-29q0 -19 -13.5 -30t-38.5 -11q-23 0 -37 11t-14 30v29q0 42 51 42zM297 689q52 0 52 -42v-29q0 -19 -13.5 -30t-38.5 -11q-23 0 -37 11t-14 30v29q0 42 51 42zM413 511l-159 -337v-174h-82v174l-159 337h92l109 -260l109 260h90z" />
    <glyph glyph-name="omicrontonos" unicode="&#x3cc;" horiz-adv-x="506" 
d="M253 523q183 0 183 -174v-188q0 -173 -183 -173t-183 173v188q0 174 183 174zM253 452q-102 0 -102 -93v-200q0 -100 102 -100t102 93v199q0 101 -102 101z" />
    <glyph glyph-name="upsilontonos" unicode="&#x3cd;" horiz-adv-x="426" 
d="M413 511l-159 -337v-174h-82v174l-159 337h92l109 -260l109 260h90z" />
    <glyph glyph-name="omegatonos" unicode="&#x3ce;" horiz-adv-x="507" 
d="M253 523q93 0 138.5 -43.5t45.5 -124.5v-158q0 -82 -47 -122h55v-75h-168v72h6q33 0 52.5 24.5t19.5 68.5v198q0 44 -26.5 67t-75.5 23t-75.5 -23t-26.5 -67v-198q0 -44 20 -68.5t52 -24.5h7v-72h-168v75h55q-47 40 -47 122v158q0 168 183 168z" />
    <glyph glyph-name="uni0401" unicode="&#x401;" horiz-adv-x="485" 
d="M420 655v-77h-260v-207h240v-76h-240v-218h260v-77h-345v655h345zM169 824q52 0 52 -43v-29q0 -42 -52 -42q-24 0 -38 11.5t-14 30.5v29q0 43 52 43zM336 824q53 0 53 -43v-29q0 -42 -53 -42q-23 0 -37.5 11.5t-14.5 30.5v29q0 21 14 32t38 11z" />
    <glyph glyph-name="uni0402" unicode="&#x402;" horiz-adv-x="696" 
d="M495 655v-77h-190v-163q67 12 128 12q213 0 213 -212v-76q0 -77 -36.5 -114t-116.5 -37q-43 0 -64 7v71q27 -5 68 -5q64 0 64 71v93q0 64 -33 97.5t-95 33.5q-78 0 -128 -11v-345h-85v578h-190v77h465z" />
    <glyph glyph-name="uni0403" unicode="&#x403;" horiz-adv-x="445" 
d="M415 655v-77h-255v-578h-85v655h340zM357 829l-85 -119h-74l66 119h93z" />
    <glyph glyph-name="uni0404" unicode="&#x404;" horiz-adv-x="481" 
d="M283 667q37 0 138 -16l-2 -75q-88 16 -136 16q-68 0 -98 -28t-30 -93v-100h236v-76h-236v-110q0 -65 29.5 -92.5t98.5 -27.5q48 0 136 16l2 -77q-101 -16 -138 -16q-115 0 -164 49t-49 153v275q0 104 49 153t164 49z" />
    <glyph glyph-name="uni0405" unicode="&#x405;" horiz-adv-x="461" 
d="M239 667q54 0 141 -16l-2 -75q-82 16 -139 16q-58 0 -83.5 -23t-25.5 -70v-26q0 -36 15.5 -53t65.5 -33l93 -31q67 -23 94.5 -61t27.5 -111v-19q0 -89 -51.5 -133t-168.5 -44q-57 0 -146 20l2 77q83 -20 142 -20q75 0 106 22.5t31 70.5v33q0 35 -15.5 53.5t-54.5 31.5
l-103 34q-69 23 -96 59.5t-27 110.5v11q0 87 46.5 131.5t147.5 44.5z" />
    <glyph glyph-name="uni0406" unicode="&#x406;" horiz-adv-x="235" 
d="M160 655v-655h-85v655h85z" />
    <glyph glyph-name="uni0407" unicode="&#x407;" horiz-adv-x="235" 
d="M160 655v-655h-85v655h85zM34 824q52 0 52 -43v-29q0 -42 -52 -42q-24 0 -38 11.5t-14 30.5v29q0 43 52 43zM201 824q53 0 53 -43v-29q0 -42 -53 -42q-23 0 -37.5 11.5t-14.5 30.5v29q0 21 14 32t38 11z" />
    <glyph glyph-name="uni0408" unicode="&#x408;" horiz-adv-x="287" 
d="M212 655v-516q0 -77 -36.5 -114t-116.5 -37q-43 0 -64 7v71q28 -5 68 -5q64 0 64 71v523h85z" />
    <glyph glyph-name="uni0409" unicode="&#x409;" horiz-adv-x="845" 
d="M298 667q104 0 186 -8v-279q64 8 101 8q110 0 167.5 -48t57.5 -137v-27q0 -87 -57 -137.5t-173 -50.5q-83 0 -181 8v596q-48 4 -98 4q-128 0 -129 -131l-4 -281q-3 -196 -144 -196q-19 0 -34 5v71q30 -3 38 -3q54 0 55 114l4 280q3 212 211 212zM570 316q-23 0 -86 -7
v-242q60 -8 92 -8q149 0 149 120v22q0 115 -155 115z" />
    <glyph glyph-name="uni040A" unicode="&#x40a;" horiz-adv-x="866" 
d="M505 655v-275q64 8 101 8q110 0 167.5 -48t57.5 -137v-27q0 -87 -57 -137.5t-173 -50.5q-83 0 -181 8v304h-260v-300h-85v655h85v-279h260v279h85zM591 316q-23 0 -86 -7v-242q60 -8 92 -8q149 0 149 120v22q0 115 -155 115z" />
    <glyph glyph-name="uni040B" unicode="&#x40b;" horiz-adv-x="689" 
d="M495 655v-77h-190v-162q66 11 121 11q213 0 213 -212v-215h-85v225q0 64 -33 97.5t-95 33.5q-71 0 -121 -11v-345h-85v578h-190v77h465z" />
    <glyph glyph-name="uni040C" unicode="&#x40c;" horiz-adv-x="531" 
d="M500 655l-200 -313l226 -342h-103l-190 295h-73v-295h-85v655h85v-284h71l181 284h88zM372 829l-85 -119h-74l66 119h93z" />
    <glyph glyph-name="uni040E" unicode="&#x40e;" horiz-adv-x="486" 
d="M479 655l-290 -655h-85l100 225l-190 430h99l136 -339l139 339h91zM387 830v-78q-67 -47 -140 -47q-34 0 -69 11.5t-53 23.5l-18 12v78q8 -6 21.5 -15t50.5 -23.5t68 -14.5t66 13.5t55 26.5z" />
    <glyph glyph-name="uni040F" unicode="&#x40f;" horiz-adv-x="580" 
d="M505 655v-655h-172v-130h-85v130h-173v655h85v-578h260v578h85z" />
    <glyph glyph-name="uni0410" unicode="&#x410;" horiz-adv-x="532" 
d="M318 655l201 -655h-92l-43 152h-241l-43 -152h-87l200 655h105zM264 577l-100 -349h199z" />
    <glyph glyph-name="uni0411" unicode="&#x411;" horiz-adv-x="521" 
d="M415 655v-77h-255v-198q64 8 101 8q110 0 167.5 -48t57.5 -137v-27q0 -87 -57 -137.5t-173 -50.5q-83 0 -181 8v659h340zM246 316q-23 0 -86 -7v-242q60 -8 92 -8q149 0 149 120v22q0 115 -155 115z" />
    <glyph glyph-name="uni0412" unicode="&#x412;" horiz-adv-x="528" 
d="M251 667q105 0 160 -43t55 -117v-22q0 -105 -92 -145q56 -12 87.5 -51.5t31.5 -97.5v-22q0 -83 -58.5 -132t-176.5 -49q-67 0 -183 6v669q92 4 176 4zM238 594q-36 0 -78 -3v-224h98q60 0 91.5 29t31.5 81v17q0 100 -143 100zM264 298h-104v-230q65 -6 98 -6
q150 0 150 112v21q0 103 -144 103z" />
    <glyph glyph-name="uni0413" unicode="&#x413;" horiz-adv-x="445" 
d="M415 655v-77h-255v-578h-85v655h340z" />
    <glyph glyph-name="uni0414" unicode="&#x414;" horiz-adv-x="580" 
d="M312 667q86 0 188 -12v-578h60v-207h-85v130h-370v-130h-85v207h60v374q0 110 54.5 163t177.5 53zM306 597q-74 0 -107.5 -32.5t-33.5 -99.5v-388h250v513q-64 7 -109 7z" />
    <glyph glyph-name="uni0415" unicode="&#x415;" horiz-adv-x="485" 
d="M420 655v-77h-260v-207h240v-76h-240v-218h260v-77h-345v655h345z" />
    <glyph glyph-name="uni0416" unicode="&#x416;" horiz-adv-x="797" 
d="M763 655l-159 -317l168 -338h-99l-145 295h-87v-295h-85v295h-89l-145 -295h-97l168 338l-159 317h91l142 -284h89v284h85v-284h92l143 284h87z" />
    <glyph glyph-name="uni0417" unicode="&#x417;" horiz-adv-x="473" 
d="M183 667q114 0 168 -42t54 -126v-19q0 -44 -26.5 -82.5t-69.5 -53.5q51 -13 82.5 -55t31.5 -97v-28q0 -82 -60 -129t-176 -47q-66 0 -142 16l2 75q80 -16 136 -16q83 0 119 24.5t36 76.5v33q0 54 -34 79.5t-111 25.5h-79v72h79q127 0 127 102v23q0 94 -137 94
q-56 0 -136 -16l-2 74q90 16 138 16z" />
    <glyph glyph-name="uni0418" unicode="&#x418;" horiz-adv-x="580" 
d="M505 655v-655h-85v500l-260 -500h-85v655h85v-500l260 500h85z" />
    <glyph glyph-name="uni0419" unicode="&#x419;" horiz-adv-x="580" 
d="M505 655v-655h-85v500l-260 -500h-85v655h85v-500l260 500h85zM430 830v-78q-67 -47 -140 -47q-34 0 -69 11.5t-53 23.5l-18 12v78q8 -6 21.5 -15t50.5 -23.5t68 -14.5t66 13.5t54 26.5z" />
    <glyph glyph-name="uni041A" unicode="&#x41a;" horiz-adv-x="531" 
d="M500 655l-200 -313l226 -342h-103l-190 295h-73v-295h-85v655h85v-284h71l181 284h88z" />
    <glyph glyph-name="uni041B" unicode="&#x41b;" horiz-adv-x="559" 
d="M298 667q104 0 186 -8v-659h-85v592q-48 4 -98 4q-128 0 -129 -131l-4 -281q-3 -196 -144 -196q-19 0 -34 5v71q30 -3 38 -3q54 0 55 114l4 280q3 212 211 212z" />
    <glyph glyph-name="uni041C" unicode="&#x41c;" horiz-adv-x="699" 
d="M546 0l-5 538l-139 -470h-105l-139 470l-5 -538h-83l6 655h126l148 -511l147 511h126l6 -655h-83z" />
    <glyph glyph-name="uni041D" unicode="&#x41d;" horiz-adv-x="580" 
d="M505 655v-655h-85v300h-260v-300h-85v655h85v-279h260v279h85z" />
    <glyph glyph-name="uni041E" unicode="&#x41e;" horiz-adv-x="576" 
d="M288 667q218 0 218 -215v-249q0 -215 -218 -215t-218 215v249q0 215 218 215zM288 592q-133 0 -133 -130v-268q0 -131 133 -131t133 131v267q0 131 -133 131z" />
    <glyph glyph-name="uni041F" unicode="&#x41f;" horiz-adv-x="580" 
d="M505 655v-655h-85v578h-260v-578h-85v655h430z" />
    <glyph glyph-name="uni0420" unicode="&#x420;" horiz-adv-x="511" 
d="M248 667q118 1 175.5 -46.5t57.5 -136.5v-24q0 -94 -56 -145t-169 -51q-45 0 -96 8v-272h-85v661q80 5 173 6zM246 595q-53 0 -86 -3v-247q60 -8 92 -8q144 0 144 127v17q0 114 -150 114z" />
    <glyph glyph-name="uni0421" unicode="&#x421;" horiz-adv-x="476" 
d="M283 667q37 0 138 -16l-2 -75q-88 16 -136 16q-68 0 -98 -28t-30 -93v-286q0 -65 29.5 -92.5t98.5 -27.5q48 0 136 16l2 -77q-101 -16 -138 -16q-115 0 -164 49t-49 153v275q0 104 49 153t164 49z" />
    <glyph glyph-name="uni0422" unicode="&#x422;" horiz-adv-x="525" 
d="M495 655v-77h-190v-578h-85v578h-190v77h465z" />
    <glyph glyph-name="uni0423" unicode="&#x423;" horiz-adv-x="486" 
d="M479 655l-290 -655h-85l100 225l-190 430h99l136 -339l139 339h91z" />
    <glyph glyph-name="uni0424" unicode="&#x424;" horiz-adv-x="767" 
d="M426 695v-59q24 3 50 3q116 0 168.5 -56.5t52.5 -192.5v-125q0 -135 -51.5 -192t-169.5 -57q-26 0 -50 3v-59h-85v59q-25 -3 -51 -3q-117 0 -168.5 57t-51.5 192v125q0 136 52 192.5t168 56.5q26 0 51 -3v59h85zM290 568q-73 0 -104 -36.5t-31 -130.5v-147
q0 -95 31 -131.5t104 -36.5q26 0 51 3v476q-25 3 -51 3zM476 568q-26 0 -50 -3v-477q16 -2 50 -2q73 0 104.5 36.5t31.5 131.5v147q0 94 -31.5 130.5t-104.5 36.5z" />
    <glyph glyph-name="uni0425" unicode="&#x425;" horiz-adv-x="519" 
d="M495 655l-178 -319l189 -336h-103l-146 268l-146 -268h-98l192 338l-180 317h102l137 -250l137 250h94z" />
    <glyph glyph-name="uni0426" unicode="&#x426;" horiz-adv-x="577" 
d="M497 655v-578h60v-207h-85v130h-397v655h85v-578h252v578h85z" />
    <glyph glyph-name="uni0427" unicode="&#x427;" horiz-adv-x="562" 
d="M487 655v-655h-85v240q-72 -12 -128 -12q-209 0 -209 205v222h85v-225q0 -64 32.5 -97.5t93.5 -33.5q76 0 126 11v345h85z" />
    <glyph glyph-name="uni0428" unicode="&#x428;" horiz-adv-x="755" 
d="M680 655v-655h-605v655h85v-578h175v578h85v-578h175v578h85z" />
    <glyph glyph-name="uni0429" unicode="&#x429;" horiz-adv-x="760" 
d="M680 655v-578h60v-207h-85v130h-580v655h85v-578h175v578h85v-578h175v578h85z" />
    <glyph glyph-name="uni042A" unicode="&#x42a;" horiz-adv-x="646" 
d="M285 655v-275q64 8 101 8q110 0 167.5 -48t57.5 -137v-27q0 -87 -57 -137.5t-173 -50.5q-83 0 -181 8v579h-180v80h265zM371 316q-23 0 -86 -7v-242q60 -8 92 -8q149 0 149 120v22q0 115 -155 115z" />
    <glyph glyph-name="uni042B" unicode="&#x42b;" horiz-adv-x="715" 
d="M160 655v-275q64 8 101 8q110 0 167.5 -48t57.5 -137v-27q0 -87 -57 -137.5t-173 -50.5q-83 0 -181 8v659h85zM640 655v-655h-85v655h85zM246 316q-23 0 -86 -7v-242q60 -8 92 -8q149 0 149 120v22q0 115 -155 115z" />
    <glyph glyph-name="uni042C" unicode="&#x42c;" horiz-adv-x="521" 
d="M160 655v-275q64 8 101 8q110 0 167.5 -48t57.5 -137v-27q0 -87 -57 -137.5t-173 -50.5q-83 0 -181 8v659h85zM246 316q-23 0 -86 -7v-242q60 -8 92 -8q149 0 149 120v22q0 115 -155 115z" />
    <glyph glyph-name="uni042D" unicode="&#x42d;" horiz-adv-x="486" 
d="M203 667q114 0 163.5 -48.5t49.5 -153.5v-275q0 -104 -49 -153t-164 -49q-37 0 -138 16l2 70q80 -16 136 -16q70 0 99 28.5t29 92.5v116h-236v76h236v105q0 64 -29 92t-99 28q-43 0 -136 -16l-2 71q101 16 138 16z" />
    <glyph glyph-name="uni042E" unicode="&#x42e;" horiz-adv-x="771" 
d="M498 667q100 0 151.5 -54t51.5 -158v-255q0 -104 -51.5 -158t-151.5 -54t-151.5 54t-51.5 158v98h-135v-298h-85v655h85v-281h135v81q0 104 51.5 158t151.5 54zM498 596q-56 0 -87 -33.5t-31 -96.5v-276q0 -64 31.5 -97.5t86.5 -33.5t86.5 33.5t31.5 97.5v275
q0 63 -31.5 97t-86.5 34z" />
    <glyph glyph-name="uni042F" unicode="&#x42f;" horiz-adv-x="534" 
d="M271 667q52 0 188 -7v-660h-85v282q-62 -5 -121 -5l-131 -277h-97l143 290q-120 39 -120 175v15q0 187 223 187zM271 596q-138 0 -138 -110v-25q0 -113 138 -113q48 0 103 5v239q-47 4 -103 4z" />
    <glyph glyph-name="uni0430" unicode="&#x430;" horiz-adv-x="453" 
d="M276 511l164 -511h-87l-33 113h-190l-34 -113h-83l164 511h99zM225 441l-77 -259h153z" />
    <glyph glyph-name="uni0431" unicode="&#x431;" horiz-adv-x="456" 
d="M357 511v-73h-201v-133q54 7 77 7q93 0 140.5 -40t47.5 -111v-24q0 -67 -48.5 -108t-144.5 -41q-64 0 -153 7v516h282zM221 244q-25 0 -65 -4v-179q41 -5 69 -5q115 0 115 84v19q0 85 -119 85z" />
    <glyph glyph-name="uni0432" unicode="&#x432;" horiz-adv-x="474" 
d="M229 523q85 0 129.5 -35t44.5 -93v-16q0 -83 -79 -113q47 -10 75 -41.5t28 -76.5v-15q0 -69 -49 -107t-147 -38q-77 0 -156 4v526q130 5 154 5zM219 454q-15 0 -63 -3v-159h79q89 0 89 78v12q0 37 -25 54.5t-80 17.5zM240 226h-84v-165q40 -3 79 -3q111 0 111 80v15
q0 73 -106 73z" />
    <glyph glyph-name="uni0433" unicode="&#x433;" horiz-adv-x="387" 
d="M357 511v-73h-201v-438h-81v511h282z" />
    <glyph glyph-name="uni0434" unicode="&#x434;" horiz-adv-x="514" 
d="M275 523q69 0 159 -10v-440h50v-203h-80v130h-295v-130h-79v203h50v277q0 86 45.5 129.5t149.5 43.5zM271 456q-110 0 -110 -95v-288h191v379q-45 4 -81 4z" />
    <glyph glyph-name="uni0435" unicode="&#x435;" horiz-adv-x="433" 
d="M368 511v-73h-212v-142h195v-72h-195v-151h212v-73h-293v511h293z" />
    <glyph glyph-name="uni0436" unicode="&#x436;" horiz-adv-x="679" 
d="M640 511l-125 -241l139 -270h-91l-118 230h-65v-230h-81v230h-67l-117 -230h-90l139 270l-125 241h86l109 -210h65v210h81v-210h65l109 210h86z" />
    <glyph glyph-name="uni0437" unicode="&#x437;" horiz-adv-x="424" 
d="M164 523q186 0 186 -131v-15q0 -36 -22.5 -66.5t-58.5 -42.5q43 -11 69 -45t26 -78v-18q0 -139 -201 -139q-46 0 -118 12l2 69q67 -13 116 -13q65 0 92.5 18.5t27.5 55.5v22q0 39 -26.5 58t-88.5 19h-67v69h70q98 0 98 71v19q0 67 -106 67q-49 0 -116 -13l-2 68
q72 13 119 13z" />
    <glyph glyph-name="uni0438" unicode="&#x438;" horiz-adv-x="512" 
d="M437 511v-511h-82v367l-201 -367h-79v511h81v-371l202 371h79z" />
    <glyph glyph-name="uni0439" unicode="&#x439;" horiz-adv-x="512" 
d="M437 511v-511h-82v367l-201 -367h-79v511h81v-371l202 371h79zM375 679v-75q-52 -44 -119 -44q-30 0 -60 11t-44 22l-15 11v75q7 -6 18.5 -14.5t42.5 -22.5t58 -14t56.5 13t45.5 25z" />
    <glyph glyph-name="uni043A" unicode="&#x43a;" horiz-adv-x="467" 
d="M441 511l-165 -245l186 -266h-95l-155 225h-56v-225h-81v511h81v-217h53l145 217h87z" />
    <glyph glyph-name="uni043B" unicode="&#x43b;" horiz-adv-x="479" 
d="M246 523q78 0 158 -7v-516h-82v452q-39 3 -73 3q-47 0 -72.5 -26t-26.5 -74l-3 -209q-3 -158 -123 -158q-22 0 -34 5v67q20 -2 32 -2q43 0 44 79l3 212q3 174 177 174z" />
    <glyph glyph-name="uni043C" unicode="&#x43c;" horiz-adv-x="610" 
d="M534 511l6 -511h-79l-4 389l-107 -334h-91l-107 334l-3 -389h-79l6 511h109l120 -384l120 384h109z" />
    <glyph glyph-name="uni043D" unicode="&#x43d;" horiz-adv-x="512" 
d="M437 511v-511h-82v227h-199v-227h-81v511h81v-212h199v212h82z" />
    <glyph glyph-name="uni043E" unicode="&#x43e;" horiz-adv-x="506" 
d="M253 523q183 0 183 -174v-188q0 -173 -183 -173t-183 173v188q0 174 183 174zM253 452q-102 0 -102 -93v-200q0 -100 102 -100t102 93v199q0 101 -102 101z" />
    <glyph glyph-name="uni043F" unicode="&#x43f;" horiz-adv-x="512" 
d="M437 511v-511h-82v438h-199v-438h-81v511h362z" />
    <glyph glyph-name="uni0440" unicode="&#x440;" horiz-adv-x="446" 
d="M221 523q195 0 195 -148v-21q0 -74 -47.5 -115.5t-135.5 -41.5q-35 0 -77 7v-204h-81v518l59 2q59 3 87 3zM220 455q-28 0 -64 -2v-182q40 -6 72 -6q106 0 106 94v10q0 86 -114 86z" />
    <glyph glyph-name="uni0441" unicode="&#x441;" horiz-adv-x="422" 
d="M249 523q44 0 118 -13l-1 -71q-78 13 -113 13q-56 0 -79 -20.5t-23 -69.5v-213q0 -48 23 -68t79 -20q48 0 113 13l1 -73q-82 -13 -118 -13q-94 0 -136.5 38t-42.5 122v215q0 82 41 121t138 39z" />
    <glyph glyph-name="uni0442" unicode="&#x442;" horiz-adv-x="450" 
d="M420 511v-73h-154v-438h-81v438h-155v73h390z" />
    <glyph glyph-name="uni0443" unicode="&#x443;" horiz-adv-x="416" 
d="M416 511l-243 -511h-82l81 173l-157 338h94l106 -253l114 253h87z" />
    <glyph glyph-name="uni0444" unicode="&#x444;" horiz-adv-x="665" 
d="M373 545v-45q18 3 37 3q98 0 141.5 -45.5t43.5 -152.5v-106q0 -102 -43.5 -146.5t-141.5 -44.5q-13 0 -37 2v-45h-81v45q-24 -2 -37 -2q-100 0 -142.5 46t-42.5 152v99q0 106 42.5 152t142.5 46q17 0 37 -3v45h81zM260 435q-62 0 -86 -25.5t-24 -89.5v-112
q0 -79 23.5 -106t86.5 -27q10 0 32 2v356q-22 2 -32 2zM405 435q-12 0 -32 -2v-357q10 -1 32 -1q62 0 85.5 27t23.5 96v122q0 65 -23.5 90t-85.5 25z" />
    <glyph glyph-name="uni0445" unicode="&#x445;" horiz-adv-x="434" 
d="M413 511l-148 -249l156 -262h-90l-114 202l-114 -202h-90l157 262l-148 249h90l107 -189l106 189h88z" />
    <glyph glyph-name="uni0446" unicode="&#x446;" horiz-adv-x="511" 
d="M431 511v-438h50v-203h-80v130h-326v511h81v-438h193v438h82z" />
    <glyph glyph-name="uni0447" unicode="&#x447;" horiz-adv-x="489" 
d="M414 511v-511h-81v182q-57 -10 -101 -10q-172 0 -172 165v174h81v-176q0 -47 25 -71.5t71 -24.5q52 0 96 7v265h81z" />
    <glyph glyph-name="uni0448" unicode="&#x448;" horiz-adv-x="657" 
d="M582 511v-511h-507v511h81v-438h132v438h81v-438h132v438h81z" />
    <glyph glyph-name="uni0449" unicode="&#x449;" horiz-adv-x="662" 
d="M582 511v-438h50v-203h-80v130h-477v511h81v-438h132v438h81v-438h132v438h81z" />
    <glyph glyph-name="uni044A" unicode="&#x44a;" horiz-adv-x="551" 
d="M251 511v-206q54 7 77 7q93 0 140.5 -40t47.5 -111v-24q0 -67 -48.5 -108t-144.5 -41q-64 0 -153 7v441h-150v75h231zM316 244q-25 0 -65 -4v-179q41 -5 69 -5q115 0 115 84v19q0 85 -119 85z" />
    <glyph glyph-name="uni044B" unicode="&#x44b;" horiz-adv-x="630" 
d="M156 511v-206q54 7 77 7q93 0 140.5 -40t47.5 -111v-24q0 -67 -48.5 -108t-144.5 -41q-64 0 -153 7v516h81zM555 511v-511h-81v511h81zM221 244q-25 0 -65 -4v-179q41 -5 69 -5q115 0 115 84v19q0 85 -119 85z" />
    <glyph glyph-name="uni044C" unicode="&#x44c;" horiz-adv-x="456" 
d="M156 511v-206q54 7 77 7q93 0 140.5 -40t47.5 -111v-24q0 -67 -48.5 -108t-144.5 -41q-64 0 -153 7v516h81zM221 244q-25 0 -65 -4v-179q41 -5 69 -5q115 0 115 84v19q0 85 -119 85z" />
    <glyph glyph-name="uni044D" unicode="&#x44d;" horiz-adv-x="432" 
d="M183 523q95 0 137 -39t42 -124v-209q0 -85 -42 -124t-137 -39q-46 0 -118 13l2 67q65 -13 112 -13q54 0 78 22t24 72v75h-192v71h192v68q0 50 -24 71t-78 21q-40 0 -112 -12l-2 67q76 13 118 13z" />
    <glyph glyph-name="uni044E" unicode="&#x44e;" horiz-adv-x="669" 
d="M428 523q84 0 127.5 -44.5t43.5 -127.5v-191q0 -82 -43 -127t-128 -45t-128 45t-43 127v66h-101v-226h-81v511h81v-213h101v53q0 83 43.5 127.5t127.5 44.5zM428 455q-42 0 -65.5 -25t-23.5 -69v-211q0 -44 23.5 -69t65.5 -25q43 0 66.5 25t23.5 69v211q0 44 -23.5 69
t-66.5 25z" />
    <glyph glyph-name="uni044F" unicode="&#x44f;" horiz-adv-x="475" 
d="M234 523q70 0 166 -6v-517h-80v216q-43 -4 -86 -4h-15l-103 -212h-91l115 226q-96 34 -96 136v13q0 69 47 108.5t143 39.5zM234 459q-54 0 -81.5 -21.5t-27.5 -57.5v-17q0 -40 29.5 -63t79.5 -23q44 0 86 4v174q-52 4 -86 4z" />
    <glyph glyph-name="uni0451" unicode="&#x451;" horiz-adv-x="433" 
d="M368 511v-73h-212v-142h195v-72h-195v-151h212v-73h-293v511h293zM138 689q52 0 52 -42v-29q0 -19 -13.5 -30t-38.5 -11q-23 0 -37 11t-14 30v29q0 42 51 42zM306 689q52 0 52 -42v-29q0 -19 -13.5 -30t-38.5 -11q-23 0 -37 11t-14 30v29q0 42 51 42z" />
    <glyph glyph-name="uni0452" unicode="&#x452;" horiz-adv-x="588" 
d="M420 511v-73h-154v-108q50 8 99 8q178 0 178 -168v-52q0 -67 -31 -98.5t-100 -31.5q-40 0 -58 6v68q22 -4 55 -4q28 0 40.5 13t12.5 42v65q0 44 -25 68t-73 24q-58 0 -98 -8v-262h-81v438h-155v73h390z" />
    <glyph glyph-name="uni0453" unicode="&#x453;" horiz-adv-x="387" 
d="M357 511v-73h-201v-438h-81v511h282zM315 683l-84 -119h-67l65 119h86z" />
    <glyph glyph-name="uni0454" unicode="&#x454;" horiz-adv-x="427" 
d="M249 523q44 0 118 -13l-1 -71q-65 13 -113 13q-56 0 -79 -22t-23 -71v-64h189v-71h-189v-72q0 -48 23 -69.5t79 -21.5q48 0 113 13l1 -73q-71 -13 -118 -13q-97 0 -138 40.5t-41 122.5v209q0 82 41 122.5t138 40.5z" />
    <glyph glyph-name="uni0455" unicode="&#x455;" horiz-adv-x="402" 
d="M210 523q51 0 119 -13l-1 -72q-80 14 -118 14q-84 0 -84 -64v-21q0 -25 12 -37t50 -23l75 -23q57 -17 80.5 -48.5t23.5 -88.5v-18q0 -70 -43 -105.5t-142 -35.5q-42 0 -124 17l2 73q75 -17 120 -17q57 0 81.5 15.5t24.5 48.5v26q0 24 -11.5 37t-41.5 22l-84 26
q-58 18 -81 48t-23 87v12q0 140 165 140z" />
    <glyph glyph-name="uni0456" unicode="&#x456;" horiz-adv-x="231" 
d="M156 511v-511h-81v511h81z" />
    <glyph glyph-name="uni0457" unicode="&#x457;" horiz-adv-x="231" 
d="M156 511v-511h-81v511h81zM31 689q52 0 52 -42v-29q0 -19 -13.5 -30t-38.5 -11q-23 0 -37 11t-14 30v29q0 42 51 42zM199 689q52 0 52 -42v-29q0 -19 -13.5 -30t-38.5 -11q-23 0 -37 11t-14 30v29q0 42 51 42z" />
    <glyph glyph-name="uni0458" unicode="&#x458;" horiz-adv-x="259" 
d="M184 511v-393q0 -67 -31 -98.5t-100 -31.5q-40 0 -58 6v68q22 -4 55 -4q28 0 40.5 13t12.5 42v398h81z" />
    <glyph glyph-name="uni0459" unicode="&#x459;" horiz-adv-x="704" 
d="M246 523q78 0 158 -7v-211q54 7 77 7q93 0 140.5 -40t47.5 -111v-24q0 -67 -48.5 -108t-144.5 -41q-64 0 -153 7v457q-39 3 -74 3q-47 0 -72.5 -26t-26.5 -74l-3 -209q-2 -158 -123 -158q-22 0 -34 5v67q20 -2 32 -2q43 0 44 79l3 212q3 174 177 174zM469 244
q-25 0 -65 -4v-179q41 -5 69 -5q115 0 115 84v19q0 85 -119 85z" />
    <glyph glyph-name="uni045A" unicode="&#x45a;" horiz-adv-x="737" 
d="M437 511v-206q54 7 77 7q93 0 140.5 -40t47.5 -111v-24q0 -67 -48.5 -108t-144.5 -41q-64 0 -153 7v232h-200v-227h-81v511h81v-212h200v212h81zM502 244q-25 0 -65 -4v-179q41 -5 69 -5q115 0 115 84v19q0 85 -119 85z" />
    <glyph glyph-name="uni045B" unicode="&#x45b;" horiz-adv-x="588" 
d="M420 511v-73h-154v-108q50 8 99 8q178 0 178 -168v-170h-81v178q0 44 -25 68t-73 24q-58 0 -98 -8v-262h-81v438h-155v73h390z" />
    <glyph glyph-name="uni045C" unicode="&#x45c;" horiz-adv-x="467" 
d="M441 511l-165 -245l186 -266h-95l-155 225h-56v-225h-81v511h81v-217h53l145 217h87zM349 683l-84 -119h-67l65 119h86z" />
    <glyph glyph-name="uni045E" unicode="&#x45e;" horiz-adv-x="416" 
d="M416 511l-243 -511h-82l81 173l-157 338h94l106 -253l114 253h87zM334 679v-75q-52 -44 -119 -44q-30 0 -60 11t-45 22l-14 11v75q7 -6 18.5 -14.5t42.5 -22.5t58 -14t56.5 13t46.5 25z" />
    <glyph glyph-name="uni045F" unicode="&#x45f;" horiz-adv-x="506" 
d="M431 511v-511h-138v-130h-80v130h-138v511h81v-438h193v438h82z" />
    <glyph glyph-name="uni0462" unicode="&#x462;" horiz-adv-x="666" 
d="M495 655v-77h-190v-198q64 8 101 8q110 0 167.5 -48t57.5 -137v-27q0 -87 -57 -137.5t-173 -50.5q-83 0 -181 8v582h-190v77h465zM391 316q-23 0 -86 -7v-242q60 -8 92 -8q149 0 149 120v22q0 115 -155 115z" />
    <glyph glyph-name="uni0463" unicode="&#x463;" horiz-adv-x="566" 
d="M420 511v-73h-154v-133q54 7 77 7q93 0 140.5 -40t47.5 -111v-24q0 -67 -48.5 -108t-144.5 -41q-64 0 -153 7v443h-155v73h390zM331 244q-25 0 -65 -4v-179q41 -5 69 -5q115 0 115 84v19q0 85 -119 85z" />
    <glyph glyph-name="uni0472" unicode="&#x472;" horiz-adv-x="576" 
d="M288 667q218 0 218 -215v-249q0 -215 -218 -215t-218 215v249q0 215 218 215zM288 592q-133 0 -133 -130v-91h266v90q0 131 -133 131zM421 295h-266v-101q0 -131 133 -131t133 131v101z" />
    <glyph glyph-name="uni0473" unicode="&#x473;" horiz-adv-x="506" 
d="M253 523q183 0 183 -174v-188q0 -173 -183 -173t-183 173v188q0 174 183 174zM253 452q-102 0 -102 -93v-65h204v57q0 101 -102 101zM355 225h-204v-66q0 -100 102 -100t102 93v73z" />
    <glyph glyph-name="uni0474" unicode="&#x474;" 
d="M528 667q32 0 57 -7v-70q-34 6 -53 6q-24 0 -37 -14.5t-27 -65.5l-150 -516h-111l-194 655h90l160 -573l118 434q25 93 54.5 122t92.5 29z" />
    <glyph glyph-name="uni0475" unicode="&#x475;" horiz-adv-x="468" 
d="M441 523q31 0 52 -6v-67q-28 5 -45 5q-19 0 -29 -10.5t-21 -45.5l-123 -399h-102l-160 511h86l125 -438l91 324q21 75 46.5 100.5t79.5 25.5z" />
    <glyph glyph-name="uni0490" unicode="&#x490;" horiz-adv-x="445" 
d="M415 785v-207h-255v-578h-85v655h255v130h85z" />
    <glyph glyph-name="uni0491" unicode="&#x491;" horiz-adv-x="387" 
d="M357 641v-203h-201v-438h-81v511h202v130h80z" />
    <glyph glyph-name="uni0492" unicode="&#x492;" horiz-adv-x="450" 
d="M420 655v-77h-255v-207h130v-76h-130v-295h-85v295h-70v76h70v284h340z" />
    <glyph glyph-name="uni0493" unicode="&#x493;" horiz-adv-x="392" 
d="M362 511v-73h-201v-142h102v-69h-102v-227h-81v227h-61v69h61v215h282z" />
    <glyph glyph-name="uni0496" unicode="&#x496;" horiz-adv-x="797" 
d="M763 655l-159 -317l129 -261h46v-207h-85v130h-24l-142 295h-87v-295h-85v295h-89l-145 -295h-97l168 338l-159 317h89l142 -284h91v284h85v-284h92l143 284h87z" />
    <glyph glyph-name="uni0497" unicode="&#x497;" horiz-adv-x="679" 
d="M640 511l-125 -241l101 -197h46v-203h-80v130h-19l-118 230h-65v-230h-81v230h-67l-117 -230h-90l139 270l-125 241h86l109 -210h65v210h81v-210h65l109 210h86z" />
    <glyph glyph-name="uni0498" unicode="&#x498;" horiz-adv-x="473" 
d="M183 667q114 0 168 -42t54 -126v-19q0 -44 -26.5 -82.5t-69.5 -53.5q51 -13 82.5 -55t31.5 -97v-28q0 -71 -44 -116t-131 -56l-10 -33h10q22 0 37 -18t15 -46v-15q0 -77 -95 -77q-19 0 -49 5v53q28 -4 36 -4q41 0 41 24v13q-1 26 -34 26h-30v21l14 47q-72 2 -138 16l2 75
q80 -16 136 -16q83 0 119 24.5t36 76.5v33q0 54 -34 79.5t-111 25.5h-79v72h79q127 0 127 102v23q0 94 -137 94q-56 0 -136 -16l-2 74q90 16 138 16z" />
    <glyph glyph-name="uni0499" unicode="&#x499;" horiz-adv-x="424" 
d="M164 523q186 0 186 -131v-15q0 -34 -21.5 -65.5t-59.5 -43.5q44 -11 69.5 -45.5t25.5 -77.5v-18q0 -120 -147 -136l-8 -32h10q22 0 37 -18t15 -46v-15q0 -77 -95 -77q-19 0 -49 5v53q28 -4 36 -4q41 0 41 24v13q-1 26 -34 26h-30v21l13 47q-40 1 -108 12l2 69
q67 -13 116 -13q66 0 93 18.5t27 55.5v22q0 40 -26 58.5t-89 18.5h-67v69h70q98 0 98 71v19q0 67 -106 67q-49 0 -116 -13l-2 68q72 13 119 13z" />
    <glyph glyph-name="uni049A" unicode="&#x49a;" horiz-adv-x="531" 
d="M500 655l-200 -313l175 -265h48v-207h-85v130h-15l-190 295h-73v-295h-85v655h85v-284h71l181 284h88z" />
    <glyph glyph-name="uni049B" unicode="&#x49b;" horiz-adv-x="467" 
d="M441 511l-165 -245l135 -193h55v-203h-80v130h-19l-155 225h-56v-225h-81v511h81v-217h53l145 217h87z" />
    <glyph glyph-name="uni049C" unicode="&#x49c;" horiz-adv-x="559" 
d="M527 655l-184 -311l206 -344h-100l-171 295h-21v-195h-65v195h-32v-295h-85v655h85v-284h32v129h65v-129h15l165 284h90z" />
    <glyph glyph-name="uni049D" unicode="&#x49d;" horiz-adv-x="491" 
d="M468 511l-153 -243l171 -268h-96l-136 223h-19v-141h-55v141h-24v-223h-81v511h81v-215h24v101h55v-101h14l132 215h87z" />
    <glyph glyph-name="uni04A0" unicode="&#x4a0;" horiz-adv-x="656" 
d="M625 655l-200 -313l226 -342h-103l-190 295h-73v-295h-85v575h-180v80h265v-284h71l181 284h88z" />
    <glyph glyph-name="uni04A1" unicode="&#x4a1;" horiz-adv-x="562" 
d="M536 511l-165 -245l186 -266h-95l-155 225h-56v-225h-81v436h-150v75h231v-217h53l145 217h87z" />
    <glyph glyph-name="uni04A2" unicode="&#x4a2;" horiz-adv-x="585" 
d="M505 655v-578h60v-207h-85v130h-60v300h-260v-300h-85v655h85v-279h260v279h85z" />
    <glyph glyph-name="uni04A3" unicode="&#x4a3;" horiz-adv-x="517" 
d="M437 511v-438h50v-203h-80v130h-52v227h-199v-227h-81v511h81v-212h199v212h82z" />
    <glyph glyph-name="uni04AA" unicode="&#x4aa;" horiz-adv-x="479" 
d="M283 667q37 0 138 -16l-2 -75q-88 16 -136 16q-68 0 -98 -28t-30 -93v-286q0 -65 29.5 -92.5t98.5 -27.5q48 0 136 16l2 -77q-35 -10 -53.5 -35.5t-18.5 -55.5v-10q0 -37 42 -37q15 0 33 3v-61q-21 -5 -48 -5q-49 0 -74 22t-25 59v13q0 54 45 93q-26 -2 -39 -2
q-115 0 -164 49t-49 153v275q0 104 49 153t164 49z" />
    <glyph glyph-name="uni04AB" unicode="&#x4ab;" horiz-adv-x="424" 
d="M249 523q44 0 118 -13l-1 -71q-78 13 -113 13q-56 0 -79 -20.5t-23 -69.5v-213q0 -48 23 -68t79 -20q48 0 113 13l1 -72q-6 -2 -21 -4q-52 -31 -52 -85v-10q0 -37 42 -37q15 0 33 3v-61q-21 -5 -48 -5q-49 0 -74 22t-25 59v13q0 52 44 91q-109 0 -152.5 37t-43.5 123v215
q0 82 41 121t138 39z" />
    <glyph glyph-name="uni04AE" unicode="&#x4ae;" horiz-adv-x="491" 
d="M478 655l-190 -430v-225h-85v225l-190 430h97l136 -340l137 340h95z" />
    <glyph glyph-name="uni04AF" unicode="&#x4af;" horiz-adv-x="426" 
d="M413 511l-159 -337v-174h-82v174l-159 337h92l109 -260l109 260h90z" />
    <glyph glyph-name="uni04B0" unicode="&#x4b0;" horiz-adv-x="491" 
d="M478 655l-181 -404h91v-76h-100v-175h-85v175h-100v76h90l-180 404h97l136 -340l137 340h95z" />
    <glyph glyph-name="uni04B1" unicode="&#x4b1;" horiz-adv-x="426" 
d="M413 511l-145 -306h70v-73h-84v-132h-82v132h-78v73h63l-144 306h92l109 -260l109 260h90z" />
    <glyph glyph-name="uni04B2" unicode="&#x4b2;" horiz-adv-x="519" 
d="M495 655l-178 -319l145 -259h63v-207h-85v130h-37l-146 268l-146 -268h-98l192 338l-180 317h102l137 -250l137 250h94z" />
    <glyph glyph-name="uni04B3" unicode="&#x4b3;" horiz-adv-x="434" 
d="M413 511l-148 -249l112 -189h62v-203h-80v130h-28l-114 202l-114 -202h-90l157 262l-148 249h90l107 -189l106 189h88z" />
    <glyph glyph-name="uni04B8" unicode="&#x4b8;" horiz-adv-x="562" 
d="M487 655v-655h-85v240q-48 -8 -87 -11v-129h-65v128q-185 12 -185 205v222h85v-225q0 -115 100 -129v199h65v-201q48 3 87 11v345h85z" />
    <glyph glyph-name="uni04B9" unicode="&#x4b9;" horiz-adv-x="489" 
d="M414 511v-511h-81v182q-34 -7 -72 -10v-98h-55v99q-146 12 -146 164v174h81v-176q0 -78 65 -93v192h55v-195q33 1 72 7v265h81z" />
    <glyph glyph-name="uni04BA" unicode="&#x4ba;" horiz-adv-x="544" 
d="M160 655v-239q66 11 121 11q213 0 213 -212v-215h-85v225q0 64 -33 97.5t-95 33.5q-71 0 -121 -11v-345h-85v655h85z" />
    <glyph glyph-name="uni04BB" unicode="&#x4bb;" horiz-adv-x="478" 
d="M156 511v-181q50 8 99 8q178 0 178 -168v-170h-81v178q0 44 -25 68t-73 24q-58 0 -98 -8v-262h-81v511h81z" />
    <glyph glyph-name="uni04C0" unicode="&#x4c0;" horiz-adv-x="235" 
d="M160 655v-655h-85v655h85z" />
    <glyph glyph-name="uni04CB" unicode="&#x4cb;" horiz-adv-x="567" 
d="M487 655v-578h60v-207h-85v130h-60v240q-72 -12 -128 -12q-209 0 -209 205v222h85v-225q0 -64 32.5 -97.5t93.5 -33.5q76 0 126 11v345h85z" />
    <glyph glyph-name="uni04CC" unicode="&#x4cc;" horiz-adv-x="489" 
d="M414 511v-438h50v-203h-80v130h-51v182q-57 -10 -101 -10q-172 0 -172 165v174h81v-176q0 -47 25 -71.5t71 -24.5q52 0 96 7v265h81z" />
    <glyph glyph-name="uni04CF" unicode="&#x4cf;" horiz-adv-x="231" 
d="M156 511v-511h-81v511h81z" />
    <glyph glyph-name="uni04D8" unicode="&#x4d8;" horiz-adv-x="566" 
d="M256 667q135 0 187.5 -46.5t52.5 -155.5v-262q0 -215 -213 -215t-213 215v168h341v105q0 69 -32 94.5t-123 25.5q-67 0 -149 -18l-2 71q92 18 151 18zM411 295h-256v-101q0 -63 32.5 -97t95.5 -34t95.5 34t32.5 97v101z" />
    <glyph glyph-name="uni04D9" unicode="&#x4d9;" horiz-adv-x="498" 
d="M228 523q111 0 155.5 -37.5t44.5 -125.5v-195q0 -82 -44.5 -129.5t-134.5 -47.5q-179 0 -179 173v135h277v71q0 50 -25 69t-94 19q-54 0 -126 -14l-1 68q73 14 127 14zM347 223h-196v-69q0 -45 25.5 -70t72.5 -25t72.5 25t25.5 70v69z" />
    <glyph glyph-name="uni04E2" unicode="&#x4e2;" horiz-adv-x="580" 
d="M505 655v-655h-85v500l-260 -500h-85v655h85v-500l260 500h85zM407 790v-75h-235v75h235z" />
    <glyph glyph-name="uni04E3" unicode="&#x4e3;" horiz-adv-x="512" 
d="M437 511v-511h-82v367l-201 -367h-79v511h81v-371l202 371h79zM357 640v-70h-202v70h202z" />
    <glyph glyph-name="uni04E8" unicode="&#x4e8;" horiz-adv-x="576" 
d="M288 667q218 0 218 -215v-249q0 -215 -218 -215t-218 215v249q0 215 218 215zM288 592q-133 0 -133 -130v-91h266v90q0 131 -133 131zM421 295h-266v-101q0 -131 133 -131t133 131v101z" />
    <glyph glyph-name="uni04E9" unicode="&#x4e9;" horiz-adv-x="506" 
d="M253 523q183 0 183 -174v-188q0 -173 -183 -173t-183 173v188q0 174 183 174zM253 452q-102 0 -102 -93v-65h204v57q0 101 -102 101zM355 225h-204v-66q0 -100 102 -100t102 93v73z" />
    <glyph glyph-name="uni04EE" unicode="&#x4ee;" horiz-adv-x="486" 
d="M479 655l-290 -655h-85l100 225l-190 430h99l136 -339l139 339h91zM364 790v-75h-235v75h235z" />
    <glyph glyph-name="uni04EF" unicode="&#x4ef;" horiz-adv-x="416" 
d="M416 511l-243 -511h-82l81 173l-157 338h94l106 -253l114 253h87zM316 640v-70h-202v70h202z" />
    <glyph glyph-name="Wgrave" unicode="&#x1e80;" horiz-adv-x="848" 
d="M823 655l-151 -655h-114l-134 558l-133 -558h-114l-152 655h90l122 -562l129 562h116l130 -562l121 562h90zM402 829l66 -119h-74l-85 119h93z" />
    <glyph glyph-name="wgrave" unicode="&#x1e81;" horiz-adv-x="714" 
d="M689 511l-121 -511h-105l-106 426l-105 -426h-105l-122 511h86l91 -427l103 427h104l103 -426l91 426h86zM327 683l65 -119h-67l-84 119h86z" />
    <glyph glyph-name="Wacute" unicode="&#x1e82;" horiz-adv-x="848" 
d="M823 655l-151 -655h-114l-134 558l-133 -558h-114l-152 655h90l122 -562l129 562h116l130 -562l121 562h90zM538 829l-85 -119h-74l66 119h93z" />
    <glyph glyph-name="wacute" unicode="&#x1e83;" horiz-adv-x="714" 
d="M689 511l-121 -511h-105l-106 426l-105 -426h-105l-122 511h86l91 -427l103 427h104l103 -426l91 426h86zM472 683l-84 -119h-67l65 119h86z" />
    <glyph glyph-name="Wdieresis" unicode="&#x1e84;" horiz-adv-x="848" 
d="M823 655l-151 -655h-114l-134 558l-133 -558h-114l-152 655h90l122 -562l129 562h116l130 -562l121 562h90zM340 824q52 0 52 -43v-29q0 -42 -52 -42q-24 0 -38 11.5t-14 30.5v29q0 43 52 43zM507 824q53 0 53 -43v-29q0 -42 -53 -42q-23 0 -37.5 11.5t-14.5 30.5v29
q0 21 14 32t38 11z" />
    <glyph glyph-name="wdieresis" unicode="&#x1e85;" horiz-adv-x="714" 
d="M689 511l-121 -511h-105l-106 426l-105 -426h-105l-122 511h86l91 -427l103 427h104l103 -426l91 426h86zM272 689q52 0 52 -42v-29q0 -19 -13.5 -30t-38.5 -11q-23 0 -37 11t-14 30v29q0 42 51 42zM440 689q52 0 52 -42v-29q0 -19 -13.5 -30t-38.5 -11q-23 0 -37 11
t-14 30v29q0 42 51 42z" />
    <glyph glyph-name="Ygrave" unicode="&#x1ef2;" horiz-adv-x="491" 
d="M478 655l-190 -430v-225h-85v225l-190 430h97l136 -340l137 340h95zM224 829l66 -119h-74l-85 119h93z" />
    <glyph glyph-name="ygrave" unicode="&#x1ef3;" horiz-adv-x="426" 
d="M413 511l-159 -337v-174h-82v174l-159 337h92l109 -260l109 260h90zM183 683l65 -119h-67l-84 119h86z" />
    <glyph glyph-name="uni2007" unicode="&#x2007;" horiz-adv-x="510" 
 />
    <glyph glyph-name="uni2008" unicode="&#x2008;" horiz-adv-x="223" 
 />
    <glyph glyph-name="uni200B" unicode="&#x200b;" horiz-adv-x="0" 
 />
    <glyph glyph-name="endash" unicode="&#x2013;" horiz-adv-x="610" 
d="M545 328v-65h-480v65h480z" />
    <glyph glyph-name="emdash" unicode="&#x2014;" horiz-adv-x="710" 
d="M645 328v-65h-580v65h580z" />
    <glyph glyph-name="afii00208" unicode="&#x2015;" horiz-adv-x="610" 
d="M545 328v-65h-480v65h480z" />
    <glyph glyph-name="quoteleft" unicode="&#x2018;" horiz-adv-x="217" 
d="M151 696l-23 -99q34 -8 34 -42v-28q0 -44 -53 -44q-54 0 -54 44v30q0 28 7 50l30 89h59z" />
    <glyph glyph-name="quoteright" unicode="&#x2019;" horiz-adv-x="217" 
d="M108 695q54 0 54 -44v-30q0 -28 -7 -50l-30 -89h-59l23 99q-34 8 -34 42v28q0 44 53 44z" />
    <glyph glyph-name="quotesinglbase" unicode="&#x201a;" horiz-adv-x="217" 
d="M108 105q54 0 54 -44v-30q0 -28 -7 -50l-30 -89h-59l23 99q-34 8 -34 42v28q0 44 53 44z" />
    <glyph glyph-name="quotedblleft" unicode="&#x201c;" horiz-adv-x="362" 
d="M151 695l-23 -99q34 -8 34 -42v-28q0 -44 -53 -44q-54 0 -54 44v30q0 28 7 50l30 89h59zM296 695l-23 -99q34 -8 34 -42v-28q0 -44 -53 -44q-54 0 -54 44v30q0 28 7 50l30 89h59z" />
    <glyph glyph-name="quotedblright" unicode="&#x201d;" horiz-adv-x="362" 
d="M108 695q54 0 54 -44v-30q0 -28 -7 -50l-30 -89h-59l23 99q-34 8 -34 42v28q0 44 53 44zM253 695q54 0 54 -44v-30q0 -28 -7 -50l-30 -89h-59l23 99q-34 8 -34 42v28q0 44 53 44z" />
    <glyph glyph-name="quotedblbase" unicode="&#x201e;" horiz-adv-x="362" 
d="M108 105q54 0 54 -44v-30q0 -28 -7 -50l-30 -89h-59l23 99q-34 8 -34 42v28q0 44 53 44zM253 105q54 0 54 -44v-30q0 -28 -7 -50l-30 -89h-59l23 99q-34 8 -34 42v28q0 44 53 44z" />
    <glyph glyph-name="dagger" unicode="&#x2020;" horiz-adv-x="419" 
d="M252 655v-167h152v-80h-152v-408h-85v408h-152v80h152v167h85z" />
    <glyph glyph-name="daggerdbl" unicode="&#x2021;" horiz-adv-x="439" 
d="M262 655v-167h152v-80h-152v-140h152v-80h-152v-188h-85v188h-152v80h152v140h-152v80h152v167h85z" />
    <glyph glyph-name="bullet" unicode="&#x2022;" horiz-adv-x="235" 
d="M117 335q63 0 63 -51v-33q0 -51 -63 -51q-62 0 -62 51v33q0 51 62 51z" />
    <glyph glyph-name="ellipsis" unicode="&#x2026;" horiz-adv-x="553" 
d="M276 110q57 0 57 -47v-29q0 -46 -57 -46q-56 0 -56 46v29q0 47 56 47zM110 110q57 0 57 -47v-29q0 -46 -57 -46q-56 0 -56 46v29q0 47 56 47zM442 110q57 0 57 -47v-29q0 -46 -57 -46q-56 0 -56 46v29q0 47 56 47z" />
    <glyph glyph-name="perthousand" unicode="&#x2030;" horiz-adv-x="1240" 
d="M203 625q78 0 117.5 -41.5t39.5 -118.5v-30q0 -77 -39.5 -118.5t-117.5 -41.5t-118 41.5t-40 118.5v30q0 77 40 118.5t118 41.5zM649 613l-335 -613h-87l335 613h87zM203 550q-73 0 -73 -85v-30q0 -85 73 -85q72 0 72 85v30q0 45 -17.5 65t-54.5 20zM673 338
q78 0 117.5 -41.5t39.5 -118.5v-30q0 -77 -39.5 -118.5t-117.5 -41.5t-118 41.5t-40 118.5v30q0 77 40 118.5t118 41.5zM1053 338q78 0 117.5 -41.5t39.5 -118.5v-30q0 -77 -39.5 -118.5t-117.5 -41.5t-118 41.5t-40 118.5v30q0 77 40 118.5t118 41.5zM673 263
q-73 0 -73 -85v-30q0 -85 73 -85q72 0 72 85v30q0 45 -17.5 65t-54.5 20zM1053 263q-73 0 -73 -85v-30q0 -85 73 -85q72 0 72 85v30q0 45 -17.5 65t-54.5 20z" />
    <glyph glyph-name="guilsinglleft" unicode="&#x2039;" horiz-adv-x="318" 
d="M253 438l-93 -170l93 -170h-88l-100 170l100 170h88z" />
    <glyph glyph-name="guilsinglright" unicode="&#x203a;" horiz-adv-x="318" 
d="M153 438l100 -170l-100 -170h-88l93 170l-93 170h88z" />
    <glyph glyph-name="fraction" unicode="&#x2044;" horiz-adv-x="380" 
d="M384 601l-305 -601h-83l305 601h83z" />
    <glyph glyph-name="uni2070" unicode="&#x2070;" horiz-adv-x="400" 
d="M199 759q143 0 143 -145v-147q0 -145 -143 -145q-142 0 -142 145v147q0 145 142 145zM199 693q-62 0 -62 -74v-157q0 -74 62 -74q63 0 63 74v157q0 74 -63 74z" />
    <glyph glyph-name="uni2074" unicode="&#x2074;" horiz-adv-x="400" 
d="M214 752l-93 -267h109v132h76v-132h56v-64h-56v-90h-77v90h-171l-20 42l104 289h72z" />
    <glyph glyph-name="uni2075" unicode="&#x2075;" horiz-adv-x="400" 
d="M299 754v-66h-159v-113q40 25 93 25q49 0 76.5 -30t27.5 -91v-25q0 -67 -36 -99t-113 -32q-55 0 -117 17v62q63 -14 116 -14q35 0 53.5 17.5t18.5 48.5v28q0 26 -13 40t-35 14q-48 0 -90 -38h-58v256h236z" />
    <glyph glyph-name="uni2076" unicode="&#x2076;" horiz-adv-x="400" 
d="M314 753v-64q-93 -1 -135 -30t-42 -87v-12q49 43 94 43q52 0 81.5 -31t29.5 -93v-27q0 -59 -37.5 -94t-108.5 -35q-67 0 -102.5 36t-35.5 105v89q0 200 256 200zM213 537q-26 0 -76 -41v-44q0 -65 62 -65q64 0 64 62v33q0 55 -50 55z" />
    <glyph glyph-name="uni2077" unicode="&#x2077;" horiz-adv-x="400" 
d="M340 751v-52l-174 -368h-79l165 354h-193v66h281z" />
    <glyph glyph-name="uni2078" unicode="&#x2078;" horiz-adv-x="400" 
d="M200 760q62 0 97 -29.5t35 -83.5v-2q0 -64 -47 -90q67 -30 67 -98v-10q0 -124 -152 -124q-75 0 -114 32t-39 92v10q0 69 67 98q-47 26 -47 90v2q0 53 35 83t98 30zM200 701q-61 0 -61 -50v-14q0 -30 12.5 -42t48.5 -12q35 0 47.5 12t12.5 42v14q0 50 -60 50zM200 527
q-37 0 -57.5 -18.5t-20.5 -49.5v-19q0 -26 20.5 -42.5t57.5 -16.5q36 0 56.5 17t20.5 42v19q0 31 -20.5 49.5t-56.5 18.5z" />
    <glyph glyph-name="uni2079" unicode="&#x2079;" horiz-adv-x="400" 
d="M203 759q65 0 102 -35t37 -103v-140q0 -158 -156 -158q-35 0 -101 12v63q57 -12 101 -12q40 0 58.5 20.5t18.5 65.5v50q-49 -43 -93 -43q-54 0 -83 31.5t-29 92.5v27q0 60 38 94.5t107 34.5zM201 695q-64 0 -64 -62v-33q0 -55 50 -55q26 0 76 41v44q0 65 -62 65z" />
    <glyph glyph-name="uni207A" unicode="&#x207a;" horiz-adv-x="400" 
d="M235 673v-101h102v-65h-102v-101h-71v101h-102v65h102v101h71z" />
    <glyph glyph-name="uni207B" unicode="&#x207b;" horiz-adv-x="400" 
d="M336 571v-64h-273v64h273z" />
    <glyph glyph-name="uni207C" unicode="&#x207c;" horiz-adv-x="400" 
d="M337 628v-65h-274v65h274zM337 514v-64h-274v64h274z" />
    <glyph glyph-name="uni207D" unicode="&#x207d;" horiz-adv-x="400" 
d="M267 835v-65q-35 -2 -44.5 -12t-9.5 -44v-330q0 -35 9.5 -45t44.5 -12v-65q-73 0 -103.5 25.5t-30.5 89.5v343q0 64 31 89.5t103 25.5z" />
    <glyph glyph-name="uni207E" unicode="&#x207e;" horiz-adv-x="400" 
d="M133 770v65q72 0 103 -25.5t31 -89.5v-343q0 -64 -30.5 -89.5t-103.5 -25.5v65q35 2 44.5 12t9.5 45v330q0 34 -9.5 44t-44.5 12z" />
    <glyph glyph-name="uni2080" unicode="&#x2080;" horiz-adv-x="400" 
d="M199 278q143 0 143 -145v-147q0 -145 -143 -145q-142 0 -142 145v147q0 145 142 145zM199 212q-62 0 -62 -74v-157q0 -74 62 -74q63 0 63 74v157q0 74 -63 74z" />
    <glyph glyph-name="uni2081" unicode="&#x2081;" horiz-adv-x="400" 
d="M256 271v-355h80v-66h-252v66h92v279h-1l-97 -39l-15 67l128 48h65z" />
    <glyph glyph-name="uni2082" unicode="&#x2082;" horiz-adv-x="400" 
d="M179 279q148 0 148 -108v-18q0 -35 -13.5 -64.5t-49.5 -68.5l-97 -104h161v-66h-256v60l148 170q19 22 25 36t6 36v16q0 25 -16.5 36t-55.5 11q-47 0 -98 -17v65q59 16 98 16z" />
    <glyph glyph-name="uni2083" unicode="&#x2083;" horiz-adv-x="400" 
d="M174 279q68 0 102.5 -28.5t34.5 -79.5v-7q0 -64 -60 -92q70 -28 70 -101v-7q0 -55 -38 -88.5t-107 -33.5q-38 0 -97 9v61q52 -8 99 -8q64 0 64 56v13q0 33 -17.5 48.5t-58.5 15.5h-58v59h58q37 0 52.5 15t15.5 47v13q0 47 -60 47q-30 0 -95 -10v62q59 9 95 9z" />
    <glyph glyph-name="uni2084" unicode="&#x2084;" horiz-adv-x="400" 
d="M214 271l-93 -267h109v132h76v-132h56v-64h-56v-90h-77v90h-171l-20 42l104 289h72z" />
    <glyph glyph-name="uni2085" unicode="&#x2085;" horiz-adv-x="400" 
d="M299 273v-66h-159v-113q40 25 93 25q49 0 76.5 -30t27.5 -91v-25q0 -67 -36 -99t-113 -32q-55 0 -117 17v62q63 -14 116 -14q35 0 53.5 17.5t18.5 48.5v28q0 26 -13 40t-35 14q-48 0 -90 -38h-58v256h236z" />
    <glyph glyph-name="uni2086" unicode="&#x2086;" horiz-adv-x="400" 
d="M314 272v-64q-93 -1 -135 -30t-42 -87v-12q49 43 94 43q52 0 81.5 -31t29.5 -93v-27q0 -59 -37.5 -94t-108.5 -35q-67 0 -102.5 36t-35.5 105v89q0 200 256 200zM213 56q-26 0 -76 -41v-44q0 -65 62 -65q64 0 64 62v33q0 55 -50 55z" />
    <glyph glyph-name="uni2087" unicode="&#x2087;" horiz-adv-x="400" 
d="M340 270v-52l-174 -368h-79l165 354h-193v66h281z" />
    <glyph glyph-name="uni2088" unicode="&#x2088;" horiz-adv-x="400" 
d="M200 279q62 0 97 -29.5t35 -83.5v-2q0 -64 -47 -90q67 -30 67 -98v-10q0 -124 -152 -124q-75 0 -114 32t-39 92v10q0 69 67 98q-47 26 -47 90v2q0 53 35 83t98 30zM200 220q-61 0 -61 -50v-14q0 -30 12.5 -42t48.5 -12q35 0 47.5 12t12.5 42v14q0 50 -60 50zM200 46
q-37 0 -57.5 -18.5t-20.5 -49.5v-19q0 -26 20.5 -42.5t57.5 -16.5q36 0 56.5 17t20.5 42v19q0 31 -20.5 49.5t-56.5 18.5z" />
    <glyph glyph-name="uni2089" unicode="&#x2089;" horiz-adv-x="400" 
d="M203 278q65 0 102 -35t37 -103v-140q0 -158 -156 -158q-35 0 -101 12v63q57 -12 101 -12q40 0 58.5 20.5t18.5 65.5v50q-49 -43 -93 -43q-54 0 -83 31.5t-29 92.5v27q0 60 38 94.5t107 34.5zM201 214q-64 0 -64 -62v-33q0 -55 50 -55q26 0 76 41v44q0 65 -62 65z" />
    <glyph glyph-name="uni208A" unicode="&#x208a;" horiz-adv-x="400" 
d="M235 192v-101h102v-65h-102v-101h-71v101h-102v65h102v101h71z" />
    <glyph glyph-name="uni208B" unicode="&#x208b;" horiz-adv-x="400" 
d="M336 90v-64h-273v64h273z" />
    <glyph glyph-name="uni208C" unicode="&#x208c;" horiz-adv-x="400" 
d="M337 147v-65h-274v65h274zM337 33v-64h-274v64h274z" />
    <glyph glyph-name="uni208D" unicode="&#x208d;" horiz-adv-x="400" 
d="M267 354v-65q-35 -2 -44.5 -12t-9.5 -44v-330q0 -35 9.5 -45t44.5 -12v-65q-73 0 -103.5 25.5t-30.5 89.5v343q0 64 31 89.5t103 25.5z" />
    <glyph glyph-name="uni208E" unicode="&#x208e;" horiz-adv-x="400" 
d="M133 289v65q72 0 103 -25.5t31 -89.5v-343q0 -64 -30.5 -89.5t-103.5 -25.5v65q35 2 44.5 12t9.5 45v330q0 34 -9.5 44t-44.5 12z" />
    <glyph glyph-name="Euro" unicode="&#x20ac;" horiz-adv-x="454" 
d="M291 613q50 0 138 -16l-2 -73q-80 16 -136 16q-60 0 -86.5 -28.5t-26.5 -92.5v-23h209l-15 -70h-194v-62h182l-15 -70h-167v-11q0 -64 27 -92t86 -28q56 0 136 16l2 -75q-88 -16 -138 -16q-106 0 -152 49.5t-46 152.5v4h-83l15 70h68v62h-77l15 70h62v15
q0 103 46.5 152.5t151.5 49.5z" />
    <glyph glyph-name="uni2116" unicode="&#x2116;" horiz-adv-x="1033" 
d="M375 0l-216 553v-553h-84v655h136l212 -553v553h84v-655h-132zM782 667q176 0 176 -182v-88q0 -182 -176 -182q-86 0 -131 46t-45 136v88q0 182 176 182zM782 596q-43 0 -67 -27t-24 -77v-102q0 -50 24 -77t67 -27t67 27t24 77v103q0 50 -24 76.5t-67 26.5zM953 73v-73
h-342v73h342z" />
    <glyph glyph-name="trademark" unicode="&#x2122;" horiz-adv-x="773" 
d="M341 683v-58h-111v-275h-73v275h-112v58h296zM726 683l2 -333h-69l1 207l-66 -176h-70l-65 176l-4 -207h-69l7 333h83l84 -228l83 228h83z" />
    <glyph glyph-name="Omega" unicode="&#x2126;" horiz-adv-x="578" 
d="M289 667q110 0 164.5 -55t54.5 -157v-214q0 -61 -13 -96.5t-50 -64.5h73v-80h-200v77h9q44 0 70 38t26 99v251q0 63 -35 96t-99 33t-99 -33t-35 -96v-251q0 -61 26 -99t70 -38h9v-77h-200v80h73q-37 29 -50 64.5t-13 96.5v214q0 102 54.5 157t164.5 55z" />
    <glyph glyph-name="estimated" unicode="&#x212e;" horiz-adv-x="955" 
d="M477 703q165 0 284 -106.5t119 -269.5h-657v-218q30 -45 104.5 -71t150.5 -26q75 0 147.5 25.5t112.5 72.5h58q-118 -137 -319 -137q-172 0 -287 102.5t-115 259.5q0 156 117.5 262t284.5 106zM478 664q-172 0 -255 -101v-196h509v195q-94 102 -254 102z" />
    <glyph glyph-name="onethird" unicode="&#x2153;" horiz-adv-x="1000" 
d="M245 602v-355h80v-66h-252v66h92v279h-1l-97 -39l-15 67l128 48h65zM693 601l-305 -601h-83l305 601h83zM800 429q68 0 102.5 -28.5t34.5 -79.5v-7q0 -64 -60 -92q70 -28 70 -101v-7q0 -55 -38 -88.5t-107 -33.5q-38 0 -97 9v61q52 -8 99 -8q64 0 64 56v13
q0 33 -17.5 48.5t-58.5 15.5h-58v59h58q37 0 52.5 15t15.5 47v13q0 47 -60 47q-30 0 -95 -10v62q59 9 95 9z" />
    <glyph glyph-name="twothirds" unicode="&#x2154;" horiz-adv-x="1000" 
d="M169 610q148 0 148 -108v-18q0 -35 -13.5 -64.5t-49.5 -68.5l-97 -104h161v-66h-256v60l148 170q19 22 25 36t6 36v16q0 25 -16.5 36t-55.5 11q-47 0 -98 -17v65q59 16 98 16zM693 601l-305 -601h-83l305 601h83zM790 429q68 0 102.5 -28.5t34.5 -79.5v-7q0 -64 -60 -92
q70 -28 70 -101v-7q0 -55 -38 -88.5t-107 -33.5q-38 0 -97 9v61q52 -8 99 -8q64 0 64 56v13q0 33 -17.5 48.5t-58.5 15.5h-58v59h58q37 0 52.5 15t15.5 47v13q0 47 -60 47q-30 0 -95 -10v62q59 9 95 9z" />
    <glyph glyph-name="arrowleft" unicode="&#x2190;" horiz-adv-x="900" 
d="M377 649l53 -53l-235 -237h299v-74h-299l235 -237l-53 -53l-319 327zM683 359v-74h-135v74h135zM842 359v-74h-105v74h105z" />
    <glyph glyph-name="arrowup" unicode="&#x2191;" horiz-adv-x="900" 
d="M450 694l326 -318l-51 -52l-237 235v-301h-76v301l-237 -235l-51 52zM488 204v-135h-76v135h76zM488 15v-105h-76v105h76z" />
    <glyph glyph-name="arrowright" unicode="&#x2192;" horiz-adv-x="900" 
d="M523 649l319 -327l-319 -327l-53 53l235 237h-299v74h299l-235 237zM163 359v-74h-105v74h105zM352 359v-74h-135v74h135z" />
    <glyph glyph-name="arrowdown" unicode="&#x2193;" horiz-adv-x="900" 
d="M488 772v-105h-76v105h76zM488 613v-135h-76v135h76zM488 424v-301l237 235l51 -52l-326 -318l-326 318l51 52l237 -235v301h76z" />
    <glyph glyph-name="arrowboth" unicode="&#x2194;" horiz-adv-x="1289" 
d="M377 649l53 -53l-235 -237h229v-74h-229l235 -237l-53 -53l-319 327zM912 649l319 -327l-319 -327l-53 53l235 237h-229v74h229l-235 237zM563 359v-74h-85v74h85zM672 359v-74h-55v74h55zM811 359v-74h-85v74h85z" />
    <glyph glyph-name="arrowupdn" unicode="&#x2195;" horiz-adv-x="900" 
d="M450 836l326 -318l-51 -52l-237 235v-231h-76v231l-237 -235l-51 52zM488 416v-85h-76v85h76zM488 277v-55h-76v55h76zM488 168v-85h-76v85h76zM725 33l51 -52l-326 -318l-326 318l51 52l237 -235v231h76v-231z" />
    <glyph glyph-name="uni2196" unicode="&#x2196;" horiz-adv-x="900" 
d="M620 635v-76l-334 -2l211 -210l-52 -52l-213 213l-2 -336h-73l6 457zM535 309l96 -96l-52 -52l-96 96zM669 175l74 -74l-52 -52l-74 74z" />
    <glyph glyph-name="uni2197" unicode="&#x2197;" horiz-adv-x="900" 
d="M280 635l457 -6l6 -457h-73l-2 336l-213 -213l-52 52l211 210l-334 2v76zM365 309l52 -52l-96 -96l-52 52zM231 175l52 -52l-74 -74l-52 52z" />
    <glyph glyph-name="uni2198" unicode="&#x2198;" horiz-adv-x="900" 
d="M209 635l74 -74l-52 -52l-74 74zM321 523l96 -96l-52 -52l-96 96zM743 512l-6 -457l-457 -6v76l334 2l-211 210l52 52l213 -213l2 336h73z" />
    <glyph glyph-name="uni2199" unicode="&#x2199;" horiz-adv-x="900" 
d="M691 635l52 -52l-74 -74l-52 52zM579 523l52 -52l-96 -96l-52 52zM230 512l2 -336l213 213l52 -52l-211 -210l334 -2v-76l-457 6l-6 457h73z" />
    <glyph glyph-name="partialdiff" unicode="&#x2202;" horiz-adv-x="461" 
d="M95 631v64q149 0 227.5 -89t78.5 -266v-170q0 -88 -44 -135t-129 -47q-90 0 -131.5 41t-41.5 128v115q0 82 35 124.5t98 42.5q73 0 128 -78v25q0 114 -62.5 179.5t-158.5 65.5zM205 363q-65 0 -65 -103v-112q0 -89 88 -89t88 89v133q-49 82 -111 82z" />
    <glyph glyph-name="Delta" unicode="&#x2206;" horiz-adv-x="530" 
d="M315 655l191 -598v-57h-482v55l190 600h101zM265 577l-150 -501h294z" />
    <glyph glyph-name="product" unicode="&#x220f;" horiz-adv-x="575" 
d="M580 655v-80h-90v-760h-85v760h-235v-760h-85v760h-90v80h585z" />
    <glyph glyph-name="summation" unicode="&#x2211;" horiz-adv-x="399" 
d="M394 655v-77h-288l189 -322v-39l-192 -325h291v-77h-389v67l203 354l-203 352v67h389z" />
    <glyph glyph-name="minus" unicode="&#x2212;" horiz-adv-x="390" 
d="M372 335v-70h-354v70h354z" />
    <glyph glyph-name="uni2219" unicode="&#x2219;" horiz-adv-x="221" 
d="M110 311q57 0 57 -47v-29q0 -46 -57 -46q-56 0 -56 46v29q0 47 56 47z" />
    <glyph glyph-name="radical" unicode="&#x221a;" horiz-adv-x="480" 
d="M560 683v-70h-84l-202 -613h-110l-144 488h90l110 -426l195 621h145z" />
    <glyph glyph-name="infinity" unicode="&#x221e;" horiz-adv-x="517" 
d="M364 432q71 0 107 -34t36 -96v-11q0 -62 -36 -96t-107 -34q-70 0 -105 46q-35 -46 -106 -46t-107 34t-36 96v11q0 62 36 96t107 34t106 -46q35 46 105 46zM153 362q-63 0 -63 -60v-11q0 -60 63 -60t63 60v11q0 60 -63 60zM364 362q-63 0 -63 -60v-11q0 -60 63 -60t63 60
v11q0 60 -63 60z" />
    <glyph glyph-name="integral" unicode="&#x222b;" horiz-adv-x="316" 
d="M263 695q33 0 63 -7v-68q-30 5 -62 5q-66 0 -66 -81v-581q0 -159 -150 -159q-33 0 -63 7v68q30 -5 62 -5q66 0 66 81v581q0 159 150 159z" />
    <glyph glyph-name="approxequal" unicode="&#x2248;" horiz-adv-x="390" 
d="M118 434q36 0 80 -14t76 -14q16 0 40.5 6t41.5 12l16 7v-70q-42 -28 -100 -28q-36 0 -79 14t-77 14q-16 0 -40.5 -6.5t-41.5 -12.5l-16 -6v70q42 28 100 28zM118 284q36 0 80 -14t76 -14q16 0 40.5 6t41.5 12l16 7v-70q-42 -28 -100 -28q-36 0 -79 14t-77 14
q-16 0 -40.5 -6.5t-41.5 -12.5l-16 -6v70q42 28 100 28z" />
    <glyph glyph-name="notequal" unicode="&#x2260;" horiz-adv-x="390" 
d="M348 484l-40 -63h64v-70h-107l-63 -101h170v-70h-214l-40 -65h-76l40 65h-64v70h108l63 101h-171v70h214l40 63h76z" />
    <glyph glyph-name="lessequal" unicode="&#x2264;" horiz-adv-x="390" 
d="M375 494v-83l-276 -114l276 -115v-83l-360 160v75zM375 70v-70h-360v70h360z" />
    <glyph glyph-name="greaterequal" unicode="&#x2265;" horiz-adv-x="390" 
d="M15 494l360 -160v-75l-360 -160v83l276 115l-276 114v83zM375 70v-70h-360v70h360z" />
    <glyph glyph-name="dotmath" unicode="&#x22c5;" horiz-adv-x="221" 
d="M110 311q57 0 57 -47v-29q0 -46 -57 -46q-56 0 -56 46v29q0 47 56 47z" />
    <glyph glyph-name="uni25AF" unicode="&#x25af;" horiz-adv-x="486" 
d="M70 0v655h346v-655h-346zM135 65h216v525h-216v-525z" />
    <glyph glyph-name="lozenge" unicode="&#x25ca;" horiz-adv-x="538" 
d="M303 683l230 -341l-230 -342h-68l-230 342l230 341h68zM269 593l-162 -251l162 -252l162 252z" />
    <glyph glyph-name="uniFB00" unicode="&#xfb00;" horiz-adv-x="816" 
d="M368 511v-73h-212v-142h158v-72h-158v-224h-81v511h293zM776 511v-73h-212v-142h158v-72h-158v-224h-81v511h293z" />
    <glyph glyph-name="fi" unicode="&#xfb01;" horiz-adv-x="639" 
d="M368 511v-73h-212v-142h158v-72h-158v-224h-81v511h293zM564 511v-511h-81v511h81z" />
    <glyph glyph-name="fl" unicode="&#xfb02;" horiz-adv-x="806" 
d="M368 511v-73h-212v-142h158v-72h-158v-224h-81v511h293zM564 511v-439h212v-72h-293v511h81z" />
    <glyph glyph-name="uniFB03" unicode="&#xfb03;" horiz-adv-x="1047" 
d="M368 511v-73h-212v-142h158v-72h-158v-224h-81v511h293zM776 511v-73h-212v-142h158v-72h-158v-224h-81v511h293zM972 511v-511h-81v511h81z" />
    <glyph glyph-name="uniFB04" unicode="&#xfb04;" horiz-adv-x="1214" 
d="M368 511v-73h-212v-142h158v-72h-158v-224h-81v511h293zM776 511v-73h-212v-142h158v-72h-158v-224h-81v511h293zM972 511v-439h212v-72h-293v511h81z" />
    <glyph glyph-name="uniFB06" unicode="&#xfb06;" horiz-adv-x="842" 
d="M210 523q51 0 119 -13l-1 -72q-80 14 -118 14q-84 0 -84 -64v-21q0 -25 12 -37t50 -23l75 -23q57 -17 80.5 -48.5t23.5 -88.5v-18q0 -70 -43 -105.5t-142 -35.5q-42 0 -124 17l2 73q75 -17 120 -17q57 0 81.5 15.5t24.5 48.5v26q0 24 -11.5 37t-41.5 22l-84 26
q-58 18 -81 48t-23 87v12q0 140 165 140zM812 511v-73h-154v-438h-81v438h-155v73h390z" />
    <glyph glyph-name="uniFEFF" unicode="&#xfeff;" horiz-adv-x="0" 
 />
    <glyph glyph-name="Ldot.latn_CAT" horiz-adv-x="450" 
d="M160 655v-580h260v-75h-345v655h85zM328 419q56 0 56 -46v-29q0 -45 -56 -45q-55 0 -55 45v29q0 46 55 46z" />
    <glyph glyph-name="parenleft.numr" horiz-adv-x="400" 
d="M267 685v-65q-35 -2 -44.5 -12t-9.5 -44v-330q0 -35 9.5 -45t44.5 -12v-65q-73 0 -103.5 25.5t-30.5 89.5v343q0 64 31 89.5t103 25.5z" />
    <glyph glyph-name="parenright.numr" horiz-adv-x="400" 
d="M133 620v65q72 0 103 -25.5t31 -89.5v-343q0 -64 -30.5 -89.5t-103.5 -25.5v65q35 2 44.5 12t9.5 45v330q0 34 -9.5 44t-44.5 12z" />
    <glyph glyph-name="plus.numr" horiz-adv-x="400" 
d="M235 523v-101h102v-65h-102v-101h-71v101h-102v65h102v101h71z" />
    <glyph glyph-name="zero.numr" horiz-adv-x="400" 
d="M199 609q143 0 143 -145v-147q0 -145 -143 -145q-142 0 -142 145v147q0 145 142 145zM199 543q-62 0 -62 -74v-157q0 -74 62 -74q63 0 63 74v157q0 74 -63 74z" />
    <glyph glyph-name="one.numr" horiz-adv-x="400" 
d="M256 602v-355h80v-66h-252v66h92v279h-1l-97 -39l-15 67l128 48h65z" />
    <glyph glyph-name="two.numr" horiz-adv-x="400" 
d="M179 610q148 0 148 -108v-18q0 -35 -13.5 -64.5t-49.5 -68.5l-97 -104h161v-66h-256v60l148 170q19 22 25 36t6 36v16q0 25 -16.5 36t-55.5 11q-47 0 -98 -17v65q59 16 98 16z" />
    <glyph glyph-name="three.numr" horiz-adv-x="400" 
d="M174 610q68 0 102.5 -28.5t34.5 -79.5v-7q0 -64 -60 -92q70 -28 70 -101v-7q0 -55 -38 -88.5t-107 -33.5q-38 0 -97 9v61q52 -8 99 -8q64 0 64 56v13q0 33 -17.5 48.5t-58.5 15.5h-58v59h58q37 0 52.5 15t15.5 47v13q0 47 -60 47q-30 0 -95 -10v62q59 9 95 9z" />
    <glyph glyph-name="four.numr" horiz-adv-x="400" 
d="M214 602l-93 -267h109v132h76v-132h56v-64h-56v-90h-77v90h-171l-20 42l104 289h72z" />
    <glyph glyph-name="five.numr" horiz-adv-x="400" 
d="M299 604v-66h-159v-113q40 25 93 25q49 0 76.5 -30t27.5 -91v-25q0 -67 -36 -99t-113 -32q-55 0 -117 17v62q63 -14 116 -14q35 0 53.5 17.5t18.5 48.5v28q0 26 -13 40t-35 14q-48 0 -90 -38h-58v256h236z" />
    <glyph glyph-name="six.numr" horiz-adv-x="400" 
d="M314 603v-64q-93 -1 -135 -30t-42 -87v-12q49 43 94 43q52 0 81.5 -31t29.5 -93v-27q0 -59 -37.5 -94t-108.5 -35q-67 0 -102.5 36t-35.5 105v89q0 200 256 200zM213 387q-26 0 -76 -41v-44q0 -65 62 -65q64 0 64 62v33q0 55 -50 55z" />
    <glyph glyph-name="seven.numr" horiz-adv-x="400" 
d="M340 601v-52l-174 -368h-79l165 354h-193v66h281z" />
    <glyph glyph-name="eight.numr" horiz-adv-x="400" 
d="M200 610q62 0 97 -29.5t35 -83.5v-2q0 -64 -47 -90q67 -30 67 -98v-10q0 -124 -152 -124q-75 0 -114 32t-39 92v10q0 69 67 98q-47 26 -47 90v2q0 53 35 83t98 30zM200 551q-61 0 -61 -50v-14q0 -30 12.5 -42t48.5 -12q35 0 47.5 12t12.5 42v14q0 50 -60 50zM200 377
q-37 0 -57.5 -18.5t-20.5 -49.5v-19q0 -26 20.5 -42.5t57.5 -16.5q36 0 56.5 17t20.5 42v19q0 31 -20.5 49.5t-56.5 18.5z" />
    <glyph glyph-name="nine.numr" horiz-adv-x="400" 
d="M203 609q65 0 102 -35t37 -103v-140q0 -158 -156 -158q-35 0 -101 12v63q57 -12 101 -12q40 0 58.5 20.5t18.5 65.5v50q-49 -43 -93 -43q-54 0 -83 31.5t-29 92.5v27q0 60 38 94.5t107 34.5zM201 545q-64 0 -64 -62v-33q0 -55 50 -55q26 0 76 41v44q0 65 -62 65z" />
    <glyph glyph-name="equal.numr" horiz-adv-x="400" 
d="M337 478v-65h-274v65h274zM337 364v-64h-274v64h274z" />
    <glyph glyph-name="minus.numr" horiz-adv-x="400" 
d="M336 421v-64h-273v64h273z" />
    <glyph glyph-name="parenleft.dnom" horiz-adv-x="400" 
d="M267 504v-65q-35 -2 -44.5 -12t-9.5 -44v-330q0 -35 9.5 -45t44.5 -12v-65q-73 0 -103.5 25.5t-30.5 89.5v343q0 64 31 89.5t103 25.5z" />
    <glyph glyph-name="parenright.dnom" horiz-adv-x="400" 
d="M133 439v65q72 0 103 -25.5t31 -89.5v-343q0 -64 -30.5 -89.5t-103.5 -25.5v65q35 2 44.5 12t9.5 45v330q0 34 -9.5 44t-44.5 12z" />
    <glyph glyph-name="plus.dnom" horiz-adv-x="400" 
d="M235 342v-101h102v-65h-102v-101h-71v101h-102v65h102v101h71z" />
    <glyph glyph-name="zero.dnom" horiz-adv-x="400" 
d="M199 428q143 0 143 -145v-147q0 -145 -143 -145q-142 0 -142 145v147q0 145 142 145zM199 362q-62 0 -62 -74v-157q0 -74 62 -74q63 0 63 74v157q0 74 -63 74z" />
    <glyph glyph-name="one.dnom" horiz-adv-x="400" 
d="M256 421v-355h80v-66h-252v66h92v279h-1l-97 -39l-15 67l128 48h65z" />
    <glyph glyph-name="two.dnom" horiz-adv-x="400" 
d="M179 429q148 0 148 -108v-18q0 -35 -13.5 -64.5t-49.5 -68.5l-97 -104h161v-66h-256v60l148 170q19 22 25 36t6 36v16q0 25 -16.5 36t-55.5 11q-47 0 -98 -17v65q59 16 98 16z" />
    <glyph glyph-name="three.dnom" horiz-adv-x="400" 
d="M174 429q68 0 102.5 -28.5t34.5 -79.5v-7q0 -64 -60 -92q70 -28 70 -101v-7q0 -55 -38 -88.5t-107 -33.5q-38 0 -97 9v61q52 -8 99 -8q64 0 64 56v13q0 33 -17.5 48.5t-58.5 15.5h-58v59h58q37 0 52.5 15t15.5 47v13q0 47 -60 47q-30 0 -95 -10v62q59 9 95 9z" />
    <glyph glyph-name="four.dnom" horiz-adv-x="400" 
d="M214 421l-93 -267h109v132h76v-132h56v-64h-56v-90h-77v90h-171l-20 42l104 289h72z" />
    <glyph glyph-name="five.dnom" horiz-adv-x="400" 
d="M299 423v-66h-159v-113q40 25 93 25q49 0 76.5 -30t27.5 -91v-25q0 -67 -36 -99t-113 -32q-55 0 -117 17v62q63 -14 116 -14q35 0 53.5 17.5t18.5 48.5v28q0 26 -13 40t-35 14q-48 0 -90 -38h-58v256h236z" />
    <glyph glyph-name="six.dnom" horiz-adv-x="400" 
d="M314 422v-64q-93 -1 -135 -30t-42 -87v-12q49 43 94 43q52 0 81.5 -31t29.5 -93v-27q0 -59 -37.5 -94t-108.5 -35q-67 0 -102.5 36t-35.5 105v89q0 200 256 200zM213 206q-26 0 -76 -41v-44q0 -65 62 -65q64 0 64 62v33q0 55 -50 55z" />
    <glyph glyph-name="seven.dnom" horiz-adv-x="400" 
d="M340 420v-52l-174 -368h-79l165 354h-193v66h281z" />
    <glyph glyph-name="eight.dnom" horiz-adv-x="400" 
d="M200 429q62 0 97 -29.5t35 -83.5v-2q0 -64 -47 -90q67 -30 67 -98v-10q0 -124 -152 -124q-75 0 -114 32t-39 92v10q0 69 67 98q-47 26 -47 90v2q0 53 35 83t98 30zM200 370q-61 0 -61 -50v-14q0 -30 12.5 -42t48.5 -12q35 0 47.5 12t12.5 42v14q0 50 -60 50zM200 196
q-37 0 -57.5 -18.5t-20.5 -49.5v-19q0 -26 20.5 -42.5t57.5 -16.5q36 0 56.5 17t20.5 42v19q0 31 -20.5 49.5t-56.5 18.5z" />
    <glyph glyph-name="nine.dnom" horiz-adv-x="400" 
d="M203 428q65 0 102 -35t37 -103v-140q0 -158 -156 -158q-35 0 -101 12v63q57 -12 101 -12q40 0 58.5 20.5t18.5 65.5v50q-49 -43 -93 -43q-54 0 -83 31.5t-29 92.5v27q0 60 38 94.5t107 34.5zM201 364q-64 0 -64 -62v-33q0 -55 50 -55q26 0 76 41v44q0 65 -62 65z" />
    <glyph glyph-name="equal.dnom" horiz-adv-x="400" 
d="M337 297v-65h-274v65h274zM337 183v-64h-274v64h274z" />
    <glyph glyph-name="minus.dnom" horiz-adv-x="400" 
d="M336 240v-64h-273v64h273z" />
    <glyph glyph-name="space.frac" horiz-adv-x="60" 
 />
    <glyph glyph-name="quotedbl.osf" horiz-adv-x="315" 
d="M130 683v-254h-85v254h85zM270 683v-254h-85v254h85z" />
    <glyph glyph-name="numbersign.osf" horiz-adv-x="546" 
d="M431 523v-110h80v-70h-80v-163h80v-70h-80v-110h-85v110h-146v-110h-85v110h-80v70h80v163h-80v70h80v110h85v-110h146v110h85zM346 343h-146v-163h146v163z" />
    <glyph glyph-name="dollar.osf" horiz-adv-x="387" 
d="M237 605v-84q28 -2 92 -13l-1 -72q-80 16 -128 16q-94 0 -94 -64v-21q0 -24 15 -36.5t57 -23.5l75 -23q61 -18 87.5 -49.5t26.5 -87.5v-18q0 -116 -130 -136v-87h-75v82q-47 3 -123 19l2 73q84 -19 129 -19q116 0 116 64v26q0 23 -14 35.5t-49 23.5l-84 26
q-63 20 -88.5 49.5t-25.5 85.5v12q0 124 137 138v84h75z" />
    <glyph glyph-name="percent.osf" horiz-adv-x="860" 
d="M203 625q78 0 117.5 -41.5t39.5 -118.5v-30q0 -77 -39.5 -118.5t-117.5 -41.5t-118 41.5t-40 118.5v30q0 77 40 118.5t118 41.5zM649 613l-335 -613h-87l335 613h87zM203 550q-73 0 -73 -85v-30q0 -85 73 -85q72 0 72 85v30q0 45 -17.5 65t-54.5 20zM673 338
q78 0 117.5 -41.5t39.5 -118.5v-30q0 -77 -39.5 -118.5t-117.5 -41.5t-118 41.5t-40 118.5v30q0 77 40 118.5t118 41.5zM673 263q-73 0 -73 -85v-30q0 -85 73 -85q72 0 72 85v30q0 45 -17.5 65t-54.5 20z" />
    <glyph glyph-name="quotesingle.osf" horiz-adv-x="175" 
d="M130 683v-254h-85v254h85z" />
    <glyph glyph-name="plus.osf" horiz-adv-x="390" 
d="M233 448v-152h140v-71h-140v-152h-76v152h-140v71h140v152h76z" />
    <glyph glyph-name="zero.osf" horiz-adv-x="490" 
d="M245 523q90 0 140 -51.5t50 -153.5v-125q0 -101 -50.5 -153t-141.5 -52q-90 0 -139 51.5t-49 153.5v125q0 102 50 153.5t140 51.5zM245 451q-105 0 -105 -125v-141q0 -63 28 -94t77 -31t77 31t28 94v141q0 63 -28 94t-77 31z" />
    <glyph glyph-name="one.osf" horiz-adv-x="307" 
d="M242 511v-511h-85v429h-2l-133 -57l-17 73l162 66h75z" />
    <glyph glyph-name="two.osf" horiz-adv-x="384" 
d="M151 523q189 0 189 -153v-14q0 -97 -89 -175l-124 -109h230v-72h-347v65l200 186q26 25 35.5 47.5t9.5 56.5v12q0 45 -24.5 65.5t-79.5 20.5q-56 0 -126 -22v71q77 21 126 21z" />
    <glyph glyph-name="three.osf" horiz-adv-x="372" 
d="M146 523q86 0 132 -41t46 -112v-14q0 -95 -82 -133q46 -17 70.5 -54.5t24.5 -86.5v-27q0 -188 -317 -189v73q134 0 183 28.5t49 91.5v25q0 102 -108 102h-89v66h89q95 0 95 99v27q0 78 -93 78q-44 0 -126 -14v68q82 13 126 13z" />
    <glyph glyph-name="four.osf" horiz-adv-x="432" 
d="M361 511v-439h71v-72h-71v-115h-83v115h-285v59l273 452h95zM279 401l-193 -329h193v329z" />
    <glyph glyph-name="five.osf" horiz-adv-x="421" 
d="M351 511v-72h-226v-199q56 44 138 44q69 0 103.5 -40.5t34.5 -129.5v-25q0 -118 -76.5 -170t-260.5 -53v73q101 0 157 17t75.5 47.5t19.5 84.5v29q0 96 -74 96t-132 -65h-65v363h306z" />
    <glyph glyph-name="six.osf" horiz-adv-x="470" 
d="M372 606v-73q-123 -2 -177.5 -40.5t-54.5 -114.5v-56q71 67 134 67q72 0 111.5 -44.5t39.5 -132.5v-39q0 -91 -47.5 -138t-138.5 -47q-89 0 -136.5 49.5t-47.5 140.5v184q0 239 317 244zM259 315q-48 0 -119 -65v-77q0 -113 99 -113q101 0 101 108v47q0 49 -21.5 74.5
t-59.5 25.5z" />
    <glyph glyph-name="seven.osf" horiz-adv-x="384" 
d="M374 511v-58l-252 -567h-91l252 553v2h-288v70h379z" />
    <glyph glyph-name="eight.osf" horiz-adv-x="460" 
d="M230 613q80 0 125.5 -41t45.5 -117v-5q0 -91 -65 -129q89 -41 89 -143v-15q0 -83 -50.5 -129t-144.5 -46t-144.5 46t-50.5 129v15q0 104 89 143q-65 38 -65 129v5q0 75 45.5 116.5t125.5 41.5zM230 547q-88 0 -88 -87v-19q0 -47 20 -67.5t68 -20.5t68 20.5t20 67.5v19
q0 87 -88 87zM230 287q-52 0 -81 -28t-29 -79v-25q0 -44 28.5 -70t81.5 -26t81.5 26t28.5 70v25q0 51 -29 79t-81 28z" />
    <glyph glyph-name="nine.osf" horiz-adv-x="470" 
d="M231 523q90 0 137 -48.5t47 -141.5v-220q0 -240 -204 -240q-59 0 -129 16v70q85 -16 129 -16q60 0 89.5 39.5t29.5 123.5v63q-70 -67 -136 -67q-71 0 -110 45t-39 132v59q0 90 47 137.5t139 47.5zM231 451q-101 0 -101 -108v-67q0 -49 21 -74.5t60 -25.5q48 0 119 65v97
q0 113 -99 113z" />
    <glyph glyph-name="less.osf" horiz-adv-x="390" 
d="M375 454v-83l-276 -114l276 -115v-83l-360 160v75z" />
    <glyph glyph-name="equal.osf" horiz-adv-x="394" 
d="M374 381v-70h-354v70h354zM374 210v-70h-354v70h354z" />
    <glyph glyph-name="greater.osf" horiz-adv-x="390" 
d="M15 454l360 -160v-75l-360 -160v83l276 115l-276 114v83z" />
    <glyph glyph-name="asciitilde.osf" horiz-adv-x="394" 
d="M120 312q36 0 80 -14t76 -14q16 0 40.5 6t41.5 12l16 7v-70q-42 -28 -100 -28q-36 0 -79 14t-77 14q-16 0 -40.5 -6.5t-41.5 -12.5l-16 -6v70q42 28 100 28z" />
    <glyph glyph-name="cent.osf" horiz-adv-x="390" 
d="M260 576v-77q26 -1 78 -10l-2 -75q-55 11 -98 11q-98 0 -98 -100v-161q0 -101 98 -101q43 0 98 11l2 -75q-52 -9 -78 -10v-77h-75v81q-130 23 -130 177v148q0 154 130 177v81h75z" />
    <glyph glyph-name="sterling.osf" horiz-adv-x="387" 
d="M252 524q44 0 95 -15v-68q-43 13 -82 13q-52 0 -73.5 -19.5t-21.5 -61.5v-52h95v-70h-95v-67q0 -78 -41 -110h263v-74h-347v60q40 49 40 106v85h-70v70h70v47q0 80 41 118t126 38z" />
    <glyph glyph-name="currency.osf" horiz-adv-x="470" 
d="M394 483l56 -56l-61 -60q17 -35 17 -84v-20q0 -49 -21 -90l65 -64l-56 -56l-62 63q-40 -24 -99 -24q-57 0 -97 22l-60 -61l-56 56l62 61q-23 41 -23 93v20q0 49 19 87l-58 57l56 56l54 -55q43 26 103 26q61 0 105 -28zM233 381q-47 0 -69.5 -27t-22.5 -71v-20
q0 -99 92 -99q91 0 91 99v20q0 98 -91 98z" />
    <glyph glyph-name="yen.osf" horiz-adv-x="410" 
d="M405 511l-126 -265h63v-70h-96v-36h96v-70h-96v-70h-82v70h-96v70h96v36h-96v70h62l-125 265h92l109 -260l109 260h90z" />
    <glyph glyph-name="section.osf" horiz-adv-x="418" 
d="M222 695q45 0 104 -12l-2 -71q-53 12 -98 12q-47 0 -65.5 -14t-18.5 -46v-33q0 -39 41 -55l107 -41q108 -41 108 -120v-31q0 -46 -25 -79t-69 -42q29 -11 46.5 -39t17.5 -65v-38q0 -71 -41 -105.5t-134 -34.5q-50 0 -123 15l2 75q66 -15 121 -15q51 0 69.5 12.5
t18.5 44.5v33q0 50 -41 64l-107 37q-58 20 -83 48t-25 73v24q0 52 28 88t70 41q-31 11 -49.5 39.5t-18.5 67.5v28q0 71 38.5 105t128.5 34zM250 367l-37 11q-48 -1 -74.5 -24.5t-26.5 -59.5v-25q0 -17 13 -29t48 -24l46 -15q45 2 68.5 24t23.5 57v23q0 44 -61 62z" />
    <glyph glyph-name="logicalnot.osf" horiz-adv-x="390" 
d="M375 295v-222h-76v152h-285v70h361z" />
    <glyph glyph-name="degree.osf" horiz-adv-x="390" 
d="M195 695q159 0 159 -167v-22q0 -167 -159 -167q-79 0 -119.5 43t-40.5 124v22q0 81 40.5 124t119.5 43zM195 626q-83 0 -83 -98v-22q0 -98 83 -98q82 0 82 98v22q0 98 -82 98z" />
    <glyph glyph-name="plusminus.osf" horiz-adv-x="397" 
d="M237 448v-152h140v-71h-140v-112h-76v112h-140v71h140v152h76zM376 70v-70h-356v70h356z" />
    <glyph glyph-name="mu.osf" horiz-adv-x="480" 
d="M410 488v-488h-80v70q-56 -82 -125 -82q-27 0 -53 16v-189h-82v673h85v-318q0 -103 62 -103q60 0 108 81v340h85z" />
    <glyph glyph-name="multiply.osf" horiz-adv-x="390" 
d="M302 418l50 -50l-106 -106l108 -108l-54 -53l-108 107l-105 -105l-50 50l105 105l-107 108l53 54l108 -108z" />
    <glyph glyph-name="divide.osf" horiz-adv-x="394" 
d="M197 449q49 0 49 -44v-17q0 -43 -49 -43q-48 0 -48 43v17q0 44 48 44zM374 295v-70h-354v70h354zM197 175q49 0 49 -44v-17q0 -43 -49 -43q-48 0 -48 43v17q0 44 48 44z" />
    <glyph glyph-name="florin.osf" horiz-adv-x="313" 
d="M245 613q33 0 63 -7v-68q-30 5 -62 5q-66 0 -66 -81v-56h100v-70h-100v-521h-85v521h-70v70h70v51q1 156 150 156z" />
    <glyph glyph-name="dagger.osf" horiz-adv-x="379" 
d="M232 523v-146h132v-80h-132v-297h-85v297h-132v80h132v146h85z" />
    <glyph glyph-name="daggerdbl.osf" horiz-adv-x="399" 
d="M242 523v-126h132v-80h-132v-70h132v-80h-132v-167h-85v167h-132v80h132v70h-132v80h132v126h85z" />
    <glyph glyph-name="perthousand.osf" horiz-adv-x="1240" 
d="M203 625q78 0 117.5 -41.5t39.5 -118.5v-30q0 -77 -39.5 -118.5t-117.5 -41.5t-118 41.5t-40 118.5v30q0 77 40 118.5t118 41.5zM649 613l-335 -613h-87l335 613h87zM203 550q-73 0 -73 -85v-30q0 -85 73 -85q72 0 72 85v30q0 45 -17.5 65t-54.5 20zM673 338
q78 0 117.5 -41.5t39.5 -118.5v-30q0 -77 -39.5 -118.5t-117.5 -41.5t-118 41.5t-40 118.5v30q0 77 40 118.5t118 41.5zM1053 338q78 0 117.5 -41.5t39.5 -118.5v-30q0 -77 -39.5 -118.5t-117.5 -41.5t-118 41.5t-40 118.5v30q0 77 40 118.5t118 41.5zM673 263
q-73 0 -73 -85v-30q0 -85 73 -85q72 0 72 85v30q0 45 -17.5 65t-54.5 20zM1053 263q-73 0 -73 -85v-30q0 -85 73 -85q72 0 72 85v30q0 45 -17.5 65t-54.5 20z" />
    <glyph glyph-name="Euro.osf" horiz-adv-x="391" 
d="M252 523q47 0 121 -13l-1 -71q-78 13 -116 13q-57 0 -79.5 -20.5t-22.5 -69.5v-16h183l-15 -70h-168v-55h156l-15 -70h-141v-2q0 -48 23.5 -68t81.5 -20q51 0 116 13l1 -73q-82 -13 -121 -13q-182 0 -182 160v3h-73l15 70h58v55h-67l15 70h52v17q0 160 179 160z" />
    <glyph glyph-name="Omega.osf" horiz-adv-x="578" 
d="M289 667q110 0 164.5 -55t54.5 -157v-214q0 -61 -13 -96.5t-50 -64.5h73v-80h-200v77h9q44 0 70 38t26 99v251q0 63 -35 96t-99 33t-99 -33t-35 -96v-251q0 -61 26 -99t70 -38h9v-77h-200v80h73q-37 29 -50 64.5t-13 96.5v214q0 102 54.5 157t164.5 55z" />
    <glyph glyph-name="partialdiff.osf" horiz-adv-x="461" 
d="M95 631v64q149 0 227.5 -89t78.5 -266v-170q0 -88 -44 -135t-129 -47q-90 0 -131.5 41t-41.5 128v115q0 82 35 124.5t98 42.5q73 0 128 -78v25q0 114 -62.5 179.5t-158.5 65.5zM205 363q-65 0 -65 -103v-112q0 -89 88 -89t88 89v133q-49 82 -111 82z" />
    <glyph glyph-name="Delta.osf" horiz-adv-x="530" 
d="M315 655l191 -598v-57h-482v55l190 600h101zM265 577l-150 -501h294z" />
    <glyph glyph-name="product.osf" horiz-adv-x="575" 
d="M580 655v-80h-90v-760h-85v760h-235v-760h-85v760h-90v80h585z" />
    <glyph glyph-name="summation.osf" horiz-adv-x="399" 
d="M394 655v-77h-288l189 -322v-39l-192 -325h291v-77h-389v67l203 354l-203 352v67h389z" />
    <glyph glyph-name="minus.osf" horiz-adv-x="394" 
d="M374 295v-70h-354v70h354z" />
    <glyph glyph-name="radical.osf" horiz-adv-x="480" 
d="M560 683v-70h-84l-202 -613h-110l-144 488h90l110 -426l195 621h145z" />
    <glyph glyph-name="infinity.osf" horiz-adv-x="517" 
d="M364 392q71 0 107 -34t36 -96v-11q0 -62 -36 -96t-107 -34q-70 0 -105 46q-35 -46 -106 -46t-107 34t-36 96v11q0 62 36 96t107 34t106 -46q35 46 105 46zM153 322q-63 0 -63 -60v-11q0 -60 63 -60t63 60v11q0 60 -63 60zM364 322q-63 0 -63 -60v-11q0 -60 63 -60t63 60
v11q0 60 -63 60z" />
    <glyph glyph-name="integral.osf" horiz-adv-x="316" 
d="M263 695q33 0 63 -7v-68q-30 5 -62 5q-66 0 -66 -81v-581q0 -159 -150 -159q-33 0 -63 7v68q30 -5 62 -5q66 0 66 81v581q0 159 150 159z" />
    <glyph glyph-name="approxequal.osf" horiz-adv-x="394" 
d="M120 394q36 0 80 -14t76 -14q16 0 40.5 6t41.5 12l16 7v-70q-42 -28 -100 -28q-36 0 -79 14t-77 14q-16 0 -40.5 -6.5t-41.5 -12.5l-16 -6v70q42 28 100 28zM120 244q36 0 80 -14t76 -14q16 0 40.5 6t41.5 12l16 7v-70q-42 -28 -100 -28q-36 0 -79 14t-77 14
q-16 0 -40.5 -6.5t-41.5 -12.5l-16 -6v70q42 28 100 28z" />
    <glyph glyph-name="notequal.osf" horiz-adv-x="394" 
d="M349 444l-40 -63h64v-70h-107l-63 -101h170v-70h-214l-40 -65h-76l40 65h-64v70h108l63 101h-171v70h214l40 63h76z" />
    <glyph glyph-name="lessequal.osf" horiz-adv-x="390" 
d="M375 454v-83l-276 -94l276 -95v-83l-360 140v75zM375 70v-70h-360v70h360z" />
    <glyph glyph-name="greaterequal.osf" horiz-adv-x="390" 
d="M15 454l360 -140v-75l-360 -140v83l276 95l-276 94v83zM375 70v-70h-360v70h360z" />
    <glyph glyph-name="lozenge.osf" horiz-adv-x="538" 
d="M303 683l230 -341l-230 -342h-68l-230 342l230 341h68zM269 593l-162 -251l162 -252l162 252z" />
    <glyph glyph-name="quotedbl.tf" 
d="M135 683v-254h-85v254h85zM275 683v-254h-85v254h85z" />
    <glyph glyph-name="numbersign.tf" 
d="M443 655v-125h80v-70h-80v-265h80v-70h-80v-125h-85v125h-156v-125h-85v125h-80v70h80v265h-80v70h80v125h85v-125h156v125h85zM358 460h-156v-265h156v265z" />
    <glyph glyph-name="dollar.tf" 
d="M316 749v-84q38 -4 102 -17l-2 -75q-87 19 -134 19q-104 0 -104 -93v-26q0 -36 15 -54t61 -33l93 -31q64 -21 90.5 -60.5t26.5 -110.5v-19q0 -74 -34.5 -117t-113.5 -55v-87h-75v82q-46 2 -133 21l2 77q87 -21 137 -21q71 0 101.5 23t30.5 70v33q0 64 -65 86l-103 34
q-66 22 -92 59t-26 110v11q0 155 148 174v84h75z" />
    <glyph glyph-name="percent.tf" horiz-adv-x="846" 
d="M208 667q78 0 117.5 -41.5t39.5 -118.5v-30q0 -77 -39.5 -118.5t-117.5 -41.5t-118 41.5t-40 118.5v30q0 77 40 118.5t118 41.5zM653 655l-358 -655h-87l358 655h87zM208 592q-73 0 -73 -85v-30q0 -85 73 -85q72 0 72 85v30q0 45 -17.5 65t-54.5 20zM654 338
q78 0 117.5 -41.5t39.5 -118.5v-30q0 -77 -39.5 -118.5t-117.5 -41.5t-118 41.5t-40 118.5v30q0 77 40 118.5t118 41.5zM654 263q-73 0 -73 -85v-30q0 -85 73 -85q72 0 72 85v30q0 45 -17.5 65t-54.5 20z" />
    <glyph glyph-name="quotesingle.tf" 
d="M135 683v-254h-85v254h85z" />
    <glyph glyph-name="plus.tf" 
d="M318 508v-152h140v-71h-140v-152h-76v152h-140v71h140v152h76z" />
    <glyph glyph-name="zero.tf" 
d="M280 667q94 0 143.5 -51.5t49.5 -153.5v-269q0 -102 -49.5 -153.5t-143.5 -51.5t-143.5 51.5t-49.5 153.5v269q0 102 49.5 153.5t143.5 51.5zM280 595q-108 0 -108 -125v-285q0 -125 108 -125t108 125v285q0 125 -108 125z" />
    <glyph glyph-name="one.tf" 
d="M365 655v-582h120v-73h-341v73h136v500h-2l-141 -57l-17 73l170 66h75z" />
    <glyph glyph-name="two.tf" 
d="M250 667q191 0 191 -156v-26q0 -44 -18 -88t-67 -109l-163 -215h260v-73h-358v65l214 293q47 65 47 127v21q0 47 -25.5 68t-80.5 21q-60 0 -140 -25v73q88 24 140 24z" />
    <glyph glyph-name="three.tf" 
d="M250 667q89 0 135.5 -41.5t46.5 -118.5v-27q0 -98 -79 -136q42 -18 67 -56.5t25 -88.5v-32q0 -81 -49.5 -130t-142.5 -49q-44 0 -138 15v71q88 -15 138 -15q51 0 79 27t28 77v37q0 106 -107 106h-103v68h103q48 0 71 25t23 79v34q0 85 -97 85q-30 0 -135 -18v71
q107 17 135 17z" />
    <glyph glyph-name="four.tf" 
d="M293 655l-139 -456h190v256h82v-256h74v-70h-74v-129h-83v129h-255l-22 45l150 481h77z" />
    <glyph glyph-name="five.tf" 
d="M434 655v-73h-242v-206q57 46 144 46q146 0 146 -180v-56q0 -97 -51.5 -147.5t-153.5 -50.5q-72 0 -157 24v69q94 -21 155 -21q59 0 90.5 32.5t31.5 93.5v59q0 52 -22 79t-60 27q-82 0 -140 -65h-65v369h324z" />
    <glyph glyph-name="six.tf" 
d="M420 661v-73q-129 -2 -188 -49t-59 -126v-56q71 67 147 67q74 0 113 -46.5t39 -137.5v-61q0 -92 -49.5 -141.5t-143.5 -49.5q-93 0 -142 51t-49 144v204q0 129 83 200.5t249 73.5zM299 350q-55 0 -126 -65v-107q0 -118 106 -118q108 0 108 114v69q0 52 -23 79.5t-65 27.5
z" />
    <glyph glyph-name="seven.tf" 
d="M467 655v-58l-245 -597h-91l245 579v2h-287v74h378z" />
    <glyph glyph-name="eight.tf" 
d="M280 667q81 0 130 -42.5t49 -120.5v-20q0 -43 -19 -79t-51 -55q43 -20 68.5 -60.5t25.5 -91.5v-30q0 -84 -54 -132t-149 -48t-149 47.5t-54 132.5v30q0 51 25 92t69 60q-32 19 -51 55t-19 79v21q0 77 49 119.5t130 42.5zM280 601q-51 0 -73.5 -23t-22.5 -73v-30
q0 -50 22 -71.5t74 -21.5t74 21.5t22 71.5v30q0 52 -22.5 74t-73.5 22zM280 316q-55 0 -86.5 -31t-31.5 -85v-40q0 -47 30.5 -74t87.5 -27q56 0 87 27.5t31 73.5v40q0 55 -31.5 85.5t-86.5 30.5z" />
    <glyph glyph-name="nine.tf" 
d="M278 667q93 0 142 -51t49 -144v-264q0 -114 -52.5 -167t-160.5 -53q-52 0 -136 19v71q101 -19 136 -19q67 0 97.5 33.5t30.5 109.5v96q-71 -67 -147 -67q-74 0 -113 46.5t-39 137.5v61q0 92 49.5 141.5t143.5 49.5zM278 595q-108 0 -108 -114v-69q0 -52 23 -79.5
t65 -27.5q55 0 126 65v107q0 118 -106 118z" />
    <glyph glyph-name="less.tf" 
d="M460 494v-83l-276 -114l276 -115v-83l-360 160v75z" />
    <glyph glyph-name="equal.tf" 
d="M457 441v-70h-354v70h354zM457 270v-70h-354v70h354z" />
    <glyph glyph-name="greater.tf" 
d="M100 514l360 -160v-75l-360 -160v83l276 115l-276 114v83z" />
    <glyph glyph-name="asciitilde.tf" 
d="M203 392q36 0 80 -14t76 -14q16 0 40.5 6t40.5 12l17 7v-70q-42 -28 -100 -28q-36 0 -79 14t-77 14q-16 0 -40.5 -6.5t-40.5 -12.5l-17 -6v70q42 28 100 28z" />
    <glyph glyph-name="cent.tf" 
d="M345 576v-77q26 -1 78 -10l-2 -75q-55 11 -98 11q-98 0 -98 -100v-161q0 -101 98 -101q43 0 98 11l2 -75q-52 -9 -78 -10v-77h-75v81q-130 23 -130 177v148q0 154 130 177v81h75z" />
    <glyph glyph-name="sterling.tf" 
d="M345 667q48 0 102 -16v-68q-47 14 -89 14q-54 0 -74 -20.5t-20 -70.5v-112h111v-70h-111v-130q0 -87 -41 -120h274v-74h-358v60q40 49 40 116v148h-70v70h70v107q0 86 39 126t127 40z" />
    <glyph glyph-name="currency.tf" 
d="M434 553l56 -56l-61 -60q17 -35 17 -84v-20q0 -49 -21 -90l65 -64l-56 -56l-62 63q-40 -24 -99 -24q-57 0 -97 22l-60 -61l-56 56l62 61q-23 41 -23 93v20q0 49 19 87l-58 57l56 56l54 -55q43 26 103 26q61 0 105 -28zM273 451q-47 0 -69.5 -27t-22.5 -71v-20
q0 -99 92 -99q91 0 91 99v20q0 98 -91 98z" />
    <glyph glyph-name="yen.tf" 
d="M512 655l-163 -361h72v-72h-99v-40h99v-72h-99v-110h-85v110h-100v72h100v40h-100v72h72l-162 361h97l136 -350l137 350h95z" />
    <glyph glyph-name="section.tf" 
d="M290 695q45 0 104 -12l-2 -71q-52 12 -98 12q-47 0 -65.5 -14t-18.5 -46v-33q0 -39 41 -55l107 -41q108 -41 108 -120v-31q0 -46 -25 -79t-69 -42q29 -11 46.5 -39t17.5 -65v-38q0 -71 -41 -105.5t-134 -34.5q-50 0 -123 15l2 75q66 -15 121 -15q51 0 69.5 12.5
t18.5 44.5v33q0 50 -41 64l-107 37q-58 20 -83 48t-25 73v24q0 52 28 88t70 41q-31 11 -49.5 39.5t-18.5 67.5v28q0 71 38.5 105t128.5 34zM318 367l-37 11q-48 -1 -74.5 -24.5t-26.5 -59.5v-25q0 -17 13 -29t48 -24l46 -15q45 2 68.5 24t23.5 57v23q0 44 -61 62z" />
    <glyph glyph-name="logicalnot.tf" 
d="M460 355v-222h-76v152h-285v70h361z" />
    <glyph glyph-name="degree.tf" 
d="M195 695q159 0 159 -167v-22q0 -167 -159 -167q-79 0 -119.5 43t-40.5 124v22q0 81 40.5 124t119.5 43zM195 626q-83 0 -83 -98v-22q0 -98 83 -98q82 0 82 98v22q0 98 -82 98z" />
    <glyph glyph-name="plusminus.tf" 
d="M318 508v-152h140v-71h-140v-152h-76v152h-140v71h140v152h76zM457 70v-70h-356v70h356z" />
    <glyph glyph-name="mu.tf" 
d="M450 488v-488h-80v70q-56 -82 -125 -82q-27 0 -53 16v-189h-82v673h85v-318q0 -103 62 -103q60 0 108 81v340h85z" />
    <glyph glyph-name="multiply.tf" 
d="M387 478l50 -50l-106 -106l108 -108l-54 -53l-108 107l-105 -105l-50 50l105 105l-107 108l53 54l108 -108z" />
    <glyph glyph-name="divide.tf" 
d="M280 509q49 0 49 -44v-17q0 -43 -49 -43q-48 0 -48 43v17q0 44 48 44zM457 355v-70h-354v70h354zM280 235q49 0 49 -44v-17q0 -43 -49 -43q-48 0 -48 43v17q0 44 48 44z" />
    <glyph glyph-name="florin.tf" 
d="M358 667q33 0 63 -7v-68q-30 5 -62 5q-66 0 -66 -81v-56h100v-70h-100v-575h-85v575h-70v70h70v51q1 156 150 156z" />
    <glyph glyph-name="uni2007.tf" 
 />
    <glyph glyph-name="dagger.tf" 
d="M322 655v-167h152v-80h-152v-408h-85v408h-152v80h152v167h85z" />
    <glyph glyph-name="daggerdbl.tf" 
d="M322 655v-167h152v-80h-152v-140h152v-80h-152v-188h-85v188h-152v80h152v140h-152v80h152v167h85z" />
    <glyph glyph-name="perthousand.tf" horiz-adv-x="1226" 
d="M208 667q78 0 117.5 -41.5t39.5 -118.5v-30q0 -77 -39.5 -118.5t-117.5 -41.5t-118 41.5t-40 118.5v30q0 77 40 118.5t118 41.5zM653 655l-358 -655h-87l358 655h87zM208 592q-73 0 -73 -85v-30q0 -85 73 -85q72 0 72 85v30q0 45 -17.5 65t-54.5 20zM654 338
q78 0 117.5 -41.5t39.5 -118.5v-30q0 -77 -39.5 -118.5t-117.5 -41.5t-118 41.5t-40 118.5v30q0 77 40 118.5t118 41.5zM1034 338q78 0 117.5 -41.5t39.5 -118.5v-30q0 -77 -39.5 -118.5t-117.5 -41.5t-118 41.5t-40 118.5v30q0 77 40 118.5t118 41.5zM654 263
q-73 0 -73 -85v-30q0 -85 73 -85q72 0 72 85v30q0 45 -17.5 65t-54.5 20zM1034 263q-73 0 -73 -85v-30q0 -85 73 -85q72 0 72 85v30q0 45 -17.5 65t-54.5 20z" />
    <glyph glyph-name="Euro.tf" 
d="M353 667q37 0 138 -16l-2 -75q-88 16 -136 16q-66 0 -94.5 -28t-28.5 -93v-40h227l-15 -70h-212v-67h200l-15 -70h-185v-39q0 -64 28.5 -92t94.5 -28q48 0 136 16l2 -77q-101 -16 -138 -16q-112 0 -160 49.5t-48 152.5v34h-83l15 70h68v67h-77l15 70h62v34q0 104 48 153
t160 49z" />
    <glyph glyph-name="partialdiff.tf" 
d="M147 631v64q149 0 227.5 -89t78.5 -266v-170q0 -88 -44 -135t-129 -47q-90 0 -131.5 41t-41.5 128v115q0 82 35 124.5t98 42.5q73 0 128 -78v25q0 114 -62.5 179.5t-158.5 65.5zM257 363q-65 0 -65 -103v-112q0 -89 88 -89t88 89v133q-49 82 -111 82z" />
    <glyph glyph-name="product.tf" 
d="M572 655v-80h-90v-760h-85v760h-235v-760h-85v760h-90v80h585z" />
    <glyph glyph-name="summation.tf" 
d="M474 655v-77h-288l189 -322v-39l-192 -325h291v-77h-389v67l203 354l-203 352v67h389z" />
    <glyph glyph-name="minus.tf" 
d="M457 355v-70h-354v70h354z" />
    <glyph glyph-name="radical.tf" 
d="M634 758v-70h-84l-227 -688h-110l-158 543h90l124 -481l220 696h145z" />
    <glyph glyph-name="infinity.tf" 
d="M385 452q71 0 107 -34t36 -96v-11q0 -62 -36 -96t-107 -34q-70 0 -105 46q-35 -46 -106 -46t-107 34t-36 96v11q0 62 36 96t107 34t106 -46q35 46 105 46zM174 382q-63 0 -63 -60v-11q0 -60 63 -60t63 60v11q0 60 -63 60zM385 382q-63 0 -63 -60v-11q0 -60 63 -60t63 60
v11q0 60 -63 60z" />
    <glyph glyph-name="integral.tf" 
d="M388 750q33 0 63 -7v-68q-30 5 -62 5q-66 0 -66 -81v-636q0 -159 -150 -159q-33 0 -63 7v68q30 -5 62 -5q66 0 66 81v636q0 159 150 159z" />
    <glyph glyph-name="approxequal.tf" 
d="M203 454q36 0 80 -14t76 -14q16 0 40.5 6t40.5 12l17 7v-70q-42 -28 -100 -28q-36 0 -79 14t-77 14q-16 0 -40.5 -6.5t-40.5 -12.5l-17 -6v70q42 28 100 28zM203 304q36 0 80 -14t76 -14q16 0 40.5 6t40.5 12l17 7v-70q-42 -28 -100 -28q-36 0 -79 14t-77 14
q-16 0 -40.5 -6.5t-40.5 -12.5l-17 -6v70q42 28 100 28z" />
    <glyph glyph-name="notequal.tf" 
d="M433 504l-40 -63h64v-70h-107l-63 -101h170v-70h-214l-40 -65h-76l40 65h-64v70h108l63 101h-171v70h214l40 63h76z" />
    <glyph glyph-name="lessequal.tf" 
d="M460 514v-83l-276 -114l276 -115v-83l-360 160v75zM460 70v-70h-360v70h360z" />
    <glyph glyph-name="greaterequal.tf" 
d="M100 514l360 -160v-75l-360 -160v83l276 115l-276 114v83zM460 70v-70h-360v70h360z" />
    <glyph glyph-name="lozenge.tf" 
d="M314 683l230 -341l-230 -342h-68l-230 342l230 341h68zM280 593l-162 -251l162 -252l162 252z" />
    <glyph glyph-name="quotedbl.tosf" 
d="M135 683v-254h-85v254h85zM275 683v-254h-85v254h85z" />
    <glyph glyph-name="numbersign.tosf" 
d="M438 523v-110h80v-70h-80v-163h80v-70h-80v-110h-85v110h-146v-110h-85v110h-80v70h80v163h-80v70h80v110h85v-110h146v110h85zM353 343h-146v-163h146v163z" />
    <glyph glyph-name="dollar.tosf" 
d="M325 605v-84q28 -2 92 -13l-1 -72q-80 16 -128 16q-94 0 -94 -64v-21q0 -24 14.5 -35.5t57.5 -24.5l75 -23q61 -18 87.5 -49.5t26.5 -87.5v-18q0 -116 -130 -136v-87h-75v82q-47 3 -123 19l2 73q84 -19 129 -19q116 0 116 64v26q0 23 -14 35.5t-49 23.5l-84 26
q-63 20 -88.5 49.5t-25.5 85.5v12q0 124 137 138v84h75z" />
    <glyph glyph-name="percent.tosf" horiz-adv-x="870" 
d="M200 625q78 0 117.5 -41.5t39.5 -118.5v-30q0 -77 -39.5 -118.5t-117.5 -41.5t-118 41.5t-40 118.5v30q0 77 40 118.5t118 41.5zM646 613l-335 -613h-87l335 613h87zM200 550q-73 0 -73 -85v-30q0 -85 73 -85q72 0 72 85v30q0 45 -17.5 65t-54.5 20zM670 338
q78 0 117.5 -41.5t39.5 -118.5v-30q0 -77 -39.5 -118.5t-117.5 -41.5t-118 41.5t-40 118.5v30q0 77 40 118.5t118 41.5zM670 263q-73 0 -73 -85v-30q0 -85 73 -85q72 0 72 85v30q0 45 -17.5 65t-54.5 20z" />
    <glyph glyph-name="quotesingle.tosf" 
d="M135 683v-254h-85v254h85z" />
    <glyph glyph-name="plus.tosf" 
d="M318 448v-152h140v-71h-140v-152h-76v152h-140v71h140v152h76z" />
    <glyph glyph-name="zero.tosf" 
d="M280 523q90 0 140 -51.5t50 -153.5v-125q0 -101 -50.5 -153t-141.5 -52q-90 0 -139 51.5t-49 153.5v125q0 102 50 153.5t140 51.5zM280 451q-105 0 -105 -125v-141q0 -63 28 -94t77 -31t77 31t28 94v141q0 63 -28 94t-77 31z" />
    <glyph glyph-name="one.tosf" 
d="M365 511v-441h112v-70h-325v70h128v359h-2l-133 -57l-17 73l162 66h75z" />
    <glyph glyph-name="two.tosf" 
d="M247 523q189 0 189 -153v-14q0 -97 -89 -175l-124 -109h230v-72h-347v65l200 186q26 25 35.5 47.5t9.5 56.5v12q0 45 -24.5 65.5t-79.5 20.5q-56 0 -126 -22v71q77 21 126 21z" />
    <glyph glyph-name="three.tosf" 
d="M249 523q86 0 132 -41t46 -112v-14q0 -95 -82 -133q46 -17 70.5 -54.5t24.5 -86.5v-27q0 -188 -317 -189v73q134 0 183 28.5t49 91.5v25q0 102 -108 102h-89v66h89q95 0 95 99v27q0 78 -93 78q-44 0 -126 -14v68q82 13 126 13z" />
    <glyph glyph-name="four.tosf" 
d="M234 523l71 -22l-138 -433h188v189h82v-189h74v-68h-74v-115h-83v115h-254l-22 45z" />
    <glyph glyph-name="five.tosf" 
d="M418 511v-72h-226v-199q56 44 138 44q69 0 103.5 -40.5t34.5 -129.5v-25q0 -118 -76.5 -170t-260.5 -53v73q101 0 157 17t75.5 47.5t19.5 84.5v29q0 96 -74 96t-132 -65h-65v363h306z" />
    <glyph glyph-name="six.tosf" 
d="M412 606v-73q-123 -2 -177.5 -40.5t-54.5 -114.5v-56q71 67 134 67q72 0 111.5 -44.5t39.5 -132.5v-39q0 -91 -47.5 -138t-138.5 -47q-89 0 -136.5 49.5t-47.5 140.5v184q0 239 317 244zM299 315q-48 0 -119 -65v-77q0 -113 99 -113q101 0 101 108v47q0 49 -21.5 74.5
t-59.5 25.5z" />
    <glyph glyph-name="seven.tosf" 
d="M470 511v-58l-252 -567h-91l252 553v2h-288v70h379z" />
    <glyph glyph-name="eight.tosf" 
d="M280 613q80 0 125.5 -41t45.5 -117v-5q0 -91 -65 -129q89 -41 89 -143v-15q0 -83 -50.5 -129t-144.5 -46t-144.5 46t-50.5 129v15q0 104 89 143q-65 38 -65 129v5q0 75 45.5 116.5t125.5 41.5zM280 547q-88 0 -88 -87v-19q0 -47 20 -67.5t68 -20.5t68 20.5t20 67.5v19
q0 87 -88 87zM280 287q-52 0 -81 -28t-29 -79v-25q0 -44 28.5 -70t81.5 -26t81.5 26t28.5 70v25q0 51 -29 79t-81 28z" />
    <glyph glyph-name="nine.tosf" 
d="M281 523q90 0 137 -48.5t47 -141.5v-220q0 -240 -204 -240q-59 0 -129 16v70q85 -16 129 -16q60 0 89.5 39.5t29.5 123.5v63q-70 -67 -136 -67q-71 0 -110 45t-39 132v59q0 90 47 137.5t139 47.5zM281 451q-101 0 -101 -108v-67q0 -49 21 -74.5t60 -25.5q48 0 119 65v97
q0 113 -99 113z" />
    <glyph glyph-name="less.tosf" 
d="M460 454v-83l-276 -114l276 -115v-83l-360 160v75z" />
    <glyph glyph-name="equal.tosf" 
d="M457 381v-70h-354v70h354zM457 210v-70h-354v70h354z" />
    <glyph glyph-name="greater.tosf" 
d="M100 454l360 -160v-75l-360 -160v83l276 115l-276 114v83z" />
    <glyph glyph-name="asciitilde.tosf" 
d="M203 312q36 0 80 -14t76 -14q16 0 40.5 6t40.5 12l17 7v-70q-42 -28 -100 -28q-36 0 -79 14t-77 14q-16 0 -40.5 -6.5t-40.5 -12.5l-17 -6v70q42 28 100 28z" />
    <glyph glyph-name="cent.tosf" 
d="M345 576v-77q26 -1 78 -10l-2 -75q-55 11 -98 11q-98 0 -98 -100v-161q0 -101 98 -101q43 0 98 11l2 -75q-52 -9 -78 -10v-77h-75v81q-130 23 -130 177v148q0 154 130 177v81h75z" />
    <glyph glyph-name="sterling.tosf" 
d="M345 524q44 0 95 -15v-68q-43 13 -82 13q-52 0 -73.5 -19.5t-21.5 -61.5v-52h95v-70h-95v-67q0 -78 -41 -110h263v-74h-347v60q40 49 40 106v85h-70v70h70v47q0 80 41 118t126 38z" />
    <glyph glyph-name="currency.tosf" 
d="M434 483l56 -56l-61 -60q17 -35 17 -84v-20q0 -49 -21 -90l65 -64l-56 -56l-62 63q-40 -24 -99 -24q-57 0 -97 22l-60 -61l-56 56l62 61q-23 41 -23 93v20q0 49 19 87l-58 57l56 56l54 -55q43 26 103 26q61 0 105 -28zM273 381q-47 0 -69.5 -27t-22.5 -71v-20
q0 -99 92 -99q91 0 91 99v20q0 98 -91 98z" />
    <glyph glyph-name="yen.tosf" 
d="M480 511l-126 -265h63v-70h-96v-36h96v-70h-96v-70h-82v70h-96v70h96v36h-96v70h62l-125 265h92l109 -260l109 260h90z" />
    <glyph glyph-name="section.tosf" 
d="M290 695q45 0 104 -12l-2 -71q-52 12 -98 12q-47 0 -65.5 -14t-18.5 -46v-33q0 -39 41 -55l107 -41q108 -41 108 -120v-31q0 -46 -25 -79t-69 -42q29 -11 46.5 -39t17.5 -65v-38q0 -71 -41 -105.5t-134 -34.5q-50 0 -123 15l2 75q66 -15 121 -15q51 0 69.5 12.5
t18.5 44.5v33q0 50 -41 64l-107 37q-58 20 -83 48t-25 73v24q0 52 28 88t70 41q-31 11 -49.5 39.5t-18.5 67.5v28q0 71 38.5 105t128.5 34zM318 367l-37 11q-48 -1 -74.5 -24.5t-26.5 -59.5v-25q0 -17 13 -29t48 -24l46 -15q45 2 68.5 24t23.5 57v23q0 44 -61 62z" />
    <glyph glyph-name="logicalnot.tosf" 
d="M460 295v-222h-76v152h-285v70h361z" />
    <glyph glyph-name="degree.tosf" 
d="M195 695q159 0 159 -167v-22q0 -167 -159 -167q-79 0 -119.5 43t-40.5 124v22q0 81 40.5 124t119.5 43zM195 626q-83 0 -83 -98v-22q0 -98 83 -98q82 0 82 98v22q0 98 -82 98z" />
    <glyph glyph-name="plusminus.tosf" 
d="M318 448v-152h140v-71h-140v-112h-76v112h-140v71h140v152h76zM457 70v-70h-356v70h356z" />
    <glyph glyph-name="mu.tosf" 
d="M450 488v-488h-80v70q-56 -82 -125 -82q-27 0 -53 16v-189h-82v673h85v-318q0 -103 62 -103q60 0 108 81v340h85z" />
    <glyph glyph-name="multiply.tosf" 
d="M387 418l50 -50l-106 -106l108 -108l-54 -53l-108 107l-105 -105l-50 50l105 105l-107 108l53 54l108 -108z" />
    <glyph glyph-name="divide.tosf" horiz-adv-x="600" 
d="M300 449q49 0 49 -44v-17q0 -43 -49 -43q-48 0 -48 43v17q0 44 48 44zM477 295v-70h-354v70h354zM300 175q49 0 49 -44v-17q0 -43 -49 -43q-48 0 -48 43v17q0 44 48 44z" />
    <glyph glyph-name="florin.tosf" 
d="M377 613q33 0 63 -7v-68q-30 5 -62 5q-66 0 -66 -81v-56h100v-70h-100v-521h-85v521h-70v70h70v51q1 156 150 156z" />
    <glyph glyph-name="uni2007.tosf" 
 />
    <glyph glyph-name="dagger.tosf" 
d="M322 523v-146h132v-80h-132v-297h-85v297h-132v80h132v146h85z" />
    <glyph glyph-name="daggerdbl.tosf" 
d="M322 523v-126h132v-80h-132v-70h132v-80h-132v-167h-85v167h-132v80h132v70h-132v80h132v126h85z" />
    <glyph glyph-name="perthousand.tosf" horiz-adv-x="1250" 
d="M200 625q78 0 117.5 -41.5t39.5 -118.5v-30q0 -77 -39.5 -118.5t-117.5 -41.5t-118 41.5t-40 118.5v30q0 77 40 118.5t118 41.5zM646 613l-335 -613h-87l335 613h87zM200 550q-73 0 -73 -85v-30q0 -85 73 -85q72 0 72 85v30q0 45 -17.5 65t-54.5 20zM670 338
q78 0 117.5 -41.5t39.5 -118.5v-30q0 -77 -39.5 -118.5t-117.5 -41.5t-118 41.5t-40 118.5v30q0 77 40 118.5t118 41.5zM1050 338q78 0 117.5 -41.5t39.5 -118.5v-30q0 -77 -39.5 -118.5t-117.5 -41.5t-118 41.5t-40 118.5v30q0 77 40 118.5t118 41.5zM670 263
q-73 0 -73 -85v-30q0 -85 73 -85q72 0 72 85v30q0 45 -17.5 65t-54.5 20zM1050 263q-73 0 -73 -85v-30q0 -85 73 -85q72 0 72 85v30q0 45 -17.5 65t-54.5 20z" />
    <glyph glyph-name="Euro.tosf" 
d="M344 523q47 0 121 -13l-1 -71q-78 13 -116 13q-57 0 -79.5 -20.5t-22.5 -69.5v-16h183l-15 -70h-168v-55h156l-15 -70h-141v-2q0 -48 23.5 -68t81.5 -20q51 0 116 13l1 -73q-82 -13 -121 -13q-182 0 -182 160v3h-73l15 70h58v55h-67l15 70h52v17q0 160 179 160z" />
    <glyph glyph-name="partialdiff.tosf" 
d="M147 631v64q149 0 227.5 -89t78.5 -266v-170q0 -88 -44 -135t-129 -47q-90 0 -131.5 41t-41.5 128v115q0 82 35 124.5t98 42.5q73 0 128 -78v25q0 114 -62.5 179.5t-158.5 65.5zM257 363q-65 0 -65 -103v-112q0 -89 88 -89t88 89v133q-49 82 -111 82z" />
    <glyph glyph-name="product.tosf" 
d="M572 655v-80h-90v-760h-85v760h-235v-760h-85v760h-90v80h585z" />
    <glyph glyph-name="summation.tosf" 
d="M474 655v-77h-288l189 -322v-39l-192 -325h291v-77h-389v67l203 354l-203 352v67h389z" />
    <glyph glyph-name="minus.tosf" 
d="M457 295v-70h-354v70h354z" />
    <glyph glyph-name="radical.tosf" 
d="M550 683v-70h-84l-202 -613h-110l-144 488h90l110 -426l195 621h145z" />
    <glyph glyph-name="infinity.tosf" 
d="M385 392q71 0 107 -34t36 -96v-11q0 -62 -36 -96t-107 -34q-70 0 -105 46q-35 -46 -106 -46t-107 34t-36 96v11q0 62 36 96t107 34t106 -46q35 46 105 46zM174 322q-63 0 -63 -60v-11q0 -60 63 -60t63 60v11q0 60 -63 60zM385 322q-63 0 -63 -60v-11q0 -60 63 -60t63 60
v11q0 60 -63 60z" />
    <glyph glyph-name="integral.tosf" horiz-adv-x="255" 
d="M235 695q33 0 63 -7v-68q-30 5 -62 5q-66 0 -66 -81v-581q0 -159 -150 -159q-33 0 -63 7v68q30 -5 62 -5q66 0 66 81v581q0 159 150 159z" />
    <glyph glyph-name="approxequal.tosf" 
d="M203 394q36 0 80 -14t76 -14q16 0 40.5 6t40.5 12l17 7v-70q-42 -28 -100 -28q-36 0 -79 14t-77 14q-16 0 -40.5 -6.5t-40.5 -12.5l-17 -6v70q42 28 100 28zM203 244q36 0 80 -14t76 -14q16 0 40.5 6t40.5 12l17 7v-70q-42 -28 -100 -28q-36 0 -79 14t-77 14
q-16 0 -40.5 -6.5t-40.5 -12.5l-17 -6v70q42 28 100 28z" />
    <glyph glyph-name="notequal.tosf" 
d="M433 444l-40 -63h64v-70h-107l-63 -101h170v-70h-214l-40 -65h-76l40 65h-64v70h108l63 101h-171v70h214l40 63h76z" />
    <glyph glyph-name="lessequal.tosf" 
d="M460 454v-83l-276 -94l276 -95v-83l-360 140v75zM460 70v-70h-360v70h360z" />
    <glyph glyph-name="greaterequal.tosf" 
d="M100 454l360 -140v-75l-360 -140v83l276 95l-276 94v83zM460 70v-70h-360v70h360z" />
    <glyph glyph-name="lozenge.tosf" 
d="M314 683l230 -341l-230 -342h-68l-230 342l230 341h68zM280 593l-162 -251l162 -252l162 252z" />
    <glyph glyph-name="c_h" horiz-adv-x="934" 
d="M249 523q44 0 118 -13l-1 -71q-78 13 -113 13q-56 0 -79 -20.5t-23 -69.5v-213q0 -48 23 -68t79 -20q48 0 113 13l1 -73q-82 -13 -118 -13q-94 0 -136.5 38t-42.5 122v215q0 82 41 121t138 39zM859 511v-511h-82v227h-199v-227h-81v511h81v-212h199v212h82z" />
    <glyph glyph-name="c_k" horiz-adv-x="880" 
d="M249 523q44 0 118 -13l-1 -71q-78 13 -113 13q-56 0 -79 -20.5t-23 -69.5v-213q0 -48 23 -68t79 -20q48 0 113 13l1 -73q-82 -13 -118 -13q-94 0 -136.5 38t-42.5 122v215q0 82 41 121t138 39zM860 511l-195 -246l215 -265h-100l-202 253v-253h-81v511h81v-245l193 245
h89z" />
    <glyph glyph-name="s_t" horiz-adv-x="842" 
d="M210 523q51 0 119 -13l-1 -72q-80 14 -118 14q-84 0 -84 -64v-21q0 -25 12 -37t50 -23l75 -23q57 -17 80.5 -48.5t23.5 -88.5v-18q0 -70 -43 -105.5t-142 -35.5q-42 0 -124 17l2 73q75 -17 120 -17q57 0 81.5 15.5t24.5 48.5v26q0 24 -11.5 37t-41.5 22l-84 26
q-58 18 -81 48t-23 87v12q0 140 165 140zM812 511v-73h-154v-438h-81v438h-155v73h390z" />
    <glyph glyph-name="i.latn_TRK" horiz-adv-x="231" 
d="M115 695q56 0 56 -46v-29q0 -45 -56 -45q-55 0 -55 45v29q0 46 55 46zM156 511v-511h-81v511h81z" />
    <glyph glyph-name="ldot.latn_CAT" horiz-adv-x="398" 
d="M156 511v-439h212v-72h-293v511h81zM304 348q56 0 56 -46v-29q0 -45 -56 -45q-55 0 -55 45v29q0 46 55 46z" />
    <glyph glyph-name="parenleft.case" horiz-adv-x="231" 
d="M241 742v-70q-56 -4 -71 -19.5t-15 -70.5v-523q0 -55 14.5 -71t71.5 -19v-70q-105 0 -138 36.5t-33 147.5v475q0 111 33 147.5t138 36.5z" />
    <glyph glyph-name="parenright.case" horiz-adv-x="231" 
d="M-10 672v70q105 0 138 -36.5t33 -147.5v-475q0 -111 -33 -147.5t-138 -36.5v70q57 3 71.5 19t14.5 71v523q0 55 -15 70.5t-71 19.5z" />
    <glyph glyph-name="plus.case" horiz-adv-x="400" 
d="M238 518v-152h140v-71h-140v-152h-76v152h-140v71h140v152h76z" />
    <glyph glyph-name="hyphen.case" horiz-adv-x="350" 
d="M285 359v-65h-220v65h220z" />
    <glyph glyph-name="slash.case" horiz-adv-x="255" 
d="M273 683l-205 -683h-85l205 683h85z" />
    <glyph glyph-name="less.case" horiz-adv-x="400" 
d="M380 524v-83l-276 -114l276 -115v-83l-360 160v75z" />
    <glyph glyph-name="equal.case" horiz-adv-x="420" 
d="M387 451v-70h-354v70h354zM387 280v-70h-354v70h354z" />
    <glyph glyph-name="greater.case" horiz-adv-x="400" 
d="M20 524l360 -160v-75l-360 -160v83l276 115l-276 114v83z" />
    <glyph glyph-name="bracketleft.case" horiz-adv-x="260" 
d="M275 740v-70h-120v-699h120v-70h-205v839h205z" />
    <glyph glyph-name="backslash.case" horiz-adv-x="255" 
d="M68 683l205 -683h-85l-205 683h85z" />
    <glyph glyph-name="bracketright.case" horiz-adv-x="260" 
d="M190 740v-839h-205v70h120v699h-120v70h205z" />
    <glyph glyph-name="grave.case" horiz-adv-x="219" 
d="M123 829l66 -119h-74l-85 119h93z" />
    <glyph glyph-name="braceleft.case" horiz-adv-x="256" 
d="M266 740v-70q-55 0 -70.5 -16t-15.5 -73v-146q0 -51 -13.5 -77.5t-44.5 -37.5q58 -19 58 -115v-145q0 -58 16 -73.5t70 -15.5v-70q-104 0 -137.5 34t-33.5 146v124q0 46 -14.5 63t-50.5 17h-25v70h25q36 0 50.5 17.5t14.5 62.5v125q0 59 7.5 93.5t28.5 54.5t51 26t84 6z
" />
    <glyph glyph-name="braceright.case" horiz-adv-x="256" 
d="M-9 670v70q54 0 84 -6t51 -26t28.5 -54.5t7.5 -93.5v-125q0 -45 14.5 -62.5t50.5 -17.5h25v-70h-25q-36 0 -50.5 -17t-14.5 -63v-124q0 -112 -33.5 -146t-137.5 -34v70q54 0 70 15.5t16 73.5v145q0 96 58 115q-31 11 -44.5 37.5t-13.5 77.5v146q0 57 -15.5 73t-70.5 16z
" />
    <glyph glyph-name="asciitilde.case" horiz-adv-x="390" 
d="M118 382q36 0 80 -14t76 -14q16 0 40.5 6t41.5 12l16 7v-70q-42 -28 -100 -28q-36 0 -79 14t-77 14q-16 0 -40.5 -6.5t-41.5 -12.5l-16 -6v70q42 28 100 28z" />
    <glyph glyph-name="dieresis.case" horiz-adv-x="332" 
d="M82 824q52 0 52 -43v-29q0 -42 -52 -42q-24 0 -38 11.5t-14 30.5v29q0 43 52 43zM249 824q53 0 53 -43v-29q0 -42 -53 -42q-23 0 -37.5 11.5t-14.5 30.5v29q0 21 14 32t38 11z" />
    <glyph glyph-name="guillemotleft.case" horiz-adv-x="488" 
d="M253 468l-93 -170l93 -170h-88l-100 170l100 170h88zM423 468l-93 -170l93 -170h-88l-100 170l100 170h88z" />
    <glyph glyph-name="uni00AD.case" horiz-adv-x="350" 
d="M285 358v-65h-220v65h220z" />
    <glyph glyph-name="macron.case" horiz-adv-x="295" 
d="M265 790v-75h-235v75h235z" />
    <glyph glyph-name="acute.case" horiz-adv-x="219" 
d="M189 829l-85 -119h-74l66 119h93z" />
    <glyph glyph-name="periodcentered.case" horiz-adv-x="221" 
d="M110 341q57 0 57 -47v-29q0 -46 -57 -46q-56 0 -56 46v29q0 47 56 47z" />
    <glyph glyph-name="guillemotright.case" horiz-adv-x="488" 
d="M153 468l100 -170l-100 -170h-88l93 170l-93 170h88zM323 468l100 -170l-100 -170h-88l93 170l-93 170h88z" />
    <glyph glyph-name="multiply.case" horiz-adv-x="400" 
d="M307 488l50 -50l-106 -106l108 -108l-54 -53l-108 107l-105 -105l-50 50l105 105l-107 108l53 54l108 -108z" />
    <glyph glyph-name="circumflex.case" horiz-adv-x="340" 
d="M170 840l140 -61v-68l-140 49l-140 -49v68z" />
    <glyph glyph-name="caron.case" horiz-adv-x="340" 
d="M310 841v-68l-140 -61l-140 61v68l140 -49z" />
    <glyph glyph-name="breve.case" horiz-adv-x="340" 
d="M310 830v-78q-67 -47 -140 -47q-34 0 -69 11.5t-53 23.5l-18 12v78q8 -6 21.5 -15t50.5 -23.5t68 -14.5t66 13.5t54 26.5z" />
    <glyph glyph-name="dotaccent.case" horiz-adv-x="171" 
d="M85 830q56 0 56 -46v-29q0 -45 -56 -45q-55 0 -55 45v29q0 46 55 46z" />
    <glyph glyph-name="ring.case" horiz-adv-x="290" 
d="M145 865q53 0 84 -25t31 -75t-30.5 -75t-84.5 -25q-53 0 -84 25t-31 75t30.5 75t84.5 25zM145 810q-50 0 -50 -45t50 -45t50 45t-50 45z" />
    <glyph glyph-name="tilde.case" horiz-adv-x="340" 
d="M310 810v-70q-34 -30 -80 -30q-22 0 -62 12.5t-60 12.5q-15 0 -34.5 -6.5t-31.5 -12.5l-12 -6v70q34 30 80 30q29 0 67 -12.5t55 -12.5q15 0 34.5 6.5t31.5 12.5z" />
    <glyph glyph-name="hungarumlaut.case" horiz-adv-x="339" 
d="M167 829l-65 -119h-72l51 119h86zM309 829l-65 -119h-72l51 119h86z" />
    <glyph glyph-name="uni0326.case" horiz-adv-x="0" 
d="M74 -56q49 0 49 -36v-26q0 -21 -8 -47l-22 -66h-51l17 76q-29 10 -29 38v25q0 16 12 26t32 10z" />
    <glyph glyph-name="tonos.case" horiz-adv-x="171" 
d="M141 655l-45 -139h-66l26 139h85z" />
    <glyph glyph-name="endash.case" horiz-adv-x="610" 
d="M545 359v-65h-480v65h480z" />
    <glyph glyph-name="emdash.case" horiz-adv-x="710" 
d="M645 359v-65h-580v65h580z" />
    <glyph glyph-name="bullet.case" horiz-adv-x="235" 
d="M117 365q63 0 63 -51v-33q0 -51 -63 -51q-62 0 -62 51v33q0 51 62 51z" />
    <glyph glyph-name="guilsinglleft.case" horiz-adv-x="318" 
d="M253 468l-93 -170l93 -170h-88l-100 170l100 170h88z" />
    <glyph glyph-name="guilsinglright.case" horiz-adv-x="318" 
d="M153 468l100 -170l-100 -170h-88l93 170l-93 170h88z" />
    <glyph glyph-name="minus.case" horiz-adv-x="400" 
d="M377 335v-70h-354v70h354z" />
    <glyph glyph-name="infinity.case" horiz-adv-x="527" 
d="M369 462q71 0 107 -34t36 -96v-11q0 -62 -36 -96t-107 -34q-70 0 -105 46q-35 -46 -106 -46t-107 34t-36 96v11q0 62 36 96t107 34t106 -46q35 46 105 46zM158 392q-63 0 -63 -60v-11q0 -60 63 -60t63 60v11q0 60 -63 60zM369 392q-63 0 -63 -60v-11q0 -60 63 -60t63 60
v11q0 60 -63 60z" />
    <glyph glyph-name="approxequal.case" horiz-adv-x="390" 
d="M118 464q36 0 80 -14t76 -14q16 0 40.5 6t41.5 12l16 7v-70q-42 -28 -100 -28q-36 0 -79 14t-77 14q-16 0 -40.5 -6.5t-41.5 -12.5l-16 -6v70q42 28 100 28zM118 314q36 0 80 -14t76 -14q16 0 40.5 6t41.5 12l16 7v-70q-42 -28 -100 -28q-36 0 -79 14t-77 14
q-16 0 -40.5 -6.5t-41.5 -12.5l-16 -6v70q42 28 100 28z" />
    <glyph glyph-name="notequal.case" horiz-adv-x="400" 
d="M353 514l-40 -63h64v-70h-107l-63 -101h170v-70h-214l-40 -65h-76l40 65h-64v70h108l63 101h-171v70h214l40 63h76z" />
    <glyph glyph-name="zero.zero" horiz-adv-x="500" 
d="M250 613q90 0 137.5 -51.5t47.5 -153.5v-215q0 -102 -47.5 -153.5t-137.5 -51.5t-137.5 51.5t-47.5 153.5v215q0 102 47.5 153.5t137.5 51.5zM250 541q-100 0 -100 -125v-231q0 -41 9 -66l124 417q-17 5 -33 5zM338 486l-125 -421q18 -5 37 -5q100 0 100 125v231
q0 42 -12 70z" />
    <glyph glyph-name="zero.osf.zero" horiz-adv-x="490" 
d="M245 523q90 0 140 -51.5t50 -153.5v-125q0 -101 -50.5 -153t-141.5 -52q-90 0 -139 51.5t-49 153.5v125q0 102 50 153.5t140 51.5zM245 451q-105 0 -105 -125v-141q0 -56 22 -87l105 351q-14 2 -22 2zM326 414l-105 -352q8 -2 24 -2q49 0 77 31t28 94v141q0 56 -24 88z
" />
    <glyph glyph-name="zero.tf.zero" 
d="M280 667q94 0 143.5 -51.5t49.5 -153.5v-269q0 -102 -49.5 -153.5t-143.5 -51.5t-143.5 51.5t-49.5 153.5v269q0 102 49.5 153.5t143.5 51.5zM280 595q-108 0 -108 -125v-285q0 -42 11 -67l139 470q-17 7 -42 7zM377 536l-139 -470q18 -6 42 -6q108 0 108 125v285
q0 38 -11 66z" />
    <glyph glyph-name="zero.tosf.zero" 
d="M280 523q90 0 140 -51.5t50 -153.5v-125q0 -101 -50.5 -153t-141.5 -52q-90 0 -139 51.5t-49 153.5v125q0 102 50 153.5t140 51.5zM280 451q-105 0 -105 -125v-141q0 -56 22 -87l105 351q-14 2 -22 2zM361 414l-105 -352q8 -2 24 -2q49 0 77 31t28 94v141q0 56 -24 88z
" />
    <glyph glyph-name="uni0432.ss01" horiz-adv-x="443" 
d="M221 500q85 0 127.5 -36t42.5 -90v-9q0 -82 -79 -112q47 -10 74 -41.5t27 -75.5v-5q0 -65 -45.5 -104t-144.5 -39q-74 0 -153 4v505q78 3 151 3zM211 432q-28 0 -60 -2v-151h76q85 0 85 77v5q0 71 -101 71zM232 213h-81v-153q40 -3 76 -3q105 0 105 79v5q0 72 -100 72z
" />
    <glyph glyph-name="uni0433.ss01" horiz-adv-x="361" 
d="M336 488v-70h-181v-418h-85v488h266z" />
    <glyph glyph-name="uni0434.ss01" horiz-adv-x="496" 
d="M270 500q61 0 151 -10v-421h62v-189h-82v120h-306v-120h-82v189h62v258q0 86 45.5 129.5t149.5 43.5zM266 433q-58 0 -82 -24t-24 -71v-269h176v360q-45 4 -70 4z" />
    <glyph glyph-name="uni0436.ss01" horiz-adv-x="613" 
d="M593 488l-119 -220l129 -268h-92l-110 227h-53v-227h-83v227h-56l-109 -227h-90l129 268l-119 220h92l103 -193h50v192h83v-192h49l104 193h92z" />
    <glyph glyph-name="uni043A.ss01" horiz-adv-x="437" 
d="M410 488l-134 -218l146 -270h-100l-118 227h-49v-227h-85v488h85v-193h48l114 193h93z" />
    <glyph glyph-name="uni044E.ss01" horiz-adv-x="644" 
d="M417 500q167 0 167 -182v-148q0 -182 -167 -182q-168 0 -168 182v45h-94v-215h-85v488h85v-203h94v33q0 182 168 182zM417 429q-40 0 -61.5 -26t-21.5 -74v-169q0 -48 21.5 -74.5t61.5 -26.5q82 0 82 101v168q0 101 -82 101z" />
    <glyph glyph-name="z.ss02" horiz-adv-x="356" 
d="M310 488v-65l-140 -200h5q80 -4 120.5 -51.5t40.5 -130.5v-77q0 -84 -41.5 -122.5t-134.5 -38.5q-43 0 -137 15v73q88 -15 135 -15q50 0 71.5 19t21.5 60v96q0 49 -24 75t-67 26h-86l1 57l133 204h-188v75h290z" />
    <glyph glyph-name="germandbls.ss02" horiz-adv-x="488" 
d="M245 695q37 0 63 -6v-68q-26 4 -62 4q-58 0 -61 -73v-64h245v-61l-97 -205q148 -15 148 -181v-77q0 -84 -41 -122.5t-130 -38.5q-55 0 -103 12v73q53 -12 101 -12q46 0 67 19t21 60v94q0 52 -22.5 77.5t-73.5 25.5h-59v52l89 214h-145v-418h-85v418h-70v70h70v51
q1 156 145 156z" />
    <glyph glyph-name="ampersand.ss03" horiz-adv-x="569" 
d="M240 667q47 0 118 -11l-2 -71q-62 11 -116 11q-102 0 -102 -96v-22q0 -50 30 -80.5t75 -30.5h27v-69h-33q-56 0 -89 -30t-33 -80v-27q0 -48 29 -74.5t86 -26.5q43 0 77.5 19.5t41.5 50.5v238l22 89h60v-89h88v-70h-88v-187q0 -28 8.5 -39.5t35.5 -11.5q39 0 79 8v-70
q-44 -10 -75 -10q-89 0 -115 54q-54 -54 -137 -54q-197 0 -197 174v22q0 56 30.5 97.5t86.5 58.5q-92 40 -92 145v22q0 70 48.5 115t136.5 45z" />
    <glyph glyph-name="caron.alt" horiz-adv-x="108" 
d="M74 695q49 0 49 -36v-26q0 -21 -8 -47l-22 -66h-51l17 76q-29 10 -29 38v25q0 16 12 26t32 10z" />
    </font>
</defs>
</svg>
